<svg width="115" height="115" viewBox="0 0 115 115" fill="none" xmlns="http://www.w3.org/2000/svg">
<path d="M60.1033 51.2959C61.1967 51.7695 62.0613 52.1328 62.6938 52.3988C63.3263 52.6648 64.2067 53.0897 65.3287 53.6769C66.4507 54.264 67.3598 54.7798 68.0495 55.2209C68.7392 55.6621 69.5624 56.233 70.5128 56.9402C71.3432 57.5333 72.0981 58.2296 72.76 59.013C73.3651 59.7725 73.9275 60.5663 74.4446 61.3907C74.9879 62.2304 75.3956 63.1537 75.6524 64.1253C75.8967 65.1496 76.0131 66.2014 75.9988 67.2556C75.9914 68.502 75.8464 69.7436 75.5666 70.9568C75.0475 72.9593 73.651 74.8408 71.3773 76.6011C69.1037 78.3614 65.9252 79.5076 61.8419 80.0396L61.3207 90.4425C61.3086 91.1925 61.1452 91.9319 60.8406 92.6144C60.536 93.297 60.0967 93.9082 59.5503 94.4098C58.4652 95.4537 57.0237 96.024 55.5327 95.9992H55.2752C54.513 95.9857 53.762 95.8099 53.0702 95.4832C52.3784 95.1564 51.761 94.6858 51.2576 94.1016C50.7381 93.5319 50.3426 92.8563 50.0972 92.1195C49.8518 91.3826 49.762 90.601 49.8337 89.8262L50.2628 79.952C48.2477 79.6557 46.5779 79.3616 45.2535 79.0696C44.5073 78.9406 43.7955 78.6546 43.1635 78.2296C42.5314 77.8046 41.993 77.25 41.5824 76.6011C41.1473 75.9673 40.8458 75.2483 40.697 74.4895C40.5482 73.7306 40.5553 72.9486 40.7179 72.1927C40.8589 71.4307 41.1499 70.7058 41.5733 70.0618C41.9967 69.4178 42.5437 68.8681 43.1812 68.4461C43.8018 68.0018 44.5079 67.6974 45.2527 67.5532C45.9974 67.4089 46.7638 67.428 47.5007 67.6092C50.2483 68.1633 53.0354 68.4887 55.8347 68.5823C58.3435 68.6407 60.2019 68.5326 61.4097 68.2579C62.4299 68.0612 63.4183 67.7205 64.3466 67.2459C63.8847 66.1884 60.9764 64.4832 55.6217 62.1303C53.8354 61.3107 52.4676 60.6792 51.5183 60.2359C50.569 59.7926 49.2976 59.1319 47.7041 58.2539C46.3727 57.5513 45.1249 56.6947 43.9853 55.701C43.0004 54.7729 42.1169 53.7386 41.3504 52.6161C40.498 51.4142 39.853 50.0725 39.4433 48.6489C38.8678 46.7403 38.8523 44.7015 39.3988 42.7841C39.9698 40.7733 41.0241 38.9402 42.466 37.4512C44.5405 35.2194 47.3915 33.6613 51.0192 32.7768L51.4515 24.5796C51.4638 23.8019 51.6353 23.0354 51.9549 22.3293C52.2746 21.6231 52.7354 20.9931 53.3078 20.4794C53.8669 19.9503 54.5288 19.5472 55.2506 19.2963C55.9723 19.0454 56.7377 18.9522 57.497 19.0229C58.2454 19.044 58.9814 19.2235 59.6582 19.5502C60.335 19.8769 60.9379 20.3435 61.4287 20.9206C61.9482 21.4938 62.3497 22.1675 62.6096 22.9018C62.8695 23.6362 62.9824 24.4163 62.9417 25.196L62.5953 32.5141C63.9645 32.6901 65.3214 32.9555 66.6574 33.3088C67.3998 33.4922 68.0991 33.8243 68.7146 34.286C69.3301 34.7476 69.8495 35.3296 70.2427 35.998C70.6491 36.6526 70.9157 37.3872 71.0253 38.1541C71.1348 38.9209 71.0848 39.7027 70.8784 40.4485C70.702 41.202 70.3774 41.9111 69.9245 42.5328C69.4716 43.1546 68.8996 43.6759 68.2434 44.0654C67.5971 44.4686 66.8762 44.7315 66.1259 44.8375C65.3755 44.9436 64.6119 44.8905 63.8826 44.6817C62.0937 44.2395 60.2729 43.9445 58.4378 43.7994C57.0834 43.6665 55.7175 43.7255 54.3789 43.9745C53.5321 44.148 52.7062 44.4145 51.9156 44.7693C51.4214 44.9754 50.9894 45.3111 50.6633 45.7424C51.371 46.9751 54.5177 48.8262 60.1033 51.2959Z" fill="black"/>
<path d="M105.701 9.29856V105.701H9.29856V9.29856H105.701ZM105.701 0H9.29856C6.83243 0 4.46733 0.97966 2.72351 2.72348C0.979689 4.4673 0 6.83243 0 9.29856V105.701C0 108.168 0.979689 110.533 2.72351 112.277C4.46733 114.02 6.83243 115 9.29856 115H105.701C108.168 115 110.533 114.02 112.277 112.277C114.02 110.533 115 108.168 115 105.701V9.29856C115 6.83243 114.02 4.4673 112.277 2.72348C110.533 0.97966 108.168 0 105.701 0V0Z" fill="#231F20"/>
</svg>
