<svg width="1917" height="182" viewBox="0 0 1917 182" fill="none" xmlns="http://www.w3.org/2000/svg">
<path d="M1352.15 123.148L1353.08 120.658L1355.78 121.975C1362 124.987 1368.8 126.531 1375.68 126.493C1388.21 126.493 1400.06 121.44 1407.41 112.969L1411.08 108.741L1411.9 113.896C1415.11 133.718 1435.66 148.647 1459.71 148.647C1486.32 148.647 1512.69 117.921 1507.9 128.375C1553.11 30.1902 1444.22 71.8042 1460.3 49.5782C1426.98 95.6518 1400.6 69.053 1400.6 69.053C1390.65 74.5842 1378.97 73.1942 1378.97 73.1942C1387.28 66.273 1392.27 53.8062 1392.27 53.8062C1370.65 74.5842 1329.05 78.7398 1329.05 78.7398C1340.69 81.5198 1357.33 80.1877 1357.33 80.1877C1357.33 80.1877 1354.01 106.497 1322.4 109.277C1290.79 112.057 1279.13 89.889 1279.13 89.889C1257.5 105.121 1237.53 89.889 1237.53 89.889C1210.9 99.5757 1200.93 87.1089 1200.93 87.1089C1219.23 87.1089 1229.21 80.1877 1229.21 80.1877C1185.95 87.1089 1167.65 67.7209 1167.65 67.7209C1167.65 76.0321 1179.29 82.9533 1179.29 82.9533C1141.03 99.5757 1121.02 70.4865 1121.02 70.4865C1094.01 92.7414 1066.24 81.2012 1060.28 73.252C1060.28 88.5423 1075.21 100.966 1093.56 100.966C1097.65 100.963 1101.72 100.318 1105.62 99.0544L1108.11 98.2436L1108.91 100.372C1114.81 116.053 1132.05 126.58 1151.8 126.58C1167.52 126.58 1182.32 119.586 1190.39 108.321L1192.61 105.237L1194.72 108.365C1198.85 114.475 1206.63 118.269 1215.03 118.269C1218.55 118.337 1222.05 117.655 1225.3 116.266C1228.55 114.878 1231.48 112.813 1233.9 110.204L1238.02 105.454L1238.42 111.246C1240.13 136.904 1265.67 157.001 1296.56 157.001C1322.14 157.001 1344.39 143.405 1352.09 123.177" fill="#CDCDCD"/>
<path d="M1778.24 130.541L1779.31 127.797L1782.33 129.262C1789.26 132.582 1796.85 134.289 1804.53 134.256C1818.54 134.256 1831.79 128.666 1840 119.309L1844.1 114.64L1845.03 120.332C1848.62 142.232 1871.59 158.73 1898.49 158.73C1928.23 158.73 1965.11 135.245 1952.44 114.418C1956.98 121.9 1944.2 63.3917 1865.93 84.5931C1895.91 76.4636 1832.45 70.8224 1832.45 70.8224C1821.28 76.9408 1808.26 75.4069 1808.26 75.4069C1817.56 67.7546 1823.13 54.001 1823.13 54.001C1798.96 76.9408 1752.45 81.5253 1752.45 81.5253C1765.47 84.593 1784.07 83.0592 1784.07 83.0592C1784.07 83.0592 1780.35 112.117 1745 115.185C1709.65 118.253 1696.64 93.7621 1696.64 93.7621C1672.45 110.583 1650.12 93.7621 1650.12 93.7621C1620.36 104.465 1609.2 90.7114 1609.2 90.7114C1629.66 90.7114 1640.83 83.0592 1640.83 83.0592C1592.45 90.7114 1571.99 69.2885 1571.99 69.2885C1571.99 78.4746 1585.01 86.1269 1585.01 86.1269C1542.23 104.465 1519.9 72.3562 1519.9 72.3562C1489.67 96.9321 1458.66 84.1839 1452 75.4068C1452 92.2793 1468.68 106.084 1489.26 106.084C1493.86 106.096 1498.43 105.383 1502.81 103.971L1505.59 103.085L1506.49 105.436C1513.08 122.752 1532.35 134.409 1554.44 134.409C1572.02 134.409 1588.57 126.672 1597.6 114.231L1600.07 110.822L1602.43 114.231C1607.03 121.048 1615.74 125.172 1625.12 125.172C1629.06 125.248 1632.98 124.496 1636.61 122.964C1640.24 121.432 1643.52 119.154 1646.23 116.276L1650.85 111.027L1651.28 117.486C1653.19 145.811 1681.77 168.001 1716.29 168.001C1744.81 168.001 1769.76 153.003 1778.36 130.643" fill="#CDCDCD"/>
<path d="M648.931 124.781L647.325 120.553L642.762 122.797C632.273 127.868 620.8 130.476 609.189 130.428C588.04 130.428 567.97 121.885 555.59 107.564L549.407 100.426L547.986 109.114C542.57 142.605 507.846 167.842 467.21 167.842C422.252 167.842 384.609 160.601 374.488 130.428C323.646 -21.1307 493.377 38.0197 466.214 0.373065C522.515 78.2001 567.018 33.2559 567.018 33.2559C583.889 42.6096 603.575 40.2785 603.575 40.2785C589.518 28.5646 581.075 7.51145 581.075 7.51145C617.632 42.6097 687.919 49.6322 687.919 49.6322C668.233 54.3235 640.118 51.9779 640.118 51.9779C640.118 51.9779 645.804 96.4443 699.162 101.121C752.52 105.798 772.262 68.4266 772.262 68.4266C808.806 94.1566 842.549 68.4266 842.549 68.4266C887.535 84.8028 904.407 63.7353 904.407 63.7353C873.478 63.7352 856.606 52.0358 856.606 52.0358C929.707 63.7352 960.636 30.9682 960.636 30.9682C960.636 45.0278 940.95 56.7272 940.95 56.7272C1005.62 84.8029 1039.35 35.6451 1039.35 35.6451C1085.03 73.2917 1131.9 53.7445 1141.97 40.3365C1141.97 66.1534 1116.74 87.1485 1085.74 87.1485C1078.83 87.1514 1071.95 86.0622 1065.36 83.9196L1061.1 82.5586L1059.76 86.135C1049.81 112.647 1020.67 130.442 987.272 130.442C960.693 130.442 935.691 118.612 922.046 99.5864L918.307 94.3738L914.754 99.6588C907.775 109.983 894.628 116.397 880.428 116.397C867.863 116.397 855.938 111.3 848.533 102.772L841.568 94.7502L840.914 104.625C838.072 147.977 794.862 181.931 742.67 181.931C699.56 181.931 661.865 158.967 648.86 124.781" fill="#CDCDCD"/>
<path d="M291.749 108.345L292.943 105.217L296.354 106.882C304.172 110.67 312.727 112.615 321.384 112.573C337.162 112.573 352.115 106.202 361.368 95.5157L365.987 90.2018L367.039 96.7031C371.075 121.68 396.973 140.503 427.29 140.503C460.82 140.503 494.094 101.785 488.011 114.904C545.008 -8.85222 407.761 43.6069 428.029 15.6036C386.028 73.6518 352.839 40.1318 352.839 40.1318C340.26 47.1109 325.578 45.3589 325.578 45.3589C336.067 36.6712 342.35 20.932 342.35 20.932C315.088 47.1109 262.668 52.3524 262.668 52.3524C277.337 55.842 298.316 54.1045 298.316 54.1045C298.316 54.1045 294.123 87.2625 254.254 90.752C214.384 94.2415 199.73 66.3251 199.73 66.3251C172.468 85.5104 147.31 66.3251 147.31 66.3251C113.766 78.5313 101.201 62.7776 101.201 62.7776C124.27 62.7776 136.849 54.09 136.849 54.09C82.3256 62.7776 59.2568 38.3653 59.2568 38.3653C59.2568 48.8484 73.9396 57.5795 73.9396 57.5795C25.7127 78.5168 0.540199 41.8548 0.540199 41.8548C-33.5725 69.9015 -68.481 55.3641 -76 45.3443C-76 64.602 -57.1811 80.2688 -34.0556 80.2688C-28.8949 80.2687 -23.7652 79.458 -18.847 77.8652L-15.7059 76.8517L-14.711 79.5159C-7.27728 99.2803 14.4411 112.558 39.3008 112.558C59.1999 112.558 77.7628 103.74 87.9398 89.5502L90.7825 85.6552L93.4406 89.5936C98.657 97.2967 108.45 102.089 119.025 102.089C128.406 102.089 137.29 98.2958 142.819 91.9538L148.021 85.9593L148.504 93.3438C150.665 125.676 182.859 151.001 221.776 151.001C253.941 151.001 282.056 133.872 291.763 108.359" fill="#CDCDCD"/>
</svg>
