<?xml version="1.0" encoding="utf-8"?>
<!-- Generator: Adobe Illustrator 25.4.1, SVG Export Plug-In . SVG Version: 6.00 Build 0)  -->
<svg version="1.1" id="Layer_1" xmlns="http://www.w3.org/2000/svg" xmlns:xlink="http://www.w3.org/1999/xlink" x="0px" y="0px"
	 viewBox="0 0 134 152" style="enable-background:new 0 0 134 152;" xml:space="preserve">
<style type="text/css">
	.st0{fill:#231F20;}
</style>
<path class="st0" d="M67.3,12.2l54.8,31.7V110l-54.8,29.8L11.9,110V43.9l29.3-16.7L67.3,12.2L67.3,12.2z M67.3,2
	c-1.7,0-3.5,0.5-5,1.3L36.2,18.2L6.9,35c-1.6,0.9-2.9,2.2-3.8,3.7c-0.9,1.6-1.4,3.3-1.4,5.1V110c0,1.8,0.5,3.7,1.4,5.3
	c0.9,1.6,2.3,2.9,3.9,3.8l55.4,29.8c1.5,0.8,3.1,1.2,4.8,1.2c1.7,0,3.3-0.4,4.8-1.2l54.8-29.8c1.6-0.9,2.9-2.2,3.9-3.8
	c0.9-1.6,1.4-3.4,1.4-5.2V43.9c0-1.8-0.5-3.6-1.4-5.1c-0.9-1.6-2.2-2.8-3.7-3.7L72.3,3.3C70.8,2.5,69.1,2,67.3,2L67.3,2z"/>
<path class="st0" d="M49.8,53.6c0.9,0,1.8,0.2,2.6,0.7c0.8,0.4,1.5,1.1,1.9,1.9c0.5,0.8,0.7,1.7,0.8,2.6L56,91.3
	c0,0.7-0.1,1.4-0.4,2.1c-0.3,0.7-0.6,1.3-1.1,1.8c-0.5,0.5-1.1,0.9-1.8,1.2c-1,0.4-2.1,0.5-3.2,0.3c-1.1-0.2-2-0.8-2.8-1.5
	L32.1,79.4l0.6,14.4c0,0.7-0.1,1.4-0.3,2.1c-0.3,0.6-0.6,1.2-1.1,1.7c-0.5,0.5-1,0.9-1.6,1.2c-0.6,0.3-1.3,0.5-2,0.5h-0.2
	c-0.7,0-1.4-0.1-2-0.4c-0.6-0.3-1.2-0.6-1.7-1.1c-0.5-0.5-0.9-1-1.2-1.7c-0.3-0.6-0.4-1.3-0.4-2l-1.2-28.8c0-1.1,0.2-2.2,0.8-3.1
	c0.6-0.9,1.4-1.7,2.4-2.1c1-0.4,2.1-0.5,3.2-0.3c1.1,0.2,2,0.8,2.8,1.5l14.9,15.9l-0.5-18.5c0-0.7,0.1-1.4,0.3-2.1
	c0.3-0.7,0.6-1.3,1.1-1.8c0.5-0.5,1.1-0.9,1.7-1.2c0.6-0.3,1.3-0.4,2-0.4L49.8,53.6z"/>
<path class="st0" d="M82.1,62c0.7,0,1.4,0.2,2,0.5c0.6,0.3,1.2,0.7,1.7,1.3c0.5,0.5,0.9,1.1,1.1,1.8c0.2,0.7,0.4,1.4,0.3,2.1
	c0,0.7-0.2,1.4-0.5,2c-0.3,0.6-0.7,1.2-1.2,1.7c-1,1-2.4,1.5-3.8,1.5c-5.5-0.2-9.9-0.2-13.4,0.1c0,1.1-0.1,2.4-0.1,4.1l7.2,0.1
	c0.7,0,1.4,0.2,2,0.4c0.6,0.3,1.2,0.7,1.7,1.2c0.5,0.5,0.9,1.1,1.1,1.8c0.3,0.7,0.4,1.4,0.3,2.1c0,0.7-0.2,1.4-0.4,2
	c-0.3,0.6-0.7,1.2-1.2,1.7c-0.5,0.5-1.1,0.9-1.7,1.2c-0.6,0.3-1.3,0.4-2,0.4H75l-6.7-0.2c0.1,2.5,0.2,4.9,0.4,7.1
	c0,0.7,0,1.4-0.3,2.1c-0.2,0.7-0.6,1.3-1.1,1.8c-0.5,0.5-1,1-1.6,1.3c-0.6,0.3-1.3,0.5-2,0.5h-0.3c-1.4,0-2.7-0.5-3.6-1.5
	c-1-0.9-1.6-2.2-1.7-3.6c-0.3-5.4-0.5-10-0.6-13.8s-0.1-6.7,0-8.8c0-1.7,0.3-3.3,0.7-5c0.4-1.3,0.7-2.1,1-2.5
	c0.3-0.4,0.7-0.8,1.2-1.2c0.2-0.2,0.5-0.4,0.8-0.6c0.4-0.2,0.8-0.4,1.3-0.6c0.7-0.3,1.5-0.5,2.3-0.6c0.9-0.1,2.1-0.3,3.8-0.4
	c1.9-0.2,3.8-0.2,5.6-0.2C76.3,61.9,78.9,62,82.1,62z"/>
<path class="st0" d="M114,60.4c0.7,0,1.4,0.1,2,0.4c0.6,0.3,1.2,0.7,1.7,1.2c0.5,0.5,0.9,1.1,1.2,1.7c0.3,0.6,0.4,1.3,0.4,2
	c0,0.7-0.1,1.4-0.3,2.1c-0.3,0.7-0.7,1.3-1.2,1.8c-0.5,0.5-1.1,0.9-1.7,1.2c-0.7,0.3-1.4,0.4-2.1,0.4l-5.7,0.1v22.2
	c0,0.7-0.1,1.4-0.4,2.1c-0.3,0.7-0.7,1.2-1.2,1.7c-0.5,0.5-1.1,0.9-1.7,1.2c-0.6,0.3-1.3,0.4-2,0.4c-0.7,0-1.4-0.1-2-0.4
	c-0.6-0.3-1.2-0.7-1.7-1.2c-0.5-0.5-0.9-1.1-1.2-1.7c-0.3-0.7-0.4-1.4-0.4-2.1v-22l-6.1,0.1h-0.1c-0.7,0-1.4-0.1-2-0.4
	c-0.6-0.3-1.2-0.7-1.7-1.2c-0.5-0.5-0.9-1.1-1.2-1.7c-0.3-0.7-0.4-1.4-0.4-2.1c0-0.7,0.1-1.4,0.4-2s0.7-1.2,1.1-1.7
	c0.5-0.5,1.1-0.9,1.7-1.2c0.6-0.3,1.3-0.4,2-0.4L114,60.4L114,60.4z"/>
</svg>
