<svg width="48" height="48" viewBox="0 0 48 48" fill="none" xmlns="http://www.w3.org/2000/svg">
<path d="M48 24C48 37.2541 37.2541 48 24 48C10.7459 48 0 37.2541 0 24C0 10.7459 10.7459 0 24 0C37.2569 0 48 10.7459 48 24Z" fill="#2081E2"/>
<path d="M11.8405 24.8064L11.9441 24.6437L18.1875 14.8767C18.2787 14.7337 18.4932 14.7485 18.5622 14.9038C19.6053 17.2414 20.5053 20.1486 20.0836 21.9584C19.9036 22.7031 19.4105 23.7116 18.8557 24.6437C18.7842 24.7793 18.7053 24.9125 18.6214 25.0407C18.582 25.0998 18.5154 25.1344 18.4439 25.1344H12.023C11.8504 25.1344 11.7493 24.947 11.8405 24.8064Z" fill="white"/>
<path d="M39.6693 26.6214V28.1674C39.6693 28.2562 39.615 28.3351 39.5362 28.3696C39.0529 28.5767 37.3983 29.3362 36.7104 30.2929C34.9547 32.7365 33.6133 36.2305 30.6149 36.2305H18.1061C13.6726 36.2305 10.08 32.6255 10.08 28.1773V28.0342C10.08 27.9159 10.1761 27.8197 10.2945 27.8197H17.2677C17.4058 27.8197 17.5069 27.9479 17.4946 28.0836C17.4452 28.5373 17.5291 29.0008 17.7436 29.4225C18.1579 30.2633 19.016 30.7885 19.9431 30.7885H23.3952V28.0934H19.9825C19.8075 28.0934 19.7039 27.8912 19.805 27.7482C19.842 27.6915 19.8839 27.6323 19.9283 27.5658C20.2513 27.1071 20.7124 26.3945 21.171 25.5832C21.4842 25.0359 21.7875 24.4515 22.0316 23.8646C22.0809 23.7586 22.1204 23.6501 22.1598 23.544C22.2264 23.3567 22.2954 23.1816 22.3448 23.0066C22.394 22.8586 22.4335 22.7032 22.473 22.5578C22.5889 22.0597 22.6382 21.532 22.6382 20.9846C22.6382 20.7701 22.6283 20.5457 22.6086 20.3311C22.5987 20.0969 22.5691 19.8627 22.5395 19.6284C22.5198 19.4213 22.4828 19.2166 22.4434 19.0021C22.394 18.689 22.325 18.3783 22.2461 18.0651L22.219 17.9468C22.1598 17.7323 22.1105 17.5276 22.0414 17.3131C21.8467 16.6399 21.6222 15.984 21.3856 15.37C21.2993 15.1259 21.2006 14.8917 21.102 14.6574C20.9565 14.3048 20.8085 13.9843 20.673 13.681C20.6039 13.5429 20.5447 13.4171 20.4856 13.2889C20.419 13.1434 20.3499 12.998 20.2809 12.8598C20.2316 12.7538 20.1748 12.6552 20.1354 12.5566L19.7138 11.7774C19.6546 11.6714 19.7532 11.5456 19.8691 11.5776L22.5075 12.2927H22.5149C22.5198 12.2927 22.5223 12.2952 22.5248 12.2952L22.8724 12.3914L23.2546 12.4998L23.3952 12.5393V10.9711C23.3952 10.2141 24.0018 9.6001 24.7514 9.6001C25.1261 9.6001 25.4664 9.75295 25.7105 10.002C25.9546 10.2511 26.1075 10.5914 26.1075 10.9711V13.2988L26.3886 13.3776C26.4108 13.3851 26.433 13.3949 26.4528 13.4097C26.5218 13.4615 26.6204 13.538 26.7461 13.6316C26.8448 13.7106 26.9508 13.8067 27.079 13.9053C27.333 14.11 27.6363 14.3739 27.9692 14.6771C28.0579 14.7536 28.1443 14.8325 28.2232 14.9114C28.6522 15.3108 29.133 15.7794 29.5917 16.2972C29.7199 16.4426 29.8457 16.5906 29.9739 16.7459C30.1021 16.9037 30.2377 17.0591 30.3561 17.2144C30.5114 17.4215 30.679 17.636 30.8245 17.8605C30.8936 17.9665 30.9725 18.075 31.0391 18.181C31.2265 18.4646 31.3917 18.758 31.5495 19.0514C31.6161 19.187 31.6851 19.335 31.7443 19.4805C31.9194 19.8725 32.0574 20.272 32.1462 20.6715C32.1733 20.7578 32.1931 20.8515 32.2029 20.9353V20.955C32.2325 21.0734 32.2424 21.1991 32.2522 21.3274C32.2917 21.7366 32.272 22.146 32.1832 22.5578C32.1462 22.7328 32.0969 22.898 32.0377 23.0731C31.9785 23.2408 31.9194 23.4158 31.8429 23.5811C31.695 23.9238 31.5199 24.2666 31.3128 24.5871C31.2462 24.7054 31.1673 24.8312 31.0884 24.9495C31.0021 25.0753 30.9133 25.1937 30.8344 25.3096C30.7259 25.4575 30.61 25.6128 30.4917 25.7509C30.3857 25.8964 30.2771 26.0419 30.1588 26.1701C29.9936 26.3649 29.8358 26.5499 29.6706 26.7274C29.572 26.8433 29.4659 26.9616 29.3574 27.0677C29.2514 27.186 29.1429 27.292 29.0443 27.3907C28.879 27.5559 28.741 27.6841 28.6251 27.7901L28.3538 28.0392C28.3144 28.0737 28.2626 28.0934 28.2084 28.0934H26.1075V30.7885H28.7508C29.3426 30.7885 29.9048 30.5789 30.3585 30.1943C30.5139 30.0587 31.192 29.4718 31.9933 28.5866C32.0204 28.557 32.055 28.5348 32.0944 28.525L39.3956 26.4142C39.5312 26.3748 39.6693 26.4783 39.6693 26.6214Z" fill="white"/>
</svg>
