<svg width="1917" height="991" viewBox="0 0 1917 991" fill="none" xmlns="http://www.w3.org/2000/svg">
<g filter="url(#filter0_d_69_2263)">
<path d="M1297.56 782.616C1303.35 783.186 1309.16 783.437 1314.98 783.369L1335.46 783.991C1342.98 801.367 1356.59 816.179 1374.4 822.767C1395.51 830.572 1420.46 825.938 1435.27 808.085C1438.18 804.566 1440.63 800.671 1442.54 796.502C1446.64 799.267 1451.3 801.931 1456.36 801.758C1458.72 801.598 1461.02 800.949 1463.12 799.851C1465.22 798.753 1467.08 797.229 1468.58 795.372C1470.33 793.298 1471.62 790.87 1472.37 788.249C1473.13 785.628 1473.33 782.874 1472.96 780.169C1485.68 788.447 1500.89 791.826 1515.84 789.696C1531.61 787.495 1548.75 778.967 1553.98 762.605C1556.17 755.73 1556.17 748.326 1553.98 741.451C1567.08 732.951 1574.84 716.836 1572.26 701.067C1569.54 684.546 1556.35 671.196 1539.89 669.488C1534.86 668.967 1529.77 669.524 1524.95 671.124C1523.47 666.792 1520.77 662.996 1517.2 660.204C1513.62 657.412 1509.32 655.745 1504.83 655.408C1500.34 655.071 1495.85 656.079 1491.91 658.308C1487.97 660.537 1484.76 663.889 1482.67 667.953C1480.66 671.901 1479.76 676.334 1480.07 680.767C1475.85 675.882 1470.32 672.359 1464.16 670.632C1457.71 668.968 1450.93 669.123 1444.56 671.079C1438.18 673.035 1432.45 676.719 1427.97 681.737C1425.05 684.996 1422.65 688.705 1420.87 692.727C1419.45 682.592 1416.26 672.659 1409.78 664.724C1405.27 659.435 1399.57 655.333 1393.17 652.764C1386.23 649.755 1378.83 647.996 1371.3 647.566C1364.84 647.389 1358.42 648.571 1352.43 651.037C1346.44 653.504 1341.01 657.202 1336.48 661.901C1327.02 671.881 1321.68 685.18 1321.56 699.055C1321.24 712.434 1325.27 727.102 1334.51 736.991C1331.03 735.631 1327.26 735.203 1323.58 735.746C1318.84 736.536 1314.51 738.923 1311.27 742.522C1308.72 745.52 1307.05 749.182 1306.43 753.096C1305.82 757.01 1306.29 761.02 1307.8 764.676C1302.66 763.008 1297.14 763.085 1292.05 764.893C1290.95 765.219 1289.94 765.774 1289.06 766.521C1288.19 767.269 1287.48 768.194 1286.98 769.237C1286.26 771.093 1286.23 773.154 1286.9 775.029C1288.57 779.763 1292.92 781.95 1297.56 782.616Z" fill="white"/>
<path d="M839.729 820.118C830.749 820.066 821.891 822.237 813.917 826.445C813.619 820.089 809.781 814.485 803.968 810.981C814.671 805.19 821.763 795.155 821.763 783.731C821.763 765.776 804.281 751.239 782.733 751.239C776.776 751.211 770.871 752.367 765.349 754.642C756.565 732.285 731.336 716.141 701.559 716.141C664.475 716.141 634.428 741.161 634.428 772.032C634.431 774.947 634.702 777.856 635.238 780.719C628.367 777.53 620.899 775.895 613.349 775.927C590.877 775.927 572.3 789.798 569.287 807.781C563.417 805.598 557.214 804.49 550.965 804.509C541.719 804.458 532.632 806.96 524.67 811.749C518.715 803.93 508.253 798.717 496.243 798.717C477.765 798.717 462.685 811.227 462.685 826.648C462.685 842.069 477.708 854.593 496.243 854.593C500.377 854.597 504.486 853.947 508.424 852.668C514.109 867.712 530.952 878.644 550.894 878.644C567.14 878.644 581.354 871.404 589.115 860.545C593.265 866.684 601.154 870.839 610.208 870.839C613.87 870.921 617.508 870.218 620.887 868.776C624.266 867.335 627.31 865.186 629.823 862.47C631.486 887.418 656.317 907.226 686.677 907.226C712.148 907.226 733.71 893.312 741.001 874.126C747.214 877.144 754.018 878.689 760.901 878.644C773.949 878.644 785.476 873.301 792.569 865.134C795.696 884.494 815.623 899.436 839.744 899.436C866.039 899.436 887.359 881.685 887.359 859.792C887.359 837.899 866.039 820.161 839.744 820.161" fill="white"/>
<path d="M1197.69 805.942C1188.11 805.886 1178.67 808.207 1170.18 812.704C1169.86 805.913 1165.76 799.962 1159.58 796.212C1170.95 790.044 1178.55 779.343 1178.55 767.166C1178.55 748.039 1159.93 732.531 1136.95 732.531C1130.62 732.517 1124.34 733.751 1118.47 736.166C1109.11 712.347 1082.21 695.131 1050.48 695.131C1010.96 695.131 978.923 721.802 978.923 754.699C978.925 757.809 979.215 760.912 979.79 763.966C972.472 760.558 964.513 758.814 956.466 758.855C932.502 758.855 912.702 773.638 909.561 792.853C903.285 790.499 896.648 789.303 889.96 789.32C880.112 789.248 870.427 791.89 861.931 796.965C855.592 788.639 844.448 783.094 831.727 783.094C811.97 783.094 795.951 796.429 795.951 812.878C795.951 829.326 811.97 842.662 831.727 842.662C836.131 842.659 840.508 841.966 844.704 840.606C850.731 856.635 868.711 868.276 889.96 868.276C907.287 868.276 922.439 860.544 930.711 849.004C935.131 855.549 943.503 859.965 953.197 859.965C957.099 860.055 960.976 859.307 964.576 857.77C968.175 856.234 971.417 853.942 974.091 851.046C975.868 877.63 1002.33 898.755 1034.73 898.755C1061.86 898.755 1084.84 883.929 1092.63 863.484C1099.23 866.675 1106.45 868.313 1113.75 868.276C1127.65 868.276 1139.95 862.6 1147.51 853.884C1150.85 874.517 1172.07 890.444 1197.78 890.444C1225.81 890.444 1248.54 871.534 1248.54 848.193C1248.54 824.852 1225.8 805.942 1197.78 805.942" fill="white"/>
<path d="M1096.86 878.853L1097.8 881.343L1100.5 880.026C1106.72 877.014 1113.52 875.47 1120.4 875.508C1132.92 875.508 1144.78 880.561 1152.13 889.032L1155.79 893.26L1156.62 888.105C1159.83 868.283 1180.38 853.354 1204.43 853.354C1231.04 853.354 1257.41 884.08 1252.62 873.626C1297.83 971.811 1188.94 930.197 1205.01 952.423C1171.7 906.349 1145.32 932.948 1145.32 932.948C1135.37 927.417 1123.68 928.807 1123.68 928.807C1132 935.728 1136.99 948.195 1136.99 948.195C1115.37 927.417 1073.77 923.261 1073.77 923.261C1085.41 920.481 1102.05 921.813 1102.05 921.813C1102.05 921.813 1098.72 895.504 1067.11 892.724C1035.5 889.944 1023.85 912.112 1023.85 912.112C1002.21 896.88 982.244 912.112 982.244 912.112C955.622 902.425 945.644 914.892 945.644 914.892C963.951 914.892 973.929 921.813 973.929 921.813C930.663 914.892 912.37 934.28 912.37 934.28C912.37 925.969 924.011 919.048 924.011 919.048C885.748 902.425 865.735 931.515 865.735 931.515C838.729 909.26 810.956 920.8 805 928.749C805 913.459 819.924 901.035 838.274 901.035C842.369 901.038 846.439 901.683 850.342 902.947L852.829 903.757L853.625 901.629C859.523 885.948 876.765 875.421 896.522 875.421C912.242 875.421 927.038 882.415 935.112 893.68L937.329 896.764L939.432 893.636C943.569 887.526 951.343 883.732 959.744 883.732C963.268 883.664 966.767 884.346 970.017 885.735C973.268 887.123 976.198 889.188 978.619 891.797L982.741 896.547L983.139 890.755C984.845 865.097 1010.39 845 1041.27 845C1066.86 845 1089.1 858.596 1096.81 878.824" fill="#F2F2F2"/>
<path d="M1406.51 762.272C1396.94 762.213 1387.5 764.534 1379.01 769.034C1378.68 762.243 1374.59 756.278 1368.41 752.542C1379.78 746.359 1387.38 735.674 1387.38 723.496C1387.38 704.369 1368.75 688.861 1345.78 688.861C1339.45 688.845 1333.17 690.074 1327.3 692.481C1317.95 668.677 1291.06 651.461 1259.32 651.461C1219.79 651.461 1187.76 678.132 1187.76 711.029C1187.77 714.139 1188.06 717.242 1188.63 720.296C1181.31 716.886 1173.34 715.142 1165.29 715.185C1141.34 715.185 1121.54 729.969 1118.39 749.183C1112.11 746.831 1105.47 745.634 1098.79 745.65C1088.94 745.569 1079.25 748.212 1070.76 753.295C1064.4 744.969 1053.27 739.424 1040.54 739.424C1020.78 739.424 1004.76 752.745 1004.76 769.193C1004.76 785.642 1020.78 798.978 1040.54 798.978C1044.94 798.982 1049.32 798.293 1053.52 796.936C1059.54 812.965 1077.54 824.606 1098.79 824.606C1116.11 824.606 1131.25 816.874 1139.52 805.32C1143.94 811.864 1152.32 816.295 1162.01 816.295C1165.91 816.38 1169.79 815.63 1173.39 814.093C1176.99 812.557 1180.24 810.269 1182.92 807.376C1184.69 833.96 1211.15 855.071 1243.54 855.071C1270.69 855.071 1293.67 840.259 1301.45 819.799C1308.05 823.002 1315.27 824.645 1322.58 824.606C1336.48 824.606 1348.78 818.93 1356.32 810.214C1359.68 830.847 1380.9 846.774 1406.61 846.774C1434.64 846.774 1457.35 827.85 1457.35 804.523C1457.35 781.197 1434.61 762.272 1406.61 762.272" fill="white"/>
<path d="M1297.03 802.995L1297.98 801.302L1300.69 802.198C1306.91 804.241 1313.71 805.29 1320.6 805.268C1333.13 805.268 1345.01 801.834 1352.36 796.068L1356.02 793.204L1356.86 796.707C1402.5 835 1444 761 1444 761C1444 761 1366.95 794.057 1345.55 766.224C1335.59 769.993 1323.91 769.048 1323.91 769.048C1332.24 764.345 1337.23 755.873 1337.23 755.873C1315.58 769.993 1273.96 772.817 1273.96 772.817C1285.61 774.696 1302.27 773.801 1302.27 773.801C1302.27 773.801 1298.94 791.679 1267.29 793.559C1235.64 795.438 1224.01 780.383 1224.01 780.383C1202.36 790.735 1182.37 780.383 1182.37 780.383C1155.73 786.976 1145.73 778.504 1145.73 778.504C1164.05 778.504 1174.05 773.801 1174.05 773.801C1130.75 778.504 1112.43 765.329 1112.43 765.329C1112.43 770.977 1124.1 775.68 1124.1 775.68C1085.79 786.976 1065.78 767.208 1065.78 767.208C1038.75 782.332 1010.97 774.49 1005 769.088C1005 779.468 1019.95 787.911 1038.31 787.911C1042.41 787.912 1046.48 787.477 1050.39 786.622L1052.88 786.071L1053.67 787.507C1059.58 798.173 1076.82 805.327 1096.59 805.327C1112.33 805.327 1127.14 800.574 1135.22 792.919L1137.42 790.823L1139.54 792.949C1143.67 797.101 1151.46 799.679 1159.87 799.679C1163.4 799.724 1166.9 799.26 1170.15 798.317C1173.4 797.373 1176.33 795.97 1178.76 794.198L1182.88 790.971L1183.27 794.907C1184.99 812.343 1210.55 826 1241.46 826C1266.99 826 1289.32 816.761 1297.02 803.015" fill="#CDCDCD"/>
<path d="M2193.17 805.016C2181.1 804.941 2169.2 807.858 2158.48 813.515C2158.07 804.972 2152.93 797.457 2145.14 792.737C2159.52 784.962 2169.05 771.481 2169.05 756.133C2169.05 732.025 2145.56 712.492 2116.61 712.492C2108.61 712.459 2100.68 714.008 2093.26 717.053C2081.46 687.037 2047.56 665.347 2007.56 665.347C1957.82 665.347 1917.39 698.954 1917.39 740.408C1917.39 744.33 1917.76 748.243 1918.49 752.093C1909.26 747.801 1899.22 745.603 1889.08 745.65C1858.89 745.65 1833.93 764.3 1829.89 788.509C1821.99 785.545 1813.63 784.04 1805.2 784.064C1792.79 783.962 1780.58 787.29 1769.87 793.693C1761.87 783.195 1747.84 776.202 1731.79 776.202C1706.89 776.202 1686.71 793.012 1686.71 813.732C1686.71 834.452 1706.89 851.278 1731.79 851.278C1737.34 851.28 1742.86 850.406 1748.15 848.686C1755.74 868.957 1778.41 883.567 1805.2 883.567C1827.04 883.567 1846.13 873.822 1856.54 859.27C1862.12 867.509 1872.72 873.098 1884.89 873.098C1895.75 873.098 1905.33 868.653 1911.22 861.848C1913.47 895.368 1946.76 921.966 1987.64 921.966C2021.85 921.966 2050.82 903.288 2060.62 877.514C2068.94 881.545 2078.05 883.613 2087.26 883.567C2104.77 883.567 2120.26 876.399 2129.79 865.424C2134.05 891.487 2160.76 911.498 2193.17 911.498C2228.49 911.498 2257.13 887.664 2257.13 858.257C2257.13 828.849 2228.5 805.016 2193.17 805.016Z" fill="white"/>
<path d="M1360.2 673.195C1360.2 673.195 1355.31 666.549 1360.2 661.915C1365.09 657.282 1379.41 658.599 1379.41 658.599C1379.41 658.599 1374.2 649.304 1388.86 647.986C1403.51 646.668 1422.39 657.933 1422.39 657.933C1422.39 657.933 1427.61 643.005 1445.83 641.021C1464.05 639.038 1487.19 651.084 1487.19 651.084C1487.19 651.084 1513.88 635.041 1560.45 639.689C1597 643.338 1649 669.459 1658.22 682.577C1661.39 687.066 1664.03 692.583 1663.24 698.215C1662.83 700.92 1661.86 703.506 1660.4 705.802C1660.4 705.802 1694.3 703.819 1705.27 733.748C1716.24 763.677 1682.71 779.401 1645.32 777.287C1607.92 775.173 1588.83 755.568 1588.83 755.568C1588.83 755.568 1572.6 771.293 1538.77 753.15C1504.94 735.007 1494.75 716.517 1494.75 716.517C1494.75 716.517 1481.96 729.216 1467.74 724.379C1454.16 719.761 1453.53 715.692 1453.53 715.301C1453.53 715.88 1453.66 724.872 1430.38 721.657C1410.93 718.964 1398.28 704.601 1393.54 693.929C1385.55 695.43 1377.48 696.369 1369.37 696.738C1355.04 697.404 1330.99 693.755 1331.61 681.81C1332.22 669.864 1360.2 673.195 1360.2 673.195Z" fill="white"/>
<path d="M1494.75 716.517C1494.75 716.517 1481.96 729.215 1467.74 724.379C1454.16 719.76 1453.53 715.692 1453.53 715.301C1453.53 715.88 1453.66 724.872 1430.38 721.657C1410.93 718.964 1398.28 704.6 1393.54 693.929C1385.55 695.43 1377.48 696.369 1369.37 696.738C1355.04 697.404 1330.99 693.755 1331.61 681.81C1331.65 680.795 1331.92 679.803 1332.4 678.914C1334.74 681.657 1337.47 684.021 1340.5 685.922C1361.82 699.533 1393.93 681.39 1393.93 681.39C1393.93 681.39 1398.96 702.79 1420.34 710.117C1441.72 717.444 1451.81 694.392 1451.81 694.392C1451.81 694.392 1456.56 707.989 1473.77 712.231C1490.98 716.474 1503.45 695.898 1503.45 695.898C1503.45 695.898 1512.35 722.207 1545.59 736.108C1578.84 750.008 1602.28 721.295 1602.28 721.295C1602.28 721.295 1632.85 768.759 1672.32 753.657C1695.36 744.824 1697.27 729.201 1694.64 717.603C1699.41 722.002 1703.07 727.525 1705.27 733.69C1716.26 763.633 1682.71 779.343 1645.32 777.229C1607.92 775.115 1588.83 755.51 1588.83 755.51C1588.83 755.51 1572.6 771.235 1538.77 753.092C1504.94 734.949 1494.75 716.517 1494.75 716.517Z" fill="#CDCDCD"/>
<path d="M1657.52 743.521C1657.52 743.521 1652.65 736.889 1657.52 732.242C1662.4 727.594 1676.68 728.926 1676.68 728.926C1676.68 728.926 1671.47 719.63 1686.12 718.312C1700.78 716.995 1719.67 728.26 1719.67 728.26C1719.67 728.26 1724.87 713.331 1743.1 711.348C1761.34 709.364 1784.45 721.411 1784.45 721.411C1784.45 721.411 1811.16 705.382 1857.71 710.016C1894.27 713.664 1946.26 739.785 1955.5 752.904C1958.65 757.407 1961.31 762.909 1960.52 768.541C1960.09 771.253 1959.09 773.839 1957.6 776.129C1957.6 776.129 1991.5 774.145 2002.49 804.089C2013.48 834.032 1979.93 849.742 1942.54 847.614C1905.14 845.485 1886.04 825.895 1886.04 825.895C1886.04 825.895 1869.82 841.619 1835.98 823.477C1802.13 805.334 1792.06 786.887 1792.06 786.887C1792.06 786.887 1779.26 799.585 1765.05 794.749C1751.45 790.13 1750.84 786.062 1750.84 785.671C1750.84 786.25 1750.95 795.256 1727.68 792.027C1708.22 789.334 1695.57 774.97 1690.83 764.299C1682.85 765.801 1674.77 766.74 1666.66 767.108C1652.34 767.774 1628.29 764.125 1628.9 752.18C1629.51 740.234 1657.52 743.521 1657.52 743.521Z" fill="white"/>
<path d="M1895 740.913C1895 740.913 1878.23 726.43 1855.9 728.783C1833.57 731.135 1834.94 749 1834.94 749C1834.94 749 1812.94 733.841 1796.83 736.193C1780.72 738.546 1779.73 742.604 1779.73 742.604C1779.73 742.604 1775.15 730.474 1766.45 731.812C1757.74 733.15 1758.43 738.766 1758.43 738.766C1758.43 738.766 1755.27 727.783 1766.05 726.768C1776.83 725.754 1782.62 734.517 1782.62 734.517C1782.62 734.517 1791.19 729.121 1806.2 728.783C1815.18 728.571 1824.07 730.543 1832.04 734.517C1832.04 734.517 1842.87 721.049 1857.96 720.034C1873.05 719.02 1894.97 740.913 1894.97 740.913" fill="#F2F2F2"/>
<path d="M1792.11 786.844C1792.11 786.844 1779.32 799.542 1765.11 794.706C1751.51 790.087 1750.89 786.019 1750.89 785.628C1750.89 786.207 1751.01 795.213 1727.74 791.984C1708.28 789.291 1695.63 774.927 1690.88 764.256C1682.9 765.758 1674.83 766.696 1666.72 767.065C1652.39 767.731 1628.34 764.082 1628.96 752.137C1628.99 751.121 1629.26 750.128 1629.75 749.241C1632.09 751.976 1634.82 754.334 1637.85 756.234C1659.17 769.845 1691.27 751.702 1691.27 751.702C1691.27 751.702 1696.31 773.117 1717.69 780.429C1739.07 787.742 1749.15 764.705 1749.15 764.705C1749.15 764.705 1753.89 778.315 1771.11 782.543C1788.32 786.771 1800.8 766.211 1800.8 766.211C1800.8 766.211 1809.7 792.52 1842.94 806.435C1876.19 820.349 1899.55 791.622 1899.55 791.622C1899.55 791.622 1930.13 839.1 1969.6 823.984C1992.64 815.151 1994.54 799.542 1991.9 787.944C1996.69 792.337 2000.35 797.861 2002.55 804.031C2013.52 833.96 1979.99 849.685 1942.59 847.556C1905.2 845.428 1886.09 825.837 1886.09 825.837C1886.09 825.837 1869.88 841.562 1836.03 823.419C1802.19 805.276 1792.11 786.844 1792.11 786.844Z" fill="#CDCDCD"/>
<path d="M1567.24 718.935C1573.03 719.505 1578.84 719.756 1584.65 719.688L1605.13 720.311C1612.65 737.686 1626.27 752.499 1644.08 759.087C1665.19 766.891 1690.13 762.258 1704.94 744.405C1707.86 740.885 1710.3 736.991 1712.22 732.821C1716.31 735.587 1720.97 738.251 1726.03 738.077C1728.39 737.917 1730.69 737.268 1732.79 736.17C1734.9 735.072 1736.76 733.548 1738.26 731.692C1740 729.619 1741.3 727.191 1742.05 724.569C1742.8 721.948 1743 719.193 1742.62 716.488C1755.35 724.766 1770.55 728.144 1785.5 726.016C1801.28 723.815 1818.41 715.301 1823.65 698.925C1825.84 692.05 1825.84 684.646 1823.65 677.77C1836.76 669.285 1844.52 653.155 1841.92 637.387C1839.2 620.866 1826.03 607.516 1809.55 605.807C1804.52 605.286 1799.44 605.844 1794.63 607.444C1793.14 603.112 1790.44 599.318 1786.87 596.527C1783.29 593.736 1778.99 592.07 1774.5 591.733C1770.01 591.396 1765.52 592.404 1761.58 594.631C1757.64 596.859 1754.42 600.21 1752.33 604.273C1750.34 608.224 1749.44 612.655 1749.74 617.087C1745.52 612.204 1739.99 608.682 1733.84 606.951C1727.38 605.286 1720.61 605.44 1714.23 607.396C1707.86 609.352 1702.13 613.037 1697.65 618.057C1694.73 621.316 1692.33 625.025 1690.54 629.047C1689.12 618.911 1685.92 608.993 1679.44 601.044C1674.94 595.752 1669.24 591.648 1662.84 589.084C1655.9 586.074 1648.51 584.316 1640.98 583.886C1634.52 583.71 1628.09 584.893 1622.09 587.362C1616.1 589.831 1610.67 593.532 1606.14 598.235C1596.69 608.216 1591.35 621.506 1591.22 635.374C1590.92 648.768 1594.93 663.421 1604.17 673.311C1600.69 671.95 1596.93 671.521 1593.25 672.065C1588.52 672.849 1584.18 675.237 1580.94 678.842C1578.39 681.837 1576.72 685.498 1576.1 689.413C1575.48 693.327 1575.96 697.339 1577.46 700.995C1572.33 699.333 1566.81 699.414 1561.73 701.227C1560.69 701.469 1559.71 701.94 1558.87 702.605C1558.02 703.27 1557.33 704.114 1556.84 705.078C1556.35 706.042 1556.07 707.104 1556.02 708.189C1555.98 709.275 1556.16 710.357 1556.57 711.363C1558.29 716.083 1562.68 718.269 1567.24 718.935Z" fill="white"/>
<path d="M1749.81 617.116C1749.81 617.116 1748.05 622.806 1755.1 633.984C1751.51 633.896 1747.98 634.867 1744.92 636.778C1741.86 638.689 1739.41 641.46 1737.86 644.757C1732.37 656.34 1742.95 673.296 1742.95 673.296C1742.95 673.296 1728.07 669.908 1727.31 650.346C1726.56 630.784 1744.94 626.397 1744.94 626.397C1744.94 626.397 1740.21 615.827 1749.81 617.116Z" fill="#CDCDCD"/>
<path d="M1629.94 624.703C1629.94 624.703 1625.05 618.072 1629.94 613.424C1634.83 608.776 1649.14 610.108 1649.14 610.108C1649.14 610.108 1643.94 600.812 1658.58 599.494C1673.22 598.177 1692.12 609.442 1692.12 609.442C1692.12 609.442 1697.32 594.513 1715.56 592.53C1733.8 590.546 1756.91 602.593 1756.91 602.593C1756.91 602.593 1783.61 586.564 1830.16 591.198C1866.74 594.846 1918.73 620.967 1927.95 634.086C1931.12 638.574 1933.77 644.091 1932.97 649.724C1932.56 652.429 1931.59 655.016 1930.13 657.311C1930.13 657.311 1964.03 655.327 1975.01 685.256C1986 715.185 1952.46 730.91 1915.06 728.796C1877.67 726.682 1858.56 707.077 1858.56 707.077C1858.56 707.077 1842.34 722.801 1808.52 704.659C1774.69 686.516 1764.58 668.069 1764.58 668.069C1764.58 668.069 1751.79 680.768 1737.58 675.931C1723.99 671.313 1723.36 667.244 1723.36 666.853C1723.36 667.432 1723.48 676.438 1700.21 673.209C1680.75 670.516 1668.11 656.153 1663.35 645.481C1655.37 646.983 1647.3 647.922 1639.19 648.29C1624.86 648.956 1600.81 645.307 1601.42 633.362C1602.03 621.416 1629.94 624.703 1629.94 624.703Z" fill="white"/>
<path d="M1856.74 618.594C1856.74 618.594 1841.11 604.331 1820.28 606.648C1799.46 608.965 1800.74 626.557 1800.74 626.557C1800.74 626.557 1780.23 611.629 1765.21 613.946C1750.18 616.262 1749.26 620.244 1749.26 620.244C1749.26 620.244 1744.99 608.313 1736.88 609.631C1728.76 610.948 1729.4 616.48 1729.4 616.48C1729.4 616.48 1726.46 605.663 1736.51 604.664C1746.56 603.665 1751.96 612.295 1751.96 612.295C1751.96 612.295 1759.95 606.981 1773.95 606.648C1782.32 606.439 1790.6 608.381 1798.04 612.295C1798.04 612.295 1808.13 599.017 1822.2 598.033C1836.27 597.048 1856.71 618.594 1856.71 618.594" fill="#F2F2F2"/>
<path d="M1927.26 695.03C1927.26 695.03 1922.37 688.398 1927.26 683.75C1932.15 679.102 1946.47 680.434 1946.47 680.434C1946.47 680.434 1941.26 671.153 1955.91 669.821C1970.57 668.489 1989.44 679.768 1989.44 679.768C1989.44 679.768 1994.66 664.854 2012.89 662.856C2031.13 660.858 2054.24 672.992 2054.24 672.992C2054.24 672.992 2080.93 656.949 2127.5 661.582C2164.06 665.231 2216.05 691.352 2225.27 704.47C2228.44 708.973 2231.09 714.49 2230.29 720.108C2229.88 722.814 2228.91 725.4 2227.45 727.695C2227.45 727.695 2261.35 725.712 2272.32 755.655C2283.29 785.599 2249.76 801.309 2212.37 799.195C2174.97 797.081 2155.88 777.476 2155.88 777.476C2155.88 777.476 2139.67 793.2 2105.82 775.058C2071.98 756.915 2061.9 738.482 2061.9 738.482C2061.9 738.482 2049.11 751.181 2034.9 746.33C2021.29 741.726 2020.68 737.643 2020.68 737.252C2020.68 737.831 2020.81 746.837 1997.54 743.608C1978.09 740.929 1965.44 726.551 1960.69 715.88C1952.71 717.382 1944.63 718.325 1936.52 718.704C1922.2 719.355 1898.15 715.706 1898.74 703.775C1899.34 691.844 1927.26 695.03 1927.26 695.03Z" fill="white"/>
<path d="M207.962 915.392C207.962 915.392 201.04 911.049 203.94 904.895C206.839 898.741 220.641 894.672 220.641 894.672C220.641 894.672 212.468 887.954 225.644 881.279C238.82 874.604 260.439 878.122 260.439 878.122C260.439 878.122 259.955 862.282 276.216 853.667C292.476 845.051 318.331 847.715 318.331 847.715C318.331 847.715 337.477 822.869 382.491 809.939C417.84 799.803 475.605 804.827 488.88 813.616C493.443 816.628 497.878 820.784 499.157 826.315C499.725 829.001 499.725 831.78 499.157 834.467C499.157 834.467 530.014 819.987 550.951 843.849C571.888 867.712 546.246 894.745 510.67 906.632C475.093 918.52 450.262 907.313 450.262 907.313C450.262 907.313 440.781 927.975 402.788 923.617C364.795 919.258 348.776 905.836 348.776 905.836C348.776 905.836 341.428 922.401 326.433 923.211C312.12 923.964 310.087 920.315 309.931 920.04C310.158 920.576 313.456 928.916 290.628 934.52C271.554 939.226 254.64 930.538 246.41 922.357C239.495 926.714 232.295 930.584 224.862 933.941C211.757 939.877 188.006 945.408 184.339 934.042C180.672 922.676 207.962 915.392 207.962 915.392Z" fill="white"/>
<path d="M-1 934H16.9841H184V991H-1V934Z" fill="white"/>
<path d="M1279.83 672.655C1283.86 673.234 1288.04 673.078 1292.11 673.197L1306.55 673.648C1311.89 686.111 1321.46 696.643 1334.02 701.389C1348.92 706.972 1366.52 703.661 1376.96 690.885C1379.01 688.369 1380.74 685.586 1382.09 682.607C1384.98 684.584 1388.27 686.488 1391.88 686.369C1393.55 686.246 1395.17 685.775 1396.65 684.985C1398.13 684.194 1399.44 683.1 1400.51 681.77C1401.74 680.285 1402.65 678.547 1403.18 676.671C1403.71 674.795 1403.85 672.824 1403.59 670.889C1412.56 676.822 1423.3 679.239 1433.85 677.704C1444.97 676.131 1457.06 670.033 1460.75 658.315C1462.3 653.396 1462.3 648.095 1460.75 643.176C1470 637.105 1475.48 625.589 1473.65 614.285C1471.73 602.457 1462.43 592.9 1450.82 591.677C1447.27 591.304 1443.68 591.705 1440.28 592.854C1439.23 589.753 1437.33 587.036 1434.81 585.037C1432.29 583.039 1429.26 581.845 1426.09 581.604C1422.92 581.363 1419.75 582.084 1416.97 583.679C1414.19 585.274 1411.92 587.673 1410.45 590.582C1409.04 593.418 1408.4 596.599 1408.61 599.78C1405.64 596.278 1401.74 593.749 1397.4 592.505C1392.85 591.309 1388.07 591.417 1383.57 592.818C1379.07 594.218 1375.03 596.857 1371.87 600.452C1369.82 602.784 1368.14 605.434 1366.89 608.306C1365.87 601.068 1363.63 593.958 1359.06 588.274C1355.88 584.482 1351.87 581.544 1347.35 579.71C1342.46 577.575 1337.24 576.33 1331.93 576.031C1322.77 575.599 1313.79 579.646 1307.36 586.287C1300.56 593.296 1297.04 603.036 1296.83 612.878C1296.61 622.453 1299.44 632.948 1305.96 640.021C1303.51 639.044 1300.86 638.728 1298.26 639.101C1294.92 639.663 1291.86 641.374 1289.57 643.957C1287.78 646.101 1286.6 648.72 1286.16 651.52C1285.73 654.32 1286.06 657.189 1287.12 659.805C1283.49 658.613 1279.6 658.671 1276.01 659.971C1275.28 660.148 1274.6 660.486 1274 660.962C1273.41 661.438 1272.93 662.04 1272.58 662.728C1272.24 663.415 1272.04 664.172 1272.01 664.945C1271.97 665.719 1272.1 666.491 1272.38 667.209C1273.47 670.613 1276.56 672.186 1279.83 672.655Z" fill="white"/>
<path d="M1387.73 694.683C1391.5 694.683 1387.68 690.115 1385.57 684.397C1385.57 684.397 1379.09 695.753 1362.47 699.177C1345.85 702.601 1337.64 687.236 1337.64 687.236C1337.64 687.236 1319.23 706.419 1302.35 695.871C1292.5 689.709 1293.02 682.324 1295.29 677.202C1292.68 678.797 1290.5 681.018 1288.92 683.669C1281.15 696.518 1295.23 706.804 1312.7 709.202C1330.17 711.6 1340.77 704.263 1340.77 704.263C1340.77 704.263 1346.85 712.994 1364.12 707.662C1381.39 702.33 1387.73 694.683 1387.73 694.683Z" fill="#CDCDCD"/>
<path d="M1390 670.155C1389.2 671.755 1383 681.822 1380 686.655L1378 692.655C1384.67 691.821 1397.8 689.755 1397 688.155C1396 686.155 1391 668.155 1390 670.155Z" fill="#CDCDCD"/>
<g filter="url(#filter1_d_69_2263)">
<path d="M1547.27 562.635C1547.27 562.635 1639.38 108.7 1641.79 12.7941C1641.79 12.7941 1660.83 473.201 1714.03 624.2C1738.87 694.633 1547.27 562.635 1547.27 562.635Z" fill="white"/>
</g>
<path d="M1562.27 576.249C1562.27 576.249 1638.45 114.718 1640.38 37.0578C1640.38 37.0578 1644.8 300.758 1662.39 448.872C1670.86 520.181 1657.96 496.267 1671.79 535.98C1675.6 546.918 1656.1 592.746 1649.49 593.517C1621.56 596.825 1562.27 576.249 1562.27 576.249Z" fill="#CDCDCD"/>
<path d="M1639.98 45.3704L1583.06 563.784L1612 563.784L1639.98 45.3704Z" fill="white"/>
<path d="M1640.44 54.18L1624.5 593L1646.85 585.269L1640.44 54.18Z" fill="white"/>
<path d="M1448.2 660.998C1454.55 661.623 1460.93 661.898 1467.31 661.824L1489.75 662.506C1498.01 681.557 1512.94 697.798 1532.46 705.006C1555.62 713.547 1582.99 708.483 1599.22 688.908C1602.42 685.05 1605.1 680.779 1607.2 676.207C1611.7 679.24 1616.8 682.161 1622.36 681.97C1624.95 681.789 1627.46 681.075 1629.77 679.871C1632.07 678.668 1634.11 677 1635.76 674.969C1637.67 672.695 1639.09 670.033 1639.92 667.159C1640.75 664.285 1640.96 661.266 1640.56 658.299C1654.51 667.379 1671.19 671.079 1687.58 668.73C1704.87 666.317 1723.68 656.998 1729.42 639.042C1731.82 631.509 1731.82 623.396 1729.42 615.863C1743.78 606.56 1752.29 588.875 1749.46 571.602C1746.48 553.487 1732.02 538.866 1713.96 536.993C1708.44 536.413 1702.85 537.025 1697.57 538.787C1695.94 534.041 1692.98 529.884 1689.06 526.826C1685.14 523.768 1680.43 521.943 1675.5 521.573C1670.58 521.204 1665.65 522.307 1661.34 524.748C1657.02 527.188 1653.49 530.859 1651.2 535.31C1649.01 539.642 1648.03 544.501 1648.36 549.36C1643.73 544.004 1637.66 540.141 1630.91 538.247C1623.83 536.422 1616.4 536.591 1609.41 538.736C1602.43 540.881 1596.14 544.921 1591.24 550.423C1588.03 553.99 1585.4 558.052 1583.44 562.457C1581.88 551.344 1578.39 540.469 1571.28 531.769C1566.34 525.991 1560.1 521.513 1553.09 518.72C1545.48 515.424 1537.37 513.496 1529.11 513.02C1522.02 512.819 1514.97 514.111 1508.39 516.816C1501.82 519.52 1495.86 523.579 1490.9 528.737C1480.53 539.672 1474.67 554.242 1474.54 569.443C1474.2 584.112 1478.6 600.178 1488.73 611.021C1484.92 609.537 1480.8 609.067 1476.76 609.656C1471.57 610.523 1466.81 613.139 1463.25 617.086C1460.46 620.37 1458.63 624.382 1457.95 628.671C1457.28 632.96 1457.8 637.354 1459.45 641.36C1453.82 639.537 1447.76 639.626 1442.19 641.614C1440.98 641.969 1439.87 642.576 1438.91 643.396C1437.95 644.216 1437.17 645.232 1436.62 646.377C1435.83 648.411 1435.79 650.669 1436.52 652.727C1438.29 657.871 1443.11 660.268 1448.2 660.998Z" fill="white"/>
<path d="M1438.75 641.594C1438.75 641.594 1423.12 627.331 1402.28 629.648C1381.44 631.965 1382.75 649.557 1382.75 649.557C1382.75 649.557 1362.23 634.629 1347.22 636.946C1332.21 639.262 1331.25 643.244 1331.25 643.244C1331.25 643.244 1326.99 631.313 1318.89 632.631C1310.79 633.948 1311.4 639.465 1311.4 639.465C1311.4 639.465 1308.47 628.649 1318.5 627.664C1328.54 626.68 1333.97 635.281 1333.97 635.281C1333.97 635.281 1341.94 629.981 1355.94 629.648C1364.31 629.438 1372.6 631.375 1380.04 635.281C1380.04 635.281 1390.14 622.017 1404.2 621.033C1418.26 620.048 1438.72 641.594 1438.72 641.594" fill="#F2F2F2"/>
<path d="M1547 604.594C1547 604.594 1562.63 590.331 1583.47 592.648C1604.31 594.965 1603 612.557 1603 612.557C1603 612.557 1623.53 597.629 1638.54 599.946C1653.55 602.262 1654.5 606.244 1654.5 606.244C1654.5 606.244 1658.76 594.313 1666.86 595.631C1674.96 596.948 1674.35 602.465 1674.35 602.465C1674.35 602.465 1677.28 591.649 1667.25 590.664C1657.21 589.68 1651.78 598.281 1651.78 598.281C1651.78 598.281 1643.81 592.981 1629.81 592.648C1621.44 592.438 1613.16 594.375 1605.72 598.281C1605.72 598.281 1595.61 585.017 1581.55 584.033C1567.5 583.048 1547.03 604.594 1547.03 604.594" fill="#F2F2F2"/>
<path d="M595 846.594C595 846.594 610.635 832.331 631.472 834.648C652.309 836.965 651.001 854.557 651.001 854.557C651.001 854.557 671.526 839.629 686.536 841.946C701.545 844.262 702.497 848.244 702.497 848.244C702.497 848.244 706.761 836.313 714.863 837.631C722.965 838.948 722.354 844.465 722.354 844.465C722.354 844.465 725.282 833.649 715.247 832.664C705.212 831.68 699.783 840.281 699.783 840.281C699.783 840.281 691.809 834.981 677.809 834.648C669.441 834.438 661.156 836.375 653.716 840.281C653.716 840.281 643.61 827.017 629.553 826.033C615.496 825.048 595.028 846.594 595.028 846.594" fill="#F2F2F2"/>
<path d="M411 906.594C411 906.594 426.635 892.331 447.472 894.648C468.309 896.965 467.002 914.557 467.002 914.557C467.002 914.557 487.526 899.629 502.536 901.946C517.545 904.262 518.497 908.244 518.497 908.244C518.497 908.244 522.762 896.313 530.863 897.631C538.965 898.948 538.354 904.465 538.354 904.465C538.354 904.465 541.282 893.649 531.247 892.664C521.212 891.68 515.783 900.281 515.783 900.281C515.783 900.281 507.809 894.981 493.809 894.648C485.441 894.438 477.156 896.375 469.716 900.281C469.716 900.281 459.61 887.017 445.553 886.033C431.496 885.048 411.028 906.594 411.028 906.594" fill="#F2F2F2"/>
<path fill-rule="evenodd" clip-rule="evenodd" d="M1674.65 858.449L1673.04 854.22H1673.11C1660.11 820.034 1622.41 797.07 1579.3 797.07C1527.11 797.07 1483.9 831.024 1481.06 874.376L1480.41 884.251L1473.44 876.229C1466.04 867.701 1454.11 862.604 1441.55 862.604C1427.35 862.604 1414.2 869.018 1407.22 879.342L1403.67 884.627L1399.93 879.415C1386.28 860.389 1361.28 848.559 1334.7 848.559C1301.3 848.559 1272.16 866.354 1262.21 892.866L1260.88 896.443L1256.61 895.081C1250.02 892.939 1243.15 891.85 1236.23 891.853C1205.23 891.853 1180 912.848 1180 938.665C1190.08 925.257 1236.94 905.709 1282.62 943.356C1282.62 943.356 1316.35 894.198 1381.02 922.274C1381.02 922.274 1361.34 933.973 1361.34 948.033C1361.34 948.033 1392.27 915.266 1465.37 926.965C1465.37 926.965 1448.5 915.266 1417.57 915.266C1417.57 915.266 1434.44 894.198 1479.42 910.575C1479.42 910.575 1513.17 884.845 1549.71 910.575C1549.71 910.575 1569.45 873.203 1622.81 877.88C1676.17 882.557 1681.86 927.023 1681.86 927.023C1681.86 927.023 1653.74 924.678 1634.05 929.369C1634.05 929.369 1704.34 936.391 1740.9 971.49C1740.9 971.49 1732.46 950.436 1718.4 938.723C1718.4 938.723 1738.08 936.391 1754.96 945.745C1754.96 945.745 1799.46 900.801 1855.76 978.628C1846.59 965.915 1859.87 964.24 1879.53 961.762C1905.24 958.521 1941.86 953.904 1953.41 921.408C1963.29 923.971 1969.13 929.869 1969.13 929.869C1981.71 922.89 1996.4 924.642 1996.4 924.642C1985.91 933.33 1979.62 949.069 1979.62 949.069C2006.89 922.89 2059.31 917.649 2059.31 917.649C2044.64 914.159 2023.66 915.897 2023.66 915.897C2023.66 915.897 2027.85 882.739 2067.72 879.249C2107.59 875.76 2122.24 903.676 2122.24 903.676C2149.51 884.491 2174.66 903.676 2174.66 903.676C2208.21 891.47 2220.77 907.223 2220.77 907.223C2197.7 907.223 2185.12 915.911 2185.12 915.911C2239.65 907.223 2262.72 931.636 2262.72 931.636C2262.72 921.153 2248.03 912.422 2248.03 912.422C2296.26 891.484 2321.43 928.146 2321.43 928.146C2355.55 900.1 2390.45 914.637 2397.97 924.657C2397.97 905.399 2379.16 889.732 2356.03 889.732C2350.87 889.732 2345.74 890.543 2340.82 892.136L2337.68 893.149L2336.68 890.485C2329.25 870.721 2307.53 857.443 2282.67 857.443C2262.77 857.443 2244.21 866.261 2234.03 880.451L2231.19 884.346L2228.53 880.407C2223.32 872.704 2213.52 867.912 2202.95 867.912C2193.57 867.912 2184.68 871.705 2179.16 878.047L2173.95 884.042L2173.47 876.657C2171.31 844.325 2139.12 819 2100.2 819C2068.03 819 2039.92 836.129 2030.21 861.642L2030.22 861.657L2029.03 864.784L2025.62 863.119C2017.8 859.331 2009.25 857.386 2000.59 857.428C1984.81 857.428 1969.86 863.8 1960.61 874.485L1955.99 879.799L1954.94 873.298C1954.33 869.57 1953.24 865.979 1951.72 862.568C1950.53 858.115 1949.12 853.453 1947.49 848.574C1937.36 818.4 1899.72 811.159 1854.76 811.159C1814.13 811.159 1779.4 836.396 1773.99 869.887L1772.57 878.575L1766.38 871.437C1754 857.116 1733.93 848.574 1712.78 848.574C1701.17 848.525 1689.7 851.133 1679.21 856.204L1674.65 858.449Z" fill="#F2F2F2"/>
<path d="M1561.54 667.083L1560.84 665.758L1558.85 666.461C1554.29 668.051 1549.3 668.869 1544.25 668.853C1535.05 668.853 1519.5 668.853 1508.5 660.863C1495.93 650.407 1491 640.591 1484 627C1489.5 630.963 1509.5 640.591 1509.5 640.591C1533 649.416 1541.81 640.591 1541.81 640.591C1535.69 636.919 1532.02 630.319 1532.02 630.319C1547.92 641.322 1578.5 643.524 1578.5 643.524C1569.93 644.994 1557.7 644.259 1557.7 644.259C1557.7 644.259 1560.18 658.2 1583.39 659.666C1606.6 661.132 1615.18 649.416 1615.18 649.416C1631.08 657.482 1645.76 649.416 1645.76 649.416C1665.32 654.55 1672.66 647.945 1672.66 647.945C1659.21 647.945 1651.87 644.277 1651.87 644.277C1683.67 647.945 1697.12 637.672 1697.12 637.672C1697.12 642.08 1688.56 645.748 1688.56 645.748C1716.69 654.55 1731.36 639.139 1731.36 639.139C1751.23 650.941 1771.62 644.813 1776 640.609C1776 648.703 1765.03 655.285 1751.54 655.285C1748.53 655.286 1745.54 654.945 1742.68 654.273L1740.82 653.846L1740.24 654.967C1735.91 663.279 1723.24 668.858 1708.71 668.858C1697.15 668.858 1686.27 665.149 1680.34 659.185L1678.71 657.55L1677.16 659.207C1674.13 662.444 1668.41 664.455 1662.23 664.455C1656.77 664.455 1651.58 662.857 1648.36 660.183L1645.33 657.668L1645.05 660.764C1643.81 674.355 1625.01 685 1602.31 685C1583.56 685 1567.16 677.801 1561.51 667.083" fill="#CDCDCD"/>
</g>
<defs>
<filter id="filter0_d_69_2263" x="-5" y="0.794189" width="2431.03" height="990.206" filterUnits="userSpaceOnUse" color-interpolation-filters="sRGB">
<feFlood flood-opacity="0" result="BackgroundImageFix"/>
<feColorMatrix in="SourceAlpha" type="matrix" values="0 0 0 0 0 0 0 0 0 0 0 0 0 0 0 0 0 0 127 0" result="hardAlpha"/>
<feOffset dy="-8"/>
<feGaussianBlur stdDeviation="2"/>
<feComposite in2="hardAlpha" operator="out"/>
<feColorMatrix type="matrix" values="0 0 0 0 0 0 0 0 0 0 0 0 0 0 0 0 0 0 0.05 0"/>
<feBlend mode="normal" in2="BackgroundImageFix" result="effect1_dropShadow_69_2263"/>
<feBlend mode="normal" in="SourceGraphic" in2="effect1_dropShadow_69_2263" result="shape"/>
</filter>
<filter id="filter1_d_69_2263" x="1543.28" y="4.79419" width="176.976" height="640.094" filterUnits="userSpaceOnUse" color-interpolation-filters="sRGB">
<feFlood flood-opacity="0" result="BackgroundImageFix"/>
<feColorMatrix in="SourceAlpha" type="matrix" values="0 0 0 0 0 0 0 0 0 0 0 0 0 0 0 0 0 0 127 0" result="hardAlpha"/>
<feOffset dy="-4"/>
<feGaussianBlur stdDeviation="2"/>
<feComposite in2="hardAlpha" operator="out"/>
<feColorMatrix type="matrix" values="0 0 0 0 0 0 0 0 0 0 0 0 0 0 0 0 0 0 0.25 0"/>
<feBlend mode="normal" in2="BackgroundImageFix" result="effect1_dropShadow_69_2263"/>
<feBlend mode="normal" in="SourceGraphic" in2="effect1_dropShadow_69_2263" result="shape"/>
</filter>
</defs>
</svg>
