<svg width="812" height="118" viewBox="0 0 812 118" fill="none" xmlns="http://www.w3.org/2000/svg">
<g clip-path="url(#clip0_51_1588)">
<path d="M73.2058 118.008C57.1902 118.008 39.8892 109.378 32.0741 97.4814C26.9327 89.6209 26.0758 80.872 29.6833 72.8424C30.5403 71.0317 31.3029 69.3479 32.0998 67.7656C28.929 69.4758 25.4213 70.4889 21.8169 70.7355C21.3628 70.7355 20.96 70.7355 20.5144 70.7355C13.4021 70.7355 6.9838 67.6387 3.37621 62.4604C1.76306 60.2522 0.687305 57.7065 0.232535 55.021C-0.222235 52.3355 -0.0437663 49.5827 0.754061 46.9764C4.1817 35.7654 17.2582 30.1725 19.846 29.1572C24.876 27.1601 30.2433 26.1208 35.6646 26.0942C42.238 26.0099 48.6947 27.8117 54.251 31.2809C58.5073 34.0975 62.0305 37.8662 64.5339 42.2805C67.4137 41.8961 70.3171 41.7095 73.223 41.722H74.4998C76.2136 31.9324 80.4981 19.4183 87.7476 10.8894C95.4169 1.85281 103.892 -0.0424805 109.65 -0.0424805C111.568 -0.0383247 113.48 0.15728 115.357 0.541345C123.189 2.12359 128.562 6.86186 130.079 13.5462C131.51 19.8244 129.882 29.7663 114.038 41.5528C112.118 43.5242 108.673 51.5286 107.182 56.9014C111.083 61.7514 114.292 67.1064 116.72 72.8169C120.336 80.8889 119.479 89.6463 114.338 97.4729C106.523 109.386 89.2386 118.008 73.2058 118.008Z" fill="#231F20"/>
<path d="M108.759 34.9366C118.365 27.8207 122.975 20.8994 121.733 15.4758C120.97 12.1421 118.099 9.80678 113.652 8.90989C106.3 7.42918 99.7958 9.9506 94.3116 16.398C85.8453 26.3653 82.032 43.5331 82.2034 51.1482C79.2471 50.5169 76.2305 50.202 73.2058 50.209C68.6972 50.1233 64.2015 50.7139 59.8723 51.9605C57.4901 46.6892 54.6195 41.6717 49.5894 38.4226C42.477 33.862 32.5369 33.3458 23.0252 37.0772C18.7406 38.7695 10.8827 43.2709 8.98039 49.4814C8.55091 50.8665 8.4598 52.3323 8.71449 53.7589C8.96918 55.1854 9.56246 56.5321 10.4457 57.6887C12.5023 60.6248 16.247 62.3255 20.5744 62.3255H21.4313C24.9789 62.1393 27.8667 60.5148 30.6517 58.941C31.1487 58.6618 31.6457 58.3826 32.1513 58.0949C35.5789 56.2334 38.1925 56.3519 41.2174 58.4925C42.1679 59.1594 43.0673 59.8947 43.9081 60.6925C44.1309 60.904 44.3451 61.1324 44.6107 61.4117L45.322 62.1478L46.0761 61.4624L45.7419 61.0986L46.5988 60.8617C43.1711 64.8807 40.369 70.0421 37.5241 76.3288C35.0905 81.727 35.6903 87.4637 39.2379 92.9127C45.4848 102.415 60.0779 109.581 73.1801 109.581C86.2823 109.581 100.858 102.423 107.105 92.9297C110.696 87.4722 111.304 81.7355 108.87 76.3288C106.18 70.3552 102.872 64.3223 97.9534 59.5587C98.5361 53.4751 104.363 38.1941 108.759 34.9366Z" fill="white"/>
<path d="M444.025 23.9623C441.719 23.9433 439.434 24.3899 437.309 25.2745C435.184 26.1592 433.265 27.4632 431.669 29.1067L421.112 39.5563L413.297 30.8921C411.772 29.1873 409.914 27.8037 407.835 26.8239C405.756 25.844 403.499 25.288 401.197 25.1892H400.246C396.033 25.162 391.957 26.6681 388.798 29.4198C385.866 26.7898 382.094 25.2569 378.138 25.0877H378C374.419 24.9608 371.411 24.8592 368.986 24.7577C368.266 24.7577 367.555 24.7154 366.869 24.7154C364.834 24.709 362.801 24.8419 360.785 25.113C358.72 25.4007 357.058 25.6546 355.841 25.8576C354.043 26.1562 352.292 26.6823 350.631 27.423C349.476 27.9015 348.369 28.4851 347.323 29.166L346.183 29.9613L346.115 30.0121C345.901 30.1644 345.704 30.3167 345.506 30.4859L345.446 30.5367C345.207 30.2659 344.984 29.9867 344.727 29.6906C343.151 28.0544 341.261 26.7435 339.168 25.8343C337.075 24.925 334.819 24.4354 332.533 24.3938H332.404C331.273 24.3938 330.168 24.3938 329.105 24.3938C324.769 24.3938 320.905 24.4954 317.631 24.7069C314.064 24.8606 310.522 25.3651 307.057 26.213C305.01 26.7089 303.02 27.4121 301.118 28.3114C299.827 28.9838 298.597 29.7652 297.442 30.6467C297.237 30.8075 297.04 30.9682 296.851 31.1374C296.423 31.5351 295.994 31.9159 295.668 32.2882C294.029 30.6023 292.061 29.2615 289.883 28.3469C287.705 27.4322 285.362 26.9625 282.995 26.966C282.635 26.966 282.266 26.966 281.924 26.966C278.805 27.1242 275.792 28.1316 273.217 29.8767C271.128 31.2739 269.374 33.1047 268.076 35.2411C266.772 33.379 265.101 31.7952 263.164 30.5843C261.226 29.3734 259.062 28.5601 256.799 28.1929C255.792 28.0182 254.771 27.9304 253.748 27.9306C250.219 27.9272 246.774 28.9998 243.885 31.0021C243.307 30.2634 242.671 29.5703 241.983 28.929C238.819 25.9754 234.623 24.3391 230.269 24.36C229.978 24.36 229.695 24.36 229.412 24.36L202.359 25.2907C198.939 25.3447 195.615 26.4247 192.831 28.3875C190.701 24.9567 187.424 22.3681 183.567 21.0686C179.474 19.6728 175.213 18.8137 170.894 18.5133C169.874 18.4456 168.88 18.4118 167.929 18.4118C165.08 18.3831 162.241 18.7361 159.488 19.461C156.865 20.1528 154.323 21.1172 151.905 22.3378C149.859 23.4084 147.935 24.6904 146.163 26.1622L145.958 26.3484C142.231 29.652 139.411 33.8313 137.757 38.4987C136.034 43.2167 135.64 48.308 136.617 53.2297C136.617 53.3481 136.669 53.475 136.703 53.5935C137.396 56.4124 138.474 59.1251 139.908 61.657C141.141 63.9025 142.627 66.003 144.338 67.9183C146.117 69.8191 148.087 71.537 150.216 73.0458L150.765 73.4434C149.35 73.8382 147.991 74.4067 146.72 75.1357C143.72 76.8222 141.293 79.3492 139.746 82.3973C138.199 85.4454 137.602 88.8778 138.03 92.2607C138.459 95.6437 139.893 98.8254 142.152 101.404C144.411 103.982 147.393 105.841 150.722 106.747C156.266 108.303 161.994 109.125 167.757 109.192C175.59 109.192 182.453 107.415 188.169 103.921C193.188 101.043 197.125 96.6337 199.386 91.3559C200.626 95.2878 203.252 98.6507 206.787 100.835C210.323 103.019 214.535 103.879 218.658 103.26C222.781 102.641 226.543 100.583 229.261 97.4598C231.979 94.3366 233.474 90.3549 233.474 86.2368V58.5517C234.067 58.4332 234.654 58.2835 235.231 58.1033C235.204 61.05 235.338 63.996 235.633 66.9284C236.065 70.8088 236.928 74.6308 238.204 78.3256C239.509 82.381 241.57 86.1602 244.28 89.469C246.948 92.7077 250.327 95.3048 254.162 97.0639C257.996 98.8229 262.186 99.6978 266.414 99.6224C270.541 99.6606 274.631 98.836 278.413 97.2027C282.195 95.5695 285.585 93.1646 288.359 90.1459C289.118 89.3229 289.833 88.4615 290.501 87.5652L290.553 88.4113C290.688 91.3436 291.586 94.1921 293.161 96.6819C294.735 99.1718 296.933 101.219 299.542 102.626C302.139 104.03 305.056 104.758 308.017 104.742H308.856C312.025 104.645 315.102 103.668 317.734 101.924C320.265 100.271 322.318 97.997 323.689 95.3242C325.125 92.5615 325.757 89.4597 325.515 86.3637C325.515 85.7291 325.438 85.0776 325.395 84.4007L329.165 84.0454C332.141 83.8291 335.005 82.8395 337.469 81.177C337.537 83.3092 337.606 85.5092 337.691 87.8021V87.929C337.899 92.3879 339.84 96.5959 343.11 99.6772C346.381 102.758 350.729 104.475 355.25 104.471H355.858C358.943 104.366 361.944 103.455 364.556 101.831C367.169 100.228 369.297 97.9599 370.717 95.2649C372.143 92.5712 372.82 89.5523 372.679 86.516L372.628 85.2553H374.847C377.153 85.2146 379.427 84.7147 381.532 83.7857C383.638 82.8566 385.532 81.5175 387.101 79.8486C390.277 76.5943 392.039 72.2431 392.011 67.7237V67.4952C391.925 63.3722 390.312 59.4231 387.478 56.3941C387.881 56.1065 388.266 55.7934 388.652 55.4634L403.382 71.7343L402.688 87.8614C402.461 92.2635 403.962 96.5824 406.881 99.9179C409.799 103.253 413.908 105.348 418.352 105.765C418.946 105.871 419.548 105.924 420.152 105.926C422.399 105.938 424.627 105.508 426.704 104.661C428.781 103.814 430.667 102.567 432.251 100.993C435.438 97.9566 437.335 93.8362 437.556 89.469L438.361 71.3197L456.356 53.4073C458.017 51.8328 459.334 49.9399 460.227 47.8447C461.12 45.7495 461.57 43.4963 461.549 41.2232C461.552 38.9566 461.101 36.7117 460.224 34.6171C459.347 32.5224 458.06 30.6191 456.437 29.016C454.814 27.4128 452.888 26.1413 450.767 25.2741C448.646 24.407 446.372 23.9612 444.077 23.9623H444.025ZM194.193 61.7924C193.004 60.3096 191.641 58.9717 190.131 57.8072L187.483 55.6918C186.497 54.8951 185.461 54.1604 184.381 53.492C184.801 53.3227 185.238 53.145 185.633 52.942C186.443 52.5545 187.22 52.1017 187.955 51.5882C190.349 55.446 194.189 58.2135 198.64 59.2879V68.4598C198.061 67.233 197.369 66.0605 196.575 64.9569C195.744 63.7469 194.887 62.7147 194.193 61.7924Z" fill="#231F20"/>
<path d="M777.586 29.0133C775.977 27.392 774.054 26.1069 771.931 25.2347C769.808 24.3625 767.529 23.9211 765.23 23.9366C762.924 23.9176 760.638 24.3641 758.513 25.2488C756.389 26.1334 754.469 27.4375 752.873 29.081L742.29 39.5306L734.475 30.8663C732.95 29.1616 731.093 27.778 729.014 26.7981C726.935 25.8183 724.677 25.2623 722.376 25.1635H721.424C717.119 25.1389 712.961 26.7157 709.779 29.5802C709.254 30.0567 708.753 30.5594 708.279 31.0863C705.2 28.6245 701.35 27.2964 697.388 27.3295H696.951C694.016 27.443 691.153 28.2559 688.605 29.6987C684.887 31.789 682.084 35.1649 680.738 39.1752L674.954 32.4824C672.639 29.7354 669.505 27.7785 666 26.8896C664.538 26.5176 663.036 26.3272 661.527 26.3226C659.498 26.3267 657.486 26.6789 655.579 27.3634C653.11 28.2159 650.874 29.6237 649.05 31.4755C648.793 31.1963 648.544 30.9171 648.27 30.6294C645.076 27.5131 640.764 25.7704 636.273 25.7812H635.802C631.199 25.8667 626.817 27.75 623.617 31.0186C621.116 33.4854 619.459 36.6629 618.878 40.106L610.095 31.3655L609.923 31.1963C607.495 28.8913 604.461 27.3053 601.166 26.6188C599.983 26.3663 598.777 26.2387 597.567 26.238C595.239 26.241 592.937 26.7191 590.806 27.6426C588.681 28.5437 586.759 29.8523 585.15 31.4925C581.908 28.5532 577.666 26.9252 573.265 26.9319C572.905 26.9319 572.545 26.9319 572.194 26.9319C569.075 27.0913 566.062 28.0986 563.487 29.8425C561.396 31.2368 559.641 33.0681 558.346 35.2069C557.041 33.3435 555.369 31.759 553.43 30.548C551.491 29.337 549.325 28.5244 547.06 28.1588C546.053 27.984 545.032 27.8963 544.01 27.8965C540.476 27.8937 537.028 28.9694 534.138 30.9763C532.013 32.4169 530.254 34.3221 528.997 36.5438C524.129 31.0271 517 27.2365 507.702 25.3581C503.213 24.4602 498.641 24.018 494.06 24.0381C488.54 24.0695 483.033 24.5934 477.608 25.6034C477.234 25.6716 476.865 25.762 476.502 25.8742C476.091 25.9842 475.714 26.1111 475.371 26.238C474.727 26.3758 474.102 26.5918 473.512 26.8811C473.124 27.07 472.746 27.279 472.381 27.5072C471.556 27.8859 470.789 28.3757 470.101 28.9626L469.553 29.4279C469.113 29.7745 468.692 30.1446 468.293 30.5363C467.985 30.8494 467.702 31.1794 467.351 31.6109L466.896 32.1355C466.257 32.8839 465.729 33.7187 465.328 34.6147L465.011 35.1815C464.634 35.874 464.347 36.6102 464.154 37.373C463.822 38.2091 463.606 39.0857 463.512 39.979L463.443 40.5121C463.342 41.179 463.285 41.8517 463.272 42.5259C463.272 42.5259 463.272 42.7966 463.272 42.8389C463.751 76.0322 464.129 84.1719 464.411 86.8372C464.457 87.5693 464.578 88.295 464.771 89.0033C464.85 89.4491 464.956 89.8899 465.088 90.3232C465.148 90.5517 465.217 90.7717 465.294 91.0001C465.395 91.3542 465.518 91.7018 465.662 92.0409C465.953 92.7332 466.306 93.3986 466.716 94.0292C466.879 94.3005 467.057 94.5631 467.248 94.8161C467.604 95.3964 468.017 95.9406 468.482 96.4407C468.807 96.8299 469.124 97.1599 469.381 97.4222L469.973 97.9975C470.576 98.5901 471.24 99.1202 471.952 99.5798C472.462 99.9206 472.991 100.231 473.537 100.511L473.649 100.561C473.963 100.714 474.306 100.866 474.677 101.018C475.048 101.171 475.443 101.34 475.86 101.526L476.194 101.653C476.573 101.805 476.963 101.932 477.359 102.034C477.918 102.202 478.492 102.315 479.073 102.372C483.845 103.496 488.734 104.064 493.641 104.064C501.329 104.117 508.959 102.746 516.134 100.02C523.444 97.1937 529.099 93.42 532.938 88.8087C533.161 88.5464 533.367 88.2672 533.573 88.0049C533.907 88.4533 534.249 88.851 534.609 89.3079C537.275 92.5469 540.653 95.1443 544.487 96.9035C548.32 98.6626 552.508 99.5373 556.735 99.4613C560.863 99.5006 564.953 98.6765 568.735 97.0431C572.518 95.4098 575.907 93.0043 578.68 89.9848C579.289 89.3248 579.88 88.631 580.446 87.9033C580.681 92.1237 582.516 96.102 585.587 99.0467C587.21 100.646 589.137 101.911 591.258 102.769C593.379 103.627 595.651 104.062 597.944 104.047H598.166C602.769 103.975 607.161 102.129 610.403 98.9029C612.058 97.2874 613.358 95.3518 614.221 93.2174C615.083 91.0829 615.49 88.7957 615.416 86.4988V85.7965L624.251 94.6131L624.431 94.7908C627.773 97.9204 632.199 99.6726 636.805 99.6898C639.072 99.6893 641.318 99.2465 643.411 98.3868C644.986 97.761 646.456 96.9054 647.773 95.8484C648.262 96.477 648.791 97.0733 649.358 97.6337C651.832 100.051 654.979 101.685 658.398 102.329C661.817 102.972 665.352 102.596 668.553 101.247C670.566 100.398 672.409 99.1997 673.994 97.7099C675.703 96.0818 677.038 94.1112 677.911 91.9309C678.169 91.2955 678.389 90.6457 678.57 89.9848L684.449 96.8384C686.072 98.7733 688.114 100.324 690.424 101.375C692.735 102.427 695.256 102.952 697.799 102.913C699.726 102.919 701.642 102.634 703.481 102.067C703.678 102.008 703.866 101.94 704.063 101.864C707.373 100.605 710.22 98.3868 712.23 95.5015C714.292 92.594 715.388 89.1258 715.366 85.5765C715.366 85.5765 715.221 72.5293 715.083 61.0982L724.509 71.5393L723.815 87.6664C723.588 92.0685 725.09 96.3875 728.008 99.723C730.926 103.059 735.036 105.153 739.48 105.57C740.074 105.676 740.676 105.729 741.279 105.731C743.517 105.741 745.734 105.314 747.804 104.473C749.873 103.632 751.753 102.394 753.336 100.832C756.522 97.7955 758.419 93.6751 758.64 89.3079L759.446 71.1586L777.441 53.2462C779.101 51.6717 780.418 49.7788 781.311 47.6836C782.204 45.5884 782.654 43.3352 782.634 41.0621C782.641 38.824 782.199 36.6066 781.332 34.5384C780.466 32.4702 779.193 30.5923 777.586 29.0133Z" fill="#231F20"/>
<path d="M173.559 56.9272C174.758 57.621 175.667 58.1456 176.301 58.5263C176.935 58.9071 177.869 59.457 179.094 60.2185C180.118 60.8257 181.099 61.4984 182.034 62.2323C182.753 62.8246 183.679 63.5608 184.776 64.4323C185.757 65.1744 186.649 66.0261 187.432 66.9706C188.092 67.8167 188.82 68.7729 189.609 69.8643C190.343 70.8829 190.921 72.0035 191.322 73.1896C191.728 74.3849 192.063 75.6026 192.325 76.8364C192.614 78.2278 192.74 79.6472 192.702 81.067C192.661 82.6384 192.486 84.2036 192.179 85.746C191.168 90.2305 188.312 93.8773 183.61 96.6864C179.257 99.3714 173.953 100.711 167.697 100.705C162.698 100.643 157.729 99.9207 152.924 98.5563C151.233 98.0946 149.717 97.1486 148.569 95.8376C147.422 94.5266 146.693 92.9093 146.475 91.1897C146.256 89.4702 146.559 87.7254 147.344 86.1754C148.129 84.6253 149.361 83.3395 150.885 82.48C151.899 81.8964 153.022 81.5206 154.187 81.3752C155.351 81.2298 156.534 81.3178 157.663 81.6339C160.58 82.4522 163.581 82.9404 166.609 83.0892C168.528 83.2354 170.459 83.11 172.342 82.7169C173.306 82.4889 174.209 82.059 174.99 81.4562C175.072 80.5673 174.858 79.6761 174.381 78.9178C173.582 77.8678 172.602 76.9655 171.485 76.2525C169.317 74.7836 167.075 73.4252 164.767 72.1827C162.676 70.9981 161.073 70.0674 159.934 69.382C158.794 68.6967 157.26 67.6898 155.341 66.243C153.678 65.0766 152.139 63.747 150.748 62.2747C149.467 60.8249 148.355 59.2384 147.431 57.5448C146.371 55.6872 145.575 53.6942 145.066 51.622C144.366 48.1884 144.627 44.6314 145.82 41.3332C147.001 37.9905 149.021 34.9979 151.69 32.635C152.991 31.5542 154.404 30.6125 155.906 29.8259C157.78 28.8933 159.747 28.156 161.776 27.626C164.561 26.9387 167.443 26.7185 170.302 26.9745C173.876 27.2454 177.398 27.9852 180.774 29.1744C181.886 29.5425 182.913 30.1245 183.795 30.887C184.678 31.6495 185.398 32.5773 185.915 33.6166C186.438 34.6471 186.748 35.7696 186.828 36.9193C186.908 38.069 186.756 39.2228 186.382 40.3143C186.007 41.4057 185.417 42.4129 184.646 43.2777C183.874 44.1425 182.937 44.8476 181.888 45.3522C180.835 45.8789 179.686 46.1915 178.508 46.2714C177.33 46.3513 176.149 46.197 175.033 45.8176C169.48 43.9505 165.598 43.9505 163.387 45.8176C162.53 46.5707 162.222 47.256 162.342 47.8737C162.769 49.1328 163.54 50.2511 164.57 51.1059C165.671 52.1566 166.877 53.0949 168.169 53.9065C169.357 54.6173 171.154 55.6241 173.559 56.9272Z" fill="white"/>
<path d="M229.746 32.8973C230.915 32.8161 232.088 32.9782 233.189 33.3732C234.291 33.7682 235.295 34.3873 236.139 35.1904C237.86 36.7893 238.868 38.9979 238.94 41.3305C239.013 43.663 238.144 45.9284 236.524 47.6283C235.74 48.4876 234.784 49.1765 233.716 49.6514C232.648 50.1263 231.492 50.3766 230.32 50.3866L224.922 50.5728V86.2029C224.924 88.5279 223.993 90.7589 222.332 92.4068C220.671 94.0548 218.416 94.9852 216.061 94.9941C213.708 94.9829 211.456 94.0515 209.797 92.4038C208.137 90.7561 207.207 88.5264 207.21 86.2029V51.2243L203.131 51.3174H202.848C201.307 51.3259 199.79 50.9412 198.443 50.2005C197.112 49.4702 196 48.4046 195.221 47.1122C194.436 45.8051 193.997 44.3241 193.945 42.8054C193.905 41.6619 194.099 40.5222 194.514 39.4539C194.929 38.3856 195.557 37.4105 196.361 36.5864C197.146 35.728 198.102 35.0396 199.17 34.5648C200.238 34.09 201.394 33.8392 202.565 33.8281L229.746 32.8973Z" fill="white"/>
<path d="M291.907 43.5582C291.964 45.053 292.012 46.7057 292.052 48.5164C292.092 50.3271 291.998 52.9755 291.77 56.4615C291.572 59.7615 291.143 63.0439 290.484 66.285C289.77 69.6052 288.726 72.8475 287.365 75.9646C286.1 79.0637 284.306 81.9256 282.061 84.4258C280.101 86.5962 277.69 88.3241 274.993 89.4922C272.296 90.6602 269.375 91.2409 266.431 91.1948C263.461 91.2749 260.513 90.6749 257.818 89.4418C255.122 88.2087 252.753 86.376 250.895 84.0873C248.86 81.5872 247.319 78.7312 246.353 75.6684C245.271 72.5616 244.539 69.3468 244.168 66.0819C243.852 62.8655 243.743 59.6324 243.842 56.4023C243.94 52.9783 244.097 50.3751 244.314 48.5926C244.537 46.8157 244.802 45.2081 245.119 43.7781C245.273 42.6292 245.674 41.526 246.294 40.5425C246.915 39.5589 247.741 38.7177 248.718 38.0753C249.669 37.4078 250.746 36.9352 251.886 36.6853C253.025 36.4353 254.203 36.4131 255.351 36.62C257.668 37.0265 259.727 38.3238 261.076 40.2272C262.425 42.1306 262.955 44.4849 262.549 46.7734C261.675 51.5846 261.387 56.4818 261.692 61.3605C261.949 67.0972 262.897 70.933 264.537 72.8678C264.776 73.1234 265.071 73.323 265.398 73.4518C265.726 73.5807 266.079 73.6355 266.431 73.6124C266.927 73.6151 267.418 73.5165 267.874 73.3229C268.329 73.1292 268.74 72.8446 269.079 72.487C271.101 70.304 272.529 66.409 273.363 60.8021C274.203 55.5117 274.473 50.1485 274.169 44.802C274.038 43.2745 274.334 41.7409 275.026 40.3683C275.701 39.0012 276.73 37.8339 278.008 36.9838C279.295 36.1139 280.802 35.613 282.361 35.5369C283.926 35.4226 285.495 35.7143 286.911 36.383C288.303 37.0512 289.494 38.0672 290.366 39.3303C291.238 40.5934 291.76 42.0596 291.881 43.5835L291.907 43.5582Z" fill="white"/>
<path d="M332.276 32.8971C333.45 32.9068 334.609 33.1518 335.685 33.6172C336.76 34.0827 337.728 34.7588 338.531 35.6047C339.36 36.4285 340.015 37.4073 340.456 38.4838C340.898 39.5604 341.117 40.7131 341.102 41.8745C341.057 44.1997 340.089 46.4145 338.406 48.0415C336.723 49.6685 334.46 50.5775 332.104 50.5726H331.993C326.745 50.4855 321.496 50.6718 316.269 51.131C316.149 53.1279 316.08 55.7762 316.08 59.0846L326.783 58.0523C327.953 57.9437 329.134 58.0659 330.257 58.4116C331.379 58.7573 332.421 59.3196 333.321 60.0661C334.237 60.7859 334.995 61.6822 335.549 62.7004C336.103 63.7186 336.441 64.8375 336.543 65.9889C336.678 67.5578 336.4 69.1344 335.738 70.5664C335.097 71.9773 334.081 73.1906 332.798 74.0778C331.503 74.9841 329.978 75.5172 328.394 75.6178L316.466 76.7431C316.586 80.483 316.743 83.8815 316.937 86.9389C317.089 88.5001 316.792 90.0721 316.08 91.4741C315.365 92.8436 314.306 94.0089 313.004 94.8586C311.682 95.7315 310.137 96.2183 308.548 96.2631H307.999C306.479 96.2793 304.98 95.9092 303.646 95.1885C302.329 94.4814 301.219 93.4496 300.424 92.1933C299.606 90.926 299.147 89.4649 299.096 87.9627C298.525 79.2984 298.208 71.8638 298.145 65.659C298.082 59.4541 298.114 54.7158 298.239 51.4441C298.293 48.7325 298.643 46.0347 299.285 43.3975C299.587 41.9986 300.08 40.6466 300.75 39.3784C301.292 38.6437 301.913 37.9685 302.601 37.3647C303.361 36.7852 304.169 36.2701 305.017 35.8247C306.397 35.2133 307.832 34.7289 309.302 34.3778C312.211 33.6892 315.182 33.284 318.171 33.1679C322.021 32.931 326.723 32.8407 332.276 32.8971Z" fill="white"/>
<path d="M374.264 59.0848C375.425 59.0247 376.585 59.2061 377.67 59.6171C378.755 60.0282 379.741 60.6597 380.563 61.4709C381.453 62.2542 382.169 63.2112 382.666 64.2816C383.163 65.352 383.43 66.5125 383.45 67.6899C383.463 68.8572 383.243 70.0157 382.802 71.0988C382.361 72.1819 381.708 73.1685 380.88 74.0019C380.086 74.8608 379.122 75.549 378.047 76.0236C376.972 76.4981 375.81 76.7489 374.633 76.7603L363.836 76.9464C363.899 80.4381 363.993 83.7436 364.119 86.863C364.195 88.4184 363.852 89.9659 363.125 91.3474C362.403 92.7132 361.323 93.8619 359.997 94.6727C358.645 95.5083 357.092 95.9754 355.498 96.0264H355.215C352.892 96.0306 350.658 95.1465 348.98 93.5597C347.303 91.9728 346.313 89.8063 346.218 87.5145C345.903 78.7825 345.746 71.331 345.746 65.16C345.746 58.9889 345.855 54.2507 346.072 50.9452C346.197 48.2239 346.642 45.5263 347.4 42.907C347.775 41.5164 348.331 40.1797 349.054 38.9302C349.644 38.1894 350.313 37.5142 351.051 36.9165L352.182 36.1211C352.807 35.7504 353.457 35.4225 354.127 35.1396C355.126 34.7006 356.177 34.3878 357.255 34.2089C358.357 34.0227 359.92 33.7887 361.942 33.5066C364.154 33.2147 366.388 33.1213 368.617 33.2274L377.666 33.5489C378.842 33.5929 379.996 33.8773 381.055 34.3842C382.114 34.891 383.055 35.6092 383.819 36.4934C384.615 37.3565 385.227 38.3694 385.617 39.4715C386.007 40.5736 386.168 41.7421 386.09 42.907C386.027 44.0612 385.732 45.1915 385.222 46.232C384.712 47.2726 383.998 48.2026 383.121 48.968C382.243 49.7334 381.221 50.3188 380.112 50.6902C379.004 51.0616 377.831 51.2115 376.664 51.1313C372.5 50.8852 368.325 50.8852 364.161 51.1313C363.973 53.1281 363.847 55.8414 363.784 59.271L374.264 59.0848Z" fill="white"/>
<path d="M450.246 47.3911L429.886 67.698L428.944 89.0202C428.833 91.2706 427.848 93.3922 426.193 94.9431C425.404 95.7376 424.461 96.3667 423.42 96.7927C422.379 97.2187 421.261 97.4328 420.135 97.4222C419.969 97.4285 419.804 97.3936 419.655 97.3207C418.498 97.3045 417.358 97.0509 416.306 96.576C415.254 96.1011 414.314 95.4154 413.545 94.5623C412.735 93.7274 412.11 92.7348 411.71 91.648C411.31 90.5612 411.144 89.4039 411.223 88.2502L412.08 68.6118L393.613 48.2203C392.829 47.3701 392.224 46.3747 391.832 45.2918C391.441 44.2089 391.271 43.06 391.332 41.9118C391.393 40.7635 391.685 39.6387 392.19 38.6025C392.695 37.5663 393.403 36.6394 394.273 35.8754C395.138 35.0907 396.155 34.4873 397.262 34.1019C398.37 33.7165 399.545 33.557 400.717 33.6332C401.889 33.6754 403.04 33.9548 404.098 34.454C405.157 34.9532 406.1 35.6616 406.87 36.5353L420.7 51.8755L437.744 35.0377C438.543 34.1926 439.512 33.5224 440.59 33.0706C441.667 32.6187 442.829 32.3953 444 32.4147C445.17 32.4136 446.329 32.6406 447.41 33.0825C448.491 33.5244 449.474 34.1727 450.301 34.9901C451.128 35.8076 451.783 36.7782 452.23 37.8463C452.676 38.9143 452.905 40.0589 452.903 41.2144C452.925 42.3705 452.699 43.5181 452.242 44.5824C451.784 45.6467 451.104 46.6038 450.246 47.3911Z" fill="white"/>
<path d="M523.084 61.8854C525.48 63.3645 527.414 65.4703 528.671 67.969C529.923 70.3885 530.373 73.1353 529.956 75.821C529.485 78.6921 528.222 81.3796 526.306 83.5884C523.404 87.0744 518.968 89.9738 512.998 92.2865C506.82 94.629 500.25 95.803 493.632 95.7472C489.125 95.7311 484.638 95.1627 480.273 94.0549H479.896C479.873 94.0267 479.845 94.0037 479.812 93.9877C479.779 93.9716 479.744 93.9628 479.707 93.9618C479.61 93.9681 479.513 93.9507 479.424 93.9111C479.302 93.8577 479.176 93.8125 479.047 93.7757C478.73 93.6488 478.439 93.5219 478.19 93.3949C477.934 93.3004 477.682 93.1931 477.436 93.0734C477.191 92.9463 476.954 92.805 476.725 92.6504C476.488 92.497 476.265 92.3244 476.057 92.1342L475.44 91.525C475.259 91.36 475.1 91.1723 474.968 90.9666C474.72 90.7658 474.525 90.507 474.403 90.2135C474.241 90.0541 474.113 89.8642 474.026 89.6551C473.824 89.3997 473.665 89.114 473.555 88.809C473.541 88.6937 473.506 88.5819 473.452 88.479C473.403 88.3745 473.371 88.2631 473.357 88.149C473.258 87.8761 473.195 87.5917 473.169 87.3029C473.076 87.0283 473.013 86.7446 472.98 86.4567V86.3637C472.603 83.1935 472.226 68.6656 471.849 42.78V42.5939C471.864 42.2822 471.896 41.9715 471.944 41.6631L472.038 40.9101C472.09 40.616 472.185 40.3309 472.321 40.064C472.382 39.7781 472.46 39.4956 472.552 39.2179L472.98 38.4648C473.076 38.2029 473.203 37.953 473.357 37.7202L473.932 37.0602C474.18 36.7556 474.343 36.561 474.403 36.5018C474.463 36.4426 474.686 36.2564 475.063 35.9434L475.731 35.3764C475.968 35.2257 476.221 35.1008 476.485 35.0041C476.731 34.8357 476.985 34.6804 477.248 34.5388C477.503 34.4944 477.755 34.4322 478.002 34.3527C478.297 34.2061 478.616 34.1116 478.945 34.0734C478.981 34.0714 479.016 34.0622 479.049 34.0462C479.081 34.0302 479.11 34.0078 479.133 33.9804C489.113 32.1697 498.051 32.0738 505.946 33.6927C513.841 35.3116 519.585 38.414 523.178 43C524.966 45.1404 526.115 47.7306 526.495 50.4797C526.875 53.1894 526.449 55.9498 525.269 58.4248C524.699 59.6688 523.964 60.8326 523.084 61.8854ZM507.171 52.4427C503.069 50.5136 497.262 49.8282 489.75 50.3866C489.75 51.8166 489.75 53.7711 489.844 56.3687C497.619 55.7538 503.401 54.4452 507.188 52.4427H507.171ZM490.316 78.0717C496.631 78.7137 503.006 77.6797 508.782 75.0765C504.298 74.078 498.111 73.7029 490.221 73.9511C490.239 75.4741 490.264 76.8194 490.333 78.0717H490.316Z" fill="white"/>
<path d="M582.211 43.5584C582.279 45.056 582.322 46.706 582.356 48.5167C582.391 50.3274 582.288 52.9757 582.074 56.4618C581.875 59.7611 581.448 63.0432 580.797 66.2852C580.076 69.6046 579.028 72.8465 577.669 75.9648C576.404 79.064 574.61 81.9259 572.365 84.426C570.405 86.5964 567.994 88.3244 565.297 89.4924C562.6 90.6605 559.68 91.2412 556.735 91.195C553.765 91.2751 550.817 90.6751 548.122 89.442C545.427 88.2089 543.057 86.3762 541.199 84.0876C539.167 81.5854 537.627 78.73 536.657 75.6687C535.575 72.5626 534.845 69.3474 534.481 66.0821C534.157 62.8662 534.045 59.6328 534.147 56.4025C534.238 52.9786 534.395 50.3753 534.618 48.5928C534.841 46.8159 535.107 45.2083 535.424 43.7784C535.577 42.6294 535.978 41.5263 536.599 40.5427C537.219 39.5592 538.046 38.7179 539.023 38.0755C539.974 37.4085 541.051 36.9361 542.19 36.6862C543.329 36.4362 544.507 36.4138 545.655 36.6202C546.803 36.8194 547.9 37.2402 548.884 37.8585C549.867 38.4767 550.717 39.2804 551.386 40.2234C552.054 41.1664 552.528 42.2304 552.78 43.3543C553.032 44.4783 553.057 45.6402 552.853 46.7737C551.975 51.5844 551.687 56.4821 551.996 61.3608C552.242 67.0975 553.187 70.9332 554.833 72.868C555.073 73.1227 555.367 73.3217 555.695 73.4504C556.022 73.5792 556.375 73.6346 556.726 73.6126C557.222 73.6153 557.714 73.5168 558.169 73.3231C558.625 73.1295 559.035 72.8449 559.374 72.4872C561.396 70.3042 562.825 66.4093 563.659 60.8023C564.49 55.5111 564.76 50.1487 564.464 44.8022C564.333 43.2747 564.63 41.741 565.321 40.3685C565.997 39.0014 567.025 37.8341 568.303 36.984C569.594 36.1138 571.104 35.6131 572.665 35.5372C574.227 35.4235 575.793 35.7152 577.206 36.3833C578.589 37.053 579.771 38.0681 580.634 39.3278C581.532 40.5742 582.076 42.0347 582.211 43.5584Z" fill="white"/>
<path d="M636.042 34.302C637.208 34.2617 638.369 34.4604 639.453 34.8857C640.537 35.3109 641.52 35.9534 642.34 36.7726C643.215 37.5846 643.913 38.5635 644.394 39.6499C644.874 40.7364 645.126 41.9078 645.134 43.0931L645.708 82.4631C645.708 83.6233 645.481 84.7726 645.039 85.8476C644.611 86.9305 643.967 87.9174 643.146 88.7498C642.321 89.5956 641.317 90.2514 640.207 90.6705C638.585 91.3498 636.792 91.5297 635.065 91.1866C633.301 90.857 631.673 90.0279 630.378 88.8006L606.796 65.2277L606.89 86.736C606.945 87.9047 606.75 89.0716 606.317 90.1607C605.885 91.2499 605.224 92.2367 604.379 93.0566C602.689 94.7446 600.391 95.7028 597.987 95.7218C596.81 95.7413 595.641 95.5265 594.55 95.0904C593.459 94.6543 592.469 94.0058 591.637 93.1835C590.785 92.3835 590.11 91.4179 589.654 90.3476C589.198 89.2773 588.972 88.1254 588.989 86.9645L588.706 43.6601C588.7 41.9252 589.226 40.2292 590.214 38.7949C591.199 37.3233 592.599 36.1699 594.242 35.478C595.857 34.7703 597.658 34.5896 599.383 34.9619C601.129 35.3261 602.735 36.1676 604.019 37.3903L627.507 60.7771L627.224 43.2878C627.178 42.1277 627.377 40.9709 627.81 39.8913C628.242 38.8117 628.898 37.833 629.735 37.018C630.549 36.1721 631.527 35.496 632.61 35.0295C633.693 34.563 634.86 34.3156 636.042 34.302Z" fill="white"/>
<path d="M706.343 44.5821L706.814 85.7375C706.824 87.5539 706.261 89.3283 705.203 90.8142C704.152 92.328 702.657 93.4882 700.919 94.1394C699.906 94.4511 698.851 94.608 697.791 94.6048C696.485 94.6398 695.189 94.3798 694.001 93.8445C692.813 93.3093 691.764 92.513 690.936 91.5165L670.575 67.7659V85.5344C670.575 86.6945 670.348 87.8436 669.907 88.9189C669.49 89.98 668.844 90.9386 668.013 91.728C667.174 92.5196 666.195 93.1533 665.125 93.5979C663.488 94.2847 661.681 94.4737 659.935 94.1406C658.188 93.8075 656.582 92.9675 655.322 91.728C654.47 90.928 653.795 89.9624 653.339 88.8921C652.884 87.8218 652.657 86.6699 652.674 85.509L652.58 43.6091C652.566 41.7921 653.129 40.0165 654.191 38.5324C655.212 37.0393 656.689 35.9069 658.407 35.3002C660.123 34.6789 661.991 34.599 663.754 35.0718C665.544 35.5103 667.141 36.511 668.305 37.9232L688.57 61.3946L688.382 44.7429C688.304 43.1762 688.681 41.6201 689.47 40.2585C690.239 38.9092 691.369 37.7941 692.735 37.0348C694.094 36.2626 695.624 35.8299 697.191 35.774H697.285C698.455 35.7502 699.617 35.9631 700.7 36.3997C701.784 36.8362 702.765 37.4872 703.584 38.3124C704.442 39.1241 705.129 40.0965 705.602 41.173C706.076 42.2495 706.328 43.4085 706.343 44.5821Z" fill="white"/>
<path d="M771.434 47.3913L751.074 67.6982L750.165 89.0119C750.063 91.2624 749.08 93.3856 747.423 94.9348C746.633 95.73 745.688 96.3595 744.646 96.7855C743.603 97.2115 742.484 97.4252 741.356 97.4139C741.193 97.4192 741.031 97.3843 740.885 97.3124C739.729 97.2962 738.588 97.0426 737.536 96.5677C736.484 96.0928 735.544 95.4071 734.775 94.554C733.965 93.7191 733.34 92.7265 732.94 91.6397C732.54 90.5529 732.374 89.3957 732.453 88.242L733.31 68.6035L714.843 48.212C714.059 47.3618 713.454 46.3664 713.062 45.2835C712.671 44.2006 712.501 43.0517 712.562 41.9035C712.624 40.7552 712.915 39.6304 713.42 38.5942C713.925 37.558 714.633 36.6311 715.503 35.8671C716.367 35.083 717.382 34.4801 718.488 34.0947C719.594 33.7093 720.768 33.5494 721.939 33.6249C723.112 33.6659 724.265 33.9448 725.325 34.444C726.384 34.9433 727.329 35.6523 728.1 36.527L741.93 51.8672L758.974 35.0294C759.773 34.1843 760.743 33.5141 761.82 33.0623C762.898 32.6104 764.059 32.387 765.23 32.4064C766.4 32.4053 767.559 32.6323 768.64 33.0742C769.722 33.5161 770.704 34.1644 771.531 34.9818C772.358 35.7993 773.014 36.7699 773.46 37.838C773.907 38.906 774.135 40.0506 774.133 41.2061C774.151 42.3668 773.919 43.518 773.454 44.584C772.989 45.6501 772.3 46.6068 771.434 47.3913Z" fill="white"/>
<path d="M794.613 57.9933C804.216 57.9933 812 50.307 812 40.8255C812 31.344 804.216 23.6577 794.613 23.6577C785.011 23.6577 777.227 31.344 777.227 40.8255C777.227 50.307 785.011 57.9933 794.613 57.9933Z" fill="#231F20"/>
<path d="M794.613 49.5318C799.483 49.5318 803.431 45.6337 803.431 40.8252C803.431 36.0167 799.483 32.1187 794.613 32.1187C789.743 32.1187 785.796 36.0167 785.796 40.8252C785.796 45.6337 789.743 49.5318 794.613 49.5318Z" fill="white"/>
<path d="M797.921 43.0845C798.057 43.1851 798.17 43.3121 798.254 43.4576C798.338 43.6031 798.391 43.7641 798.41 43.9306C798.446 44.1756 798.408 44.4259 798.299 44.6493C798.191 44.8727 798.017 45.0591 797.801 45.1846C797.585 45.31 797.335 45.3688 797.085 45.3534C796.835 45.3381 796.595 45.2492 796.396 45.0982L794.271 43.5075V44.1675C794.27 44.3258 794.237 44.4823 794.174 44.6277C794.11 44.773 794.018 44.9043 793.902 45.0136C793.786 45.1316 793.646 45.2253 793.492 45.2893C793.339 45.3533 793.173 45.3863 793.007 45.3863C792.84 45.3863 792.674 45.3533 792.521 45.2893C792.367 45.2253 792.228 45.1316 792.111 45.0136C791.995 44.9043 791.903 44.773 791.84 44.6277C791.776 44.4823 791.743 44.3258 791.743 44.1675V38.6085C791.439 38.6424 791.134 38.564 790.886 38.3885C790.624 38.1987 790.446 37.917 790.389 37.6016C790.353 37.442 790.351 37.2769 790.384 37.1166C790.416 36.9564 790.482 36.8046 790.577 36.6709C790.675 36.5295 790.802 36.4099 790.95 36.3196C791.097 36.2292 791.262 36.1703 791.434 36.1463C792.642 35.8954 793.887 35.8753 795.102 36.0871C796.049 36.2277 796.92 36.6776 797.578 37.3647C797.868 37.6901 798.069 38.0833 798.161 38.507C798.237 38.9199 798.205 39.3453 798.067 39.7423C797.883 40.1807 797.614 40.579 797.274 40.9144C796.935 41.2498 796.531 41.5157 796.087 41.6969L797.921 43.0845ZM794.271 39.6408C794.752 39.5257 795.192 39.2795 795.539 38.93C795.17 38.6576 794.73 38.496 794.271 38.4647V39.6408Z" fill="#231F20"/>
</g>
<defs>
<clipPath id="clip0_51_1588">
<rect width="812" height="118" fill="white"/>
</clipPath>
</defs>
</svg>
