<svg width="1917" height="392" viewBox="0 0 1917 392" fill="none" xmlns="http://www.w3.org/2000/svg">
<rect width="2306" height="142" transform="translate(-158 250)" fill="#CDCDCD"/>
<rect width="2306" height="274" transform="translate(-158)" fill="white"/>
<g filter="url(#filter0_d_119_2341)">
<path d="M1078.6 212.906C1084.1 213.449 1089.63 213.688 1095.16 213.622L1114.64 214.203C1121.79 230.408 1134.74 244.223 1151.68 250.354C1171.75 257.632 1195.49 253.325 1209.56 236.66C1212.33 233.38 1214.66 229.748 1216.48 225.857C1220.37 228.45 1224.81 230.934 1229.62 230.772C1231.86 230.617 1234.04 230.009 1236.04 228.985C1238.04 227.962 1239.81 226.544 1241.24 224.817C1242.9 222.88 1244.13 220.613 1244.85 218.167C1245.57 215.72 1245.76 213.149 1245.41 210.624C1257.5 218.358 1271.97 221.511 1286.19 219.51C1301.18 217.457 1317.48 209.517 1322.46 194.243C1324.54 187.831 1324.54 180.926 1322.46 174.513C1334.92 166.6 1342.3 151.556 1339.84 136.863C1337.26 121.442 1324.71 108.991 1309.06 107.397C1304.27 106.918 1299.43 107.438 1294.85 108.923C1293.44 104.883 1290.88 101.343 1287.48 98.7387C1284.08 96.1347 1279.99 94.58 1275.72 94.2658C1271.44 93.9516 1267.17 94.8916 1263.43 96.9702C1259.68 99.0489 1256.63 102.175 1254.64 105.966C1252.73 109.652 1251.88 113.791 1252.16 117.93C1248.15 113.374 1242.89 110.089 1237.04 108.477C1230.9 106.92 1224.46 107.061 1218.39 108.886C1212.33 110.711 1206.88 114.15 1202.62 118.835C1199.85 121.872 1197.56 125.326 1195.86 129.071C1194.51 119.618 1191.48 110.368 1185.32 102.968C1181.03 98.0266 1175.61 94.1988 1169.52 91.8132C1162.92 89.0067 1155.89 87.3663 1148.73 86.9652C1142.58 86.7938 1136.47 87.8929 1130.77 90.1935C1125.07 92.4942 1119.91 95.9466 1115.61 100.334C1106.61 109.636 1101.53 122.036 1101.42 134.973C1101.12 147.464 1104.94 161.131 1113.73 170.354C1110.42 169.093 1106.84 168.693 1103.34 169.193C1098.83 169.928 1094.71 172.159 1091.63 175.526C1089.21 178.32 1087.62 181.733 1087.04 185.381C1086.45 189.029 1086.9 192.767 1088.33 196.174C1083.45 194.624 1078.19 194.699 1073.35 196.39C1072.31 196.692 1071.34 197.209 1070.51 197.906C1069.68 198.604 1069.01 199.468 1068.53 200.442C1067.87 202.181 1067.87 204.103 1068.53 205.843C1070.04 210.246 1074.21 212.299 1078.6 212.906Z" fill="white"/>
<path d="M1252.18 117.957C1252.18 117.957 1250.5 123.251 1257.21 133.676C1253.8 133.595 1250.43 134.5 1247.52 136.282C1244.61 138.064 1242.28 140.649 1240.81 143.724C1235.59 154.527 1245.66 170.341 1245.66 170.341C1245.66 170.341 1231.5 167.181 1230.79 148.95C1230.09 130.719 1247.57 126.6 1247.57 126.6C1247.57 126.6 1243.04 116.783 1252.18 117.957Z" fill="#CDCDCD"/>
<path d="M1211.75 207.464C1211.75 207.464 1188.63 237.173 1156.58 227.504C1124.53 217.835 1122.68 192.137 1122.68 192.137C1122.68 192.137 1119.69 204.047 1100.69 205.168C1081.68 206.289 1068.58 200.401 1068.58 200.401C1067.92 202.141 1067.92 204.063 1068.58 205.803C1070.11 210.219 1074.27 212.271 1078.67 212.879C1084.17 213.422 1089.7 213.66 1095.23 213.595L1114.7 214.175C1121.86 230.381 1134.81 244.196 1151.74 250.326C1171.82 257.605 1195.55 253.297 1209.62 236.633C1212.4 233.353 1214.73 229.72 1216.55 225.83C1220.44 228.423 1224.87 230.907 1229.68 230.745C1231.92 230.59 1234.11 229.982 1236.11 228.958C1238.11 227.935 1239.88 226.516 1241.31 224.79C1242.94 222.891 1244.15 220.675 1244.87 218.283C1245.59 215.89 1245.81 213.374 1245.5 210.894C1244.66 207.707 1244.04 205.492 1244.04 205.492C1231.85 219.307 1211.75 207.464 1211.75 207.464Z" fill="#CDCDCD"/>
<path d="M643.131 247.882C634.589 247.829 626.162 249.859 618.583 253.797C618.3 247.855 614.65 242.643 609.121 239.361C619.3 233.959 626.045 224.601 626.045 213.946C626.045 197.214 609.418 183.642 588.926 183.642C583.262 183.622 577.647 184.7 572.394 186.816C564.04 165.979 540.046 150.921 511.727 150.921C476.46 150.921 447.884 174.257 447.884 203.034C447.888 205.753 448.146 208.466 448.654 211.137C442.123 208.151 435.02 206.622 427.837 206.654C406.466 206.654 388.798 219.604 385.933 236.363C380.338 234.299 374.419 233.252 368.455 233.271C359.661 233.223 351.019 235.556 343.447 240.023C337.783 232.73 327.834 227.869 316.479 227.869C298.907 227.869 284.565 239.537 284.565 253.932C284.565 268.328 298.853 279.995 316.479 279.995C320.41 279.992 324.317 279.386 328.064 278.199C333.471 292.23 349.489 302.412 368.455 302.412C383.905 302.412 397.423 295.66 404.803 285.546C408.75 291.271 416.253 295.134 424.863 295.134C428.347 295.212 431.808 294.558 435.021 293.213C438.235 291.868 441.13 289.863 443.517 287.328C445.099 310.596 468.714 329.07 497.588 329.07C521.811 329.07 542.317 316.106 549.252 298.213C555.164 301.016 561.632 302.452 568.176 302.412C580.586 302.412 591.548 297.443 598.294 289.813C601.267 307.868 620.219 321.805 643.158 321.805C668.166 321.805 688.442 305.248 688.442 284.843C688.442 264.438 668.166 247.869 643.158 247.869" fill="white"/>
<path d="M545.264 304.411L546.116 302.223L548.522 303.385C554.057 306.015 560.114 307.368 566.243 307.342C577.423 307.342 587.993 302.912 594.549 295.498L597.82 291.798L598.564 296.322C601.43 313.662 619.759 326.734 641.225 326.734C664.962 326.734 694.39 308.125 684.279 291.623C687.901 297.537 677.709 251.191 615.245 267.977C639.171 261.548 588.52 257.079 588.52 257.079C579.612 261.913 569.217 260.711 569.217 260.711C576.638 254.648 581.086 243.736 581.086 243.736C561.796 261.913 524.677 265.559 524.677 265.559C535.072 267.977 549.914 266.775 549.914 266.775C549.914 266.775 546.94 289.732 518.729 292.217C490.518 294.702 480.137 275.255 480.137 275.255C460.834 288.584 443.017 275.255 443.017 275.255C419.267 283.736 410.359 272.825 410.359 272.825C426.688 272.825 435.596 266.775 435.596 266.775C396.99 272.825 380.661 255.863 380.661 255.863C380.661 263.142 391.056 269.192 391.056 269.192C356.911 283.736 339.094 258.281 339.094 258.281C314.965 277.754 290.215 267.652 284.902 260.711C284.902 274.08 298.217 285.019 314.641 285.019C318.311 285.022 321.959 284.457 325.455 283.344L327.672 282.642L328.388 284.492C333.647 298.226 349.03 307.45 366.657 307.45C380.688 307.45 393.894 301.332 401.099 291.474L403.073 288.773L404.952 291.474C408.629 296.876 415.577 300.144 423.065 300.144C426.21 300.201 429.332 299.603 432.232 298.387C435.133 297.171 437.747 295.364 439.908 293.081L443.599 288.922L443.937 294.04C445.464 316.498 468.268 334.08 495.817 334.08C518.58 334.08 538.492 322.183 545.359 304.479" fill="#CDCDCD"/>
<path d="M983.665 234.675C974.564 234.619 965.587 236.779 957.509 240.968C957.198 234.648 953.305 229.084 947.425 225.6C958.239 219.834 965.471 209.854 965.471 198.497C965.471 180.658 947.763 166.208 925.905 166.208C919.884 166.19 913.917 167.337 908.332 169.584C899.424 147.37 873.849 131.327 843.664 131.327C806.085 131.327 775.617 156.188 775.617 186.87C775.617 189.77 775.893 192.664 776.441 195.513C769.479 192.34 761.911 190.714 754.259 190.746C731.468 190.746 712.638 204.547 709.651 222.467C703.684 220.266 697.371 219.149 691.01 219.172C681.643 219.098 672.431 221.562 664.354 226.302C658.325 218.524 647.727 213.352 635.629 213.352C616.84 213.352 601.605 225.789 601.605 241.13C601.605 256.471 616.84 268.908 635.629 268.908C639.817 268.906 643.98 268.259 647.971 266.991C653.702 281.953 670.802 292.811 691.01 292.811C707.488 292.811 721.898 285.586 729.765 274.823C733.969 280.927 741.931 285.059 751.15 285.059C754.862 285.141 758.549 284.441 761.973 283.005C765.396 281.57 768.479 279.431 771.021 276.727C772.711 301.535 797.88 321.291 828.687 321.291C854.492 321.291 876.35 307.463 883.757 288.395C890.031 291.376 896.897 292.909 903.844 292.879C917.065 292.879 928.757 287.571 935.949 279.442C939.125 298.699 959.307 313.54 983.76 313.54C1010.42 313.54 1032.03 295.903 1032.03 274.148C1032.03 252.393 1010.4 234.742 983.76 234.742" fill="white"/>
<path d="M879.31 294.918L880.202 292.595L882.77 293.837C888.683 296.639 895.151 298.079 901.695 298.051C913.604 298.051 924.878 293.338 931.866 285.424L935.354 281.481L936.138 286.302C939.193 304.789 958.739 318.712 981.611 318.712C1006.92 318.712 1031.99 290.07 1027.44 299.806C1070.43 208.234 966.877 247.058 982.165 226.329C950.48 269.287 925.391 244.479 925.391 244.479C915.929 249.638 904.818 248.355 904.818 248.355C912.725 241.886 917.47 230.273 917.47 230.273C896.91 249.638 857.344 253.513 857.344 253.513C868.415 256.106 884.244 254.864 884.244 254.864C884.244 254.864 881.081 279.415 851.018 281.994C820.955 284.573 809.87 263.912 809.87 263.912C789.297 278.118 770.304 263.912 770.304 263.912C744.986 272.946 735.497 261.319 735.497 261.319C752.907 261.319 762.397 254.864 762.397 254.864C721.249 261.319 703.852 243.237 703.852 243.237C703.852 251.002 714.923 257.457 714.923 257.457C678.534 272.946 659.501 245.816 659.501 245.816C633.818 266.572 607.404 255.809 601.74 248.409C601.74 262.656 615.934 274.243 633.385 274.243C637.28 274.247 641.152 273.645 644.862 272.46L647.241 271.717L647.984 273.689C653.594 288.314 669.991 298.145 688.78 298.145C703.73 298.145 717.802 291.609 725.48 281.116L727.589 278.24L729.589 281.157C733.523 286.856 740.917 290.394 748.906 290.394C752.258 290.458 755.585 289.822 758.677 288.526C761.768 287.231 764.554 285.305 766.857 282.872L770.777 278.442L771.156 283.844C772.778 307.774 797.069 326.504 826.443 326.504C850.707 326.504 871.929 313.837 879.256 294.958" fill="#CDCDCD"/>
<path d="M1182.21 193.946C1173.11 193.887 1164.13 196.047 1156.05 200.239C1155.74 193.906 1151.85 188.355 1145.97 184.858C1156.78 179.105 1164.02 169.125 1164.02 157.768C1164.02 139.929 1146.3 125.466 1124.45 125.466C1118.43 125.454 1112.46 126.605 1106.88 128.855C1097.98 106.641 1072.41 90.5977 1042.22 90.5977C1004.63 90.5977 974.176 115.459 974.176 146.141C974.176 149.041 974.452 151.935 975.001 154.784C968.034 151.611 960.461 149.984 952.805 150.017C930.028 150.017 911.198 163.818 908.197 181.725C902.227 179.535 895.915 178.424 889.556 178.443C880.191 178.37 870.98 180.829 862.9 185.56C856.857 177.795 846.273 172.623 834.161 172.623C815.372 172.623 800.137 185.06 800.137 200.401C800.137 215.742 815.372 228.179 834.161 228.179C838.349 228.179 842.512 227.532 846.503 226.262C852.234 241.224 869.348 252.082 889.556 252.082C906.034 252.082 920.43 244.857 928.297 234.094C932.501 240.198 940.463 244.317 949.682 244.317C953.395 244.399 957.084 243.701 960.509 242.268C963.935 240.835 967.02 238.699 969.567 235.998C971.256 260.806 996.412 280.563 1027.22 280.563C1053.04 280.563 1074.9 266.734 1082.29 247.666C1088.57 250.647 1095.44 252.179 1102.39 252.15C1115.61 252.15 1127.3 246.842 1134.48 238.645C1137.67 257.902 1157.85 272.744 1182.31 272.744C1208.96 272.744 1230.56 255.107 1230.56 233.338C1230.56 211.569 1208.94 193.946 1182.31 193.946" fill="white"/>
<path d="M1077.84 254.189L1078.75 251.866L1081.32 253.108C1087.23 255.912 1093.7 257.352 1100.24 257.322C1112.15 257.322 1123.44 252.595 1130.43 244.695L1133.9 240.752L1134.7 245.573C1137.74 264.047 1157.28 277.983 1180.16 277.983C1205.46 277.983 1230.55 249.341 1225.99 259.077C1268.99 167.505 1165.44 206.316 1180.72 185.587C1149.03 228.558 1123.95 203.75 1123.95 203.75C1114.49 208.909 1103.39 207.626 1103.39 207.626C1111.3 201.157 1116.04 189.53 1116.04 189.53C1095.47 208.909 1055.92 212.785 1055.92 212.785C1066.99 215.377 1082.82 214.135 1082.82 214.135C1082.82 214.135 1079.65 238.686 1049.58 241.265C1019.5 243.845 1008.44 223.183 1008.44 223.183C987.869 237.389 968.877 223.183 968.877 223.183C943.559 232.217 934.056 220.59 934.056 220.59C951.467 220.59 960.969 214.135 960.969 214.135C919.822 220.59 902.411 202.508 902.411 202.508C902.411 210.259 913.496 216.728 913.496 216.728C877.093 232.217 858.074 205.087 858.074 205.087C832.39 225.843 805.991 215.08 800.313 207.68C800.313 221.927 814.52 233.514 831.971 233.514C835.866 233.518 839.738 232.916 843.448 231.731L845.813 230.975L846.57 232.96C852.18 247.585 868.563 257.416 887.353 257.416C902.317 257.416 916.389 250.88 924.067 240.374L926.162 237.497L928.176 240.414C932.096 246.113 939.503 249.665 947.492 249.665C950.844 249.727 954.171 249.09 957.262 247.795C960.353 246.5 963.14 244.575 965.444 242.143L969.364 237.714L969.729 243.115C971.365 267.031 995.656 285.775 1025.03 285.775C1049.29 285.775 1070.52 273.108 1077.83 254.229" fill="#CDCDCD"/>
<path d="M1930.34 233.797C1918.86 233.725 1907.54 236.451 1897.36 241.738C1896.97 233.757 1892.07 226.762 1884.66 222.359C1898.34 215.094 1907.4 202.521 1907.4 188.207C1907.4 165.722 1885.07 147.505 1857.53 147.505C1849.92 147.479 1842.38 148.928 1835.33 151.772C1824.11 123.778 1791.87 103.548 1753.83 103.548C1706.52 103.548 1668.07 134.892 1668.07 173.555C1668.07 177.212 1668.42 180.861 1669.11 184.453C1660.34 180.45 1650.79 178.399 1641.15 178.443C1612.43 178.443 1588.7 195.823 1584.86 218.416C1577.34 215.647 1569.39 214.238 1561.38 214.257C1549.57 214.162 1537.96 217.265 1527.77 223.237C1520.16 213.446 1506.82 206.937 1491.56 206.937C1467.89 206.937 1448.68 222.602 1448.68 241.94C1448.68 261.279 1467.89 276.943 1491.56 276.943C1496.84 276.944 1502.09 276.133 1507.12 274.54C1514.34 293.446 1535.9 307.072 1561.38 307.072C1582.14 307.072 1600.3 297.97 1610.2 284.398C1615.5 292.095 1625.59 297.294 1637.16 297.294C1647.49 297.294 1656.6 293.149 1662.21 286.802C1664.34 318.064 1696 342.885 1734.88 342.885C1767.41 342.885 1794.96 325.464 1804.29 301.427C1812.2 305.186 1820.86 307.115 1829.62 307.072C1846.27 307.072 1861.01 300.319 1870.07 290.137C1874.12 314.445 1899.52 333.121 1930.34 333.121C1963.93 333.121 1991.17 310.88 1991.17 283.453C1991.17 256.025 1963.94 233.797 1930.34 233.797" fill="white"/>
<path d="M1798.8 309.732L1799.94 306.801L1803.18 308.368C1810.62 311.894 1818.75 313.708 1826.99 313.675C1841.99 313.675 1856.21 307.733 1865.01 297.767L1869.4 292.797L1870.4 298.861C1874.24 322.156 1898.87 339.725 1927.7 339.725C1959.59 339.725 1991.24 303.614 1985.45 315.849C2039.66 200.428 1909.13 249.354 1928.41 223.223C1888.46 277.375 1856.9 246.1 1856.9 246.1C1844.94 252.609 1830.97 250.988 1830.97 250.988C1840.95 242.886 1846.92 228.193 1846.92 228.193C1821 252.609 1771.14 257.497 1771.14 257.497C1785.09 260.765 1805.05 259.131 1805.05 259.131C1805.05 259.131 1801.06 290.07 1763.14 293.324C1725.23 296.579 1711.29 270.529 1711.29 270.529C1685.36 288.436 1661.44 270.529 1661.44 270.529C1629.52 281.926 1617.56 267.274 1617.56 267.274C1639.5 267.274 1651.46 259.172 1651.46 259.172C1599.61 267.274 1577.67 244.52 1577.67 244.52C1577.67 254.297 1591.63 262.426 1591.63 262.426C1545.77 281.967 1521.83 247.774 1521.83 247.774C1489.38 273.932 1456.18 260.36 1449.03 251.029C1449.03 268.989 1466.93 283.588 1488.92 283.588C1493.83 283.594 1498.71 282.838 1503.39 281.346L1506.38 280.401L1507.32 282.899C1514.39 301.332 1535.05 313.716 1558.69 313.716C1577.61 313.716 1595.27 305.478 1604.95 292.244L1607.65 288.625L1610.18 292.298C1615.14 299.482 1624.45 303.938 1634.51 303.938C1643.43 303.938 1651.88 300.4 1657.14 294.485L1662.08 288.908L1662.54 295.782C1664.6 325.937 1695.22 349.556 1732.23 349.556C1762.82 349.556 1789.55 333.581 1798.79 309.799" fill="#CDCDCD"/>
<path d="M1116.72 236.89C1132.1 236.795 1147.27 240.448 1160.92 247.531C1161.45 236.836 1168.02 227.437 1177.95 221.549C1159.61 211.812 1147.47 194.959 1147.47 175.769C1147.47 145.628 1177.4 121.198 1214.32 121.198C1224.51 121.162 1234.6 123.102 1244.05 126.911C1259.11 89.3823 1302.33 62.2522 1353.33 62.2522C1416.86 62.2522 1468.3 104.278 1468.3 156.121C1468.31 161.019 1467.86 165.907 1466.94 170.719C1478.71 165.337 1491.5 162.573 1504.44 162.616C1542.94 162.616 1574.73 185.925 1579.9 216.201C1589.98 212.492 1600.65 210.608 1611.39 210.637C1627.22 210.512 1642.79 214.675 1656.43 222.683C1666.63 209.557 1684.52 200.806 1704.98 200.806C1736.73 200.806 1762.47 221.819 1762.47 247.747C1762.47 273.675 1736.78 294.675 1704.98 294.675C1697.9 294.676 1690.87 293.588 1684.13 291.447C1674.44 316.714 1645.54 335.066 1611.39 335.066C1583.55 335.066 1559.22 322.912 1545.91 304.681C1538.82 314.985 1525.3 321.967 1509.78 321.967C1495.94 321.967 1483.72 316.403 1476.2 307.895C1473.34 349.759 1430.83 383.074 1378.77 383.074C1335.15 383.074 1298.22 359.711 1285.72 327.49C1275.11 332.529 1263.5 335.118 1251.76 335.066C1229.43 335.066 1209.67 326.099 1197.53 312.365C1192.12 344.897 1158.04 369.988 1116.73 369.988C1071.69 369.988 1035.18 340.184 1035.18 303.412C1035.18 266.64 1071.68 236.836 1116.73 236.836" fill="white"/>
<path d="M1293.07 338.685L1291.54 334.755L1287.2 336.848C1277.23 341.578 1266.32 344.01 1255.27 343.965C1235.16 343.965 1216.07 335.998 1204.3 322.642L1198.42 315.984L1197.07 324.087C1191.92 355.322 1158.89 378.874 1120.25 378.874C1077.49 378.874 1035.09 330.461 1042.82 346.855C970.148 192.123 1145.13 257.727 1119.3 222.616C1172.84 295.215 1215.17 253.297 1215.17 253.297C1231.21 262.021 1249.93 259.834 1249.93 259.834C1236.57 248.922 1228.54 229.273 1228.54 229.273C1263.3 262.021 1330.15 268.571 1330.15 268.571C1311.43 272.933 1284.69 270.758 1284.69 270.758C1284.69 270.758 1290.09 312.23 1340.84 316.592C1391.58 320.954 1410.36 286.032 1410.36 286.032C1445.11 310.042 1477.2 286.032 1477.2 286.032C1519.99 301.305 1536.03 281.67 1536.03 281.67C1506.62 281.67 1490.57 270.758 1490.57 270.758C1560.09 281.67 1589.51 251.11 1589.51 251.11C1589.51 264.209 1570.79 275.12 1570.79 275.12C1632.29 301.305 1664.37 255.472 1664.37 255.472C1707.81 290.583 1752.38 272.352 1761.97 259.834C1761.97 283.912 1737.97 303.493 1708.49 303.493C1701.91 303.496 1695.37 302.48 1689.11 300.481L1685.05 299.212L1683.78 302.561C1674.32 327.274 1646.61 343.871 1614.84 343.871C1589.56 343.871 1565.79 332.838 1552.81 315.093L1549.25 310.232L1545.87 315.161C1539.24 324.789 1526.73 330.785 1513.24 330.785C1501.28 330.785 1489.94 326.032 1482.9 318.078L1476.27 310.583L1475.65 319.806C1472.95 360.238 1431.85 391.905 1382.22 391.905C1341.22 391.905 1305.37 370.474 1293 338.591" fill="#CDCDCD"/>
<path d="M1138.17 110.854C1138.17 110.854 1133.52 104.669 1138.17 100.334C1142.82 95.9994 1156.43 97.2419 1156.43 97.2419C1156.43 97.2419 1151.49 88.5855 1165.42 87.3431C1179.36 86.1007 1197.31 96.6206 1197.31 96.6206C1197.31 96.6206 1202.27 82.7112 1219.6 80.8476C1236.93 78.984 1258.94 90.3006 1258.94 90.3006C1258.94 90.3006 1284.32 75.3379 1328.61 79.6593C1363.37 83.0623 1412.82 107.424 1421.59 119.659C1424.61 123.859 1427.12 129.004 1426.37 134.244C1425.98 136.767 1425.06 139.18 1423.66 141.32C1423.66 141.32 1455.9 139.47 1466.34 167.397C1476.77 195.323 1444.88 209.976 1409.32 208.004C1373.76 206.032 1355.6 187.748 1355.6 187.748C1355.6 187.748 1340.16 202.413 1307.99 185.492C1275.82 168.572 1266.21 151.381 1266.21 151.381C1266.21 151.381 1254.04 163.224 1240.53 158.7C1227.6 154.406 1227.01 150.597 1227.01 150.233C1227.01 150.773 1227.13 159.173 1204.99 156.161C1186.5 153.663 1174.47 140.253 1169.95 130.3C1162.36 131.723 1154.68 132.625 1146.97 133.001C1133.35 133.609 1110.47 130.206 1111.05 119.078C1111.64 107.951 1138.17 110.854 1138.17 110.854Z" fill="white"/>
<path d="M1355.51 113.947C1355.51 113.947 1340.64 100.645 1320.82 102.819C1301 104.993 1302.25 121.374 1302.25 121.374C1302.25 121.374 1282.73 107.451 1268.45 109.625C1254.18 111.799 1253.27 115.5 1253.27 115.5C1253.27 115.5 1249.22 104.358 1241.51 105.601C1233.81 106.843 1234.39 111.975 1234.39 111.975C1234.39 111.975 1231.6 101.887 1241.15 100.955C1250.69 100.024 1255.85 108.072 1255.85 108.072C1255.85 108.072 1263.44 103.116 1276.75 102.819C1284.71 102.624 1292.59 104.43 1299.67 108.072C1299.67 108.072 1309.28 95.7022 1322.58 94.7704C1335.88 93.8386 1355.41 113.947 1355.41 113.947" fill="#F2F2F2"/>
<path d="M1266.16 151.273C1266.16 151.273 1253.99 163.116 1240.47 158.592C1227.55 154.297 1226.95 150.489 1226.95 150.125C1226.95 150.665 1227.08 159.064 1204.93 156.053C1186.44 153.555 1174.41 140.145 1169.9 130.192C1162.31 131.615 1154.63 132.517 1146.92 132.893C1133.29 133.501 1110.42 130.098 1111 118.97C1111.04 118.023 1111.3 117.098 1111.76 116.269C1113.98 118.824 1116.58 121.028 1119.46 122.805C1139.74 135.486 1170.28 118.565 1170.28 118.565C1170.28 118.565 1175.06 138.538 1195.39 145.358C1215.72 152.177 1225.32 130.692 1225.32 130.692C1225.32 130.692 1229.83 143.386 1246.2 147.329C1262.57 151.272 1274.43 132.11 1274.43 132.11C1274.43 132.11 1282.89 156.634 1314.51 169.611C1346.12 182.589 1368.42 155.796 1368.42 155.796C1368.42 155.796 1397.49 200.063 1435.03 185.965C1456.94 177.727 1458.75 163.17 1456.25 152.353C1460.8 156.45 1464.27 161.603 1466.36 167.356C1476.81 195.269 1444.91 209.935 1409.35 207.964C1373.78 205.992 1355.63 187.707 1355.63 187.707C1355.63 187.707 1340.19 202.373 1308.02 185.452C1275.85 168.531 1266.16 151.273 1266.16 151.273Z" fill="#CDCDCD"/>
<path d="M928.352 240.576C914.501 243.81 900.019 243.094 886.555 238.51C897.816 250.191 913.901 255.958 929.906 252.393C945.127 248.99 956.82 237.916 962.416 223.615C952.663 232.03 940.949 237.863 928.352 240.576Z" fill="#CDCDCD"/>
<path d="M1886.39 281.157C1891.9 281.688 1897.43 281.922 1902.95 281.859L1922.41 282.44C1929.57 298.645 1942.51 312.446 1959.43 318.591C1979.5 325.856 2003.23 321.548 2017.3 304.897C2020.07 301.617 2022.4 297.985 2024.22 294.094C2028.11 296.673 2032.53 299.158 2037.36 298.996C2039.6 298.845 2041.78 298.24 2043.78 297.219C2045.77 296.197 2047.54 294.78 2048.97 293.054C2050.63 291.119 2051.86 288.855 2052.57 286.41C2053.29 283.966 2053.48 281.398 2053.13 278.875C2065.22 286.598 2079.68 289.745 2093.89 287.747C2108.88 285.694 2125.18 277.754 2130.16 262.494C2132.24 256.082 2132.24 249.176 2130.16 242.764C2142.61 234.864 2149.99 219.807 2147.53 205.128C2144.94 189.719 2132.41 177.268 2116.76 175.688C2111.97 175.198 2107.13 175.713 2102.55 177.201C2101.14 173.165 2098.57 169.63 2095.17 167.03C2091.77 164.431 2087.69 162.879 2083.42 162.567C2079.15 162.254 2074.88 163.193 2071.14 165.27C2067.4 167.347 2064.34 170.47 2062.35 174.257C2060.46 177.942 2059.61 182.075 2059.89 186.208C2055.88 181.652 2050.62 178.366 2044.77 176.755C2038.63 175.2 2032.19 175.342 2026.13 177.167C2020.07 178.992 2014.63 182.43 2010.38 187.113C2007.59 190.145 2005.31 193.6 2003.62 197.349C2002.27 187.896 1999.24 178.646 1993.07 171.245C1988.79 166.313 1983.38 162.487 1977.3 160.091C1970.7 157.287 1963.67 155.647 1956.51 155.243C1950.37 155.079 1944.26 156.181 1938.56 158.481C1932.86 160.782 1927.7 164.23 1923.39 168.612C1914.4 177.919 1909.33 190.317 1909.21 203.251C1908.91 215.728 1912.73 229.395 1921.51 238.618C1918.21 237.349 1914.63 236.949 1911.13 237.457C1906.63 238.194 1902.51 240.42 1899.43 243.777C1897.01 246.57 1895.41 249.983 1894.83 253.631C1894.25 257.28 1894.7 261.018 1896.13 264.425C1891.25 262.874 1886 262.95 1881.16 264.641C1880.12 264.941 1879.15 265.457 1878.32 266.155C1877.49 266.853 1876.81 267.717 1876.34 268.692C1875.66 270.423 1875.63 272.343 1876.26 274.094C1877.82 278.483 1882 280.536 1886.39 281.157Z" fill="white"/>
<path d="M2019.49 275.701C2019.49 275.701 1996.39 305.411 1964.35 295.741C1932.31 286.072 1930.45 260.374 1930.45 260.374C1930.45 260.374 1927.46 272.284 1908.47 273.405C1889.48 274.526 1876.38 268.638 1876.38 268.638C1875.7 270.369 1875.67 272.289 1876.3 274.04C1877.82 278.456 1882 280.509 1886.39 281.13C1891.9 281.661 1897.43 281.896 1902.95 281.832L1922.41 282.413C1929.57 298.618 1942.51 312.419 1959.43 318.564C1979.5 325.829 2003.23 321.521 2017.3 304.87C2020.07 301.59 2022.4 297.958 2024.22 294.067C2028.11 296.646 2032.53 299.131 2037.36 298.969C2039.6 298.818 2041.78 298.213 2043.78 297.192C2045.77 296.17 2047.54 294.753 2048.97 293.027C2050.59 291.127 2051.81 288.911 2052.53 286.519C2053.25 284.127 2053.46 281.611 2053.16 279.131C2052.32 275.944 2051.7 273.729 2051.7 273.729C2039.58 287.544 2019.49 275.701 2019.49 275.701Z" fill="#CDCDCD"/>
<path d="M1420.93 176.445C1420.93 176.445 1416.29 170.26 1420.93 165.938C1425.57 161.617 1439.21 162.832 1439.21 162.832C1439.21 162.832 1434.25 154.176 1448.18 152.934C1462.12 151.691 1480.08 162.225 1480.08 162.225C1480.08 162.225 1485.03 148.302 1502.37 146.438C1519.72 144.574 1541.7 155.891 1541.7 155.891C1541.7 155.891 1567.1 140.928 1611.37 145.263C1646.13 148.666 1695.58 173.028 1704.37 185.249C1707.37 189.449 1709.9 194.594 1709.14 199.834C1708.73 202.363 1707.78 204.775 1706.37 206.91C1706.37 206.91 1738.61 205.074 1749.06 232.987C1759.51 260.901 1727.6 275.566 1692.04 273.594C1656.47 271.623 1638.31 253.338 1638.31 253.338C1638.31 253.338 1622.88 268.004 1590.7 251.083C1558.51 234.162 1548.93 216.971 1548.93 216.971C1548.93 216.971 1536.76 228.814 1523.25 224.304C1510.31 219.996 1509.73 216.201 1509.73 215.837C1509.73 216.363 1509.84 224.763 1487.71 221.765C1469.2 219.253 1457.17 205.857 1452.66 195.904C1445.07 197.305 1437.39 198.181 1429.68 198.524C1416.05 199.145 1393.18 195.729 1393.76 184.601C1394.34 173.474 1420.93 176.445 1420.93 176.445Z" fill="white"/>
<path d="M1638.31 179.551C1638.31 179.551 1623.44 166.235 1603.63 168.409C1583.83 170.584 1585.05 186.964 1585.05 186.964C1585.05 186.964 1565.54 173.055 1551.25 175.216C1536.97 177.376 1536.09 181.09 1536.09 181.09C1536.09 181.09 1532.03 169.949 1524.31 171.191C1516.59 172.434 1517.2 177.565 1517.2 177.565C1517.2 177.565 1514.41 167.478 1523.96 166.559C1533.52 165.641 1538.66 173.663 1538.66 173.663C1538.66 173.663 1546.25 168.72 1559.57 168.409C1567.52 168.214 1575.4 170.02 1582.48 173.663C1582.48 173.663 1592.08 161.293 1605.39 160.361C1618.71 159.429 1638.21 179.551 1638.21 179.551" fill="#F2F2F2"/>
<path d="M1548.93 216.863C1548.93 216.863 1536.76 228.706 1523.25 224.196C1510.31 219.888 1509.73 216.093 1509.73 215.729C1509.73 216.255 1509.84 224.655 1487.71 221.657C1469.2 219.145 1457.17 205.749 1452.66 195.796C1445.07 197.197 1437.39 198.072 1429.68 198.416C1416.05 199.037 1393.18 195.621 1393.76 184.493C1393.8 183.546 1394.06 182.621 1394.52 181.792C1396.74 184.351 1399.34 186.555 1402.22 188.328C1422.5 201.009 1453.02 184.101 1453.02 184.101C1453.02 184.101 1457.82 204.061 1478.15 210.881C1498.48 217.7 1508.07 196.228 1508.07 196.228C1508.07 196.228 1512.58 208.909 1528.95 212.852C1545.32 216.795 1557.19 197.633 1557.19 197.633C1557.19 197.633 1565.65 222.17 1597.27 235.134C1628.89 248.098 1651.18 221.319 1651.18 221.319C1651.18 221.319 1680.25 265.586 1717.79 251.488C1739.7 243.264 1741.51 228.693 1739 217.876C1743.55 221.975 1747.03 227.126 1749.12 232.879C1759.56 260.792 1727.67 275.458 1692.11 273.486C1656.54 271.515 1638.37 253.23 1638.37 253.23C1638.37 253.23 1622.95 267.896 1590.77 250.975C1558.58 234.054 1548.93 216.863 1548.93 216.863Z" fill="#CDCDCD"/>
<path d="M1335.12 153.514C1340.62 154.057 1346.15 154.296 1351.68 154.23L1371.16 154.811C1378.31 171.016 1391.26 184.831 1408.2 190.962C1428.27 198.24 1451.99 193.933 1466.08 177.268C1468.86 173.99 1471.18 170.357 1473 166.465C1476.89 169.058 1481.33 171.543 1486.14 171.38C1488.38 171.225 1490.57 170.617 1492.56 169.593C1494.56 168.57 1496.33 167.152 1497.76 165.425C1499.42 163.489 1500.65 161.222 1501.37 158.775C1502.08 156.328 1502.27 153.756 1501.91 151.232C1514.01 158.964 1528.48 162.116 1542.7 160.118C1557.7 158.065 1573.99 150.125 1578.98 134.851C1581.06 128.439 1581.06 121.534 1578.98 115.122C1591.44 107.208 1598.82 92.1642 1596.35 77.4716C1593.77 62.0497 1581.24 49.5986 1565.57 48.0051C1560.78 47.5259 1555.95 48.0456 1551.38 49.5311C1549.96 45.4922 1547.39 41.9547 1543.99 39.3531C1540.59 36.7514 1536.5 35.1989 1532.23 34.8862C1527.95 34.5735 1523.68 35.5144 1519.94 37.593C1516.19 39.6717 1513.14 42.7977 1511.15 46.5872C1509.25 50.2725 1508.4 54.4052 1508.69 58.5385C1504.67 53.9849 1499.42 50.6997 1493.56 49.0855C1487.42 47.5295 1480.98 47.6715 1474.92 49.4961C1468.85 51.3208 1463.4 54.7594 1459.15 59.4434C1456.37 62.4797 1454.09 65.9341 1452.39 69.6795C1451.03 60.2265 1447.99 50.9762 1441.83 43.5758C1437.55 38.6325 1432.13 34.8041 1426.04 32.4213C1419.44 29.6147 1412.41 27.9742 1405.25 27.5731C1399.11 27.4064 1392.99 28.5078 1387.29 30.8081C1381.59 33.1084 1376.43 36.5582 1372.12 40.9424C1363.13 50.2511 1358.05 62.6466 1357.93 75.5809C1357.64 88.0724 1361.45 101.739 1370.24 110.962C1366.93 109.7 1363.36 109.3 1359.86 109.801C1355.35 110.536 1351.23 112.767 1348.15 116.134C1345.73 118.925 1344.13 122.338 1343.55 125.986C1342.96 129.635 1343.41 133.375 1344.84 136.782C1339.96 135.232 1334.71 135.308 1329.88 136.998C1328.89 137.229 1327.97 137.67 1327.17 138.291C1326.37 138.912 1325.71 139.699 1325.25 140.597C1324.78 141.495 1324.51 142.483 1324.47 143.494C1324.42 144.505 1324.59 145.513 1324.97 146.451C1326.55 150.854 1330.73 152.906 1335.12 153.514Z" fill="white"/>
<path d="M1508.7 58.5656C1508.7 58.5656 1507.02 63.8593 1513.73 74.2846C1510.32 74.2029 1506.96 75.1076 1504.05 76.89C1501.14 78.6725 1498.81 81.2567 1497.33 84.3317C1492.11 95.1352 1502.17 110.949 1502.17 110.949C1502.17 110.949 1488.02 107.802 1487.3 89.5579C1486.59 71.3136 1504.06 67.2084 1504.06 67.2084C1504.06 67.2084 1499.56 57.3637 1508.7 58.5656Z" fill="#CDCDCD"/>
<path d="M1677.45 131.219C1677.45 131.219 1672.8 125.034 1677.45 120.712C1682.1 116.391 1695.73 117.62 1695.73 117.62C1695.73 117.62 1690.77 108.95 1704.71 107.708C1718.64 106.465 1736.59 116.999 1736.59 116.999C1736.59 116.999 1741.55 103.076 1758.9 101.212C1776.24 99.3485 1798.22 110.665 1798.22 110.665C1798.22 110.665 1823.61 95.7024 1867.89 100.037C1902.66 103.44 1952.1 127.802 1960.88 140.023C1963.89 144.223 1966.4 149.368 1965.66 154.608C1965.25 157.139 1964.3 159.555 1962.89 161.698C1962.89 161.698 1995.13 159.848 2005.57 187.761C2016 215.675 1984.11 230.34 1948.55 228.369C1912.98 226.397 1894.83 208.112 1894.83 208.112C1894.83 208.112 1879.41 222.764 1847.22 205.857C1815.04 188.949 1805.45 171.731 1805.45 171.731C1805.45 171.731 1793.29 183.575 1779.77 179.064C1766.83 174.757 1766.25 170.962 1766.25 170.597C1766.25 171.137 1766.37 179.524 1744.24 176.526C1725.74 174.014 1713.71 160.617 1709.19 150.665C1701.6 152.066 1693.92 152.941 1686.21 153.285C1672.59 153.906 1649.72 150.503 1650.28 139.362C1650.85 128.221 1677.45 131.219 1677.45 131.219Z" fill="white"/>
<path d="M1894.86 134.338C1894.86 134.338 1879.99 121.036 1860.17 123.197C1840.35 125.358 1841.6 141.766 1841.6 141.766C1841.6 141.766 1822.09 127.843 1807.8 130.003C1793.52 132.164 1792.64 135.878 1792.64 135.878C1792.64 135.878 1788.58 124.75 1780.86 125.979C1773.14 127.208 1773.74 132.353 1773.74 132.353C1773.74 132.353 1770.95 122.265 1780.5 121.347C1790.04 120.429 1795.21 128.45 1795.21 128.45C1795.21 128.45 1802.8 123.508 1816.12 123.197C1824.07 123.002 1831.95 124.808 1839.03 128.45C1839.03 128.45 1848.63 116.08 1861.94 115.149C1875.26 114.217 1894.86 134.338 1894.86 134.338Z" fill="#F2F2F2"/>
<path d="M1805.45 171.637C1805.45 171.637 1793.29 183.48 1779.77 178.97C1766.83 174.662 1766.25 170.867 1766.25 170.503C1766.25 171.043 1766.37 179.429 1744.24 176.431C1725.74 173.919 1713.71 160.523 1709.19 150.57C1701.6 151.971 1693.92 152.846 1686.21 153.19C1672.59 153.811 1649.72 150.408 1650.28 139.267C1650.32 138.32 1650.58 137.396 1651.04 136.566C1653.26 139.122 1655.86 141.326 1658.75 143.102C1679.02 155.796 1709.56 138.876 1709.56 138.876C1709.56 138.876 1714.36 158.835 1734.69 165.668C1755.02 172.501 1764.6 151.002 1764.6 151.002C1764.6 151.002 1769.12 163.683 1785.49 167.64C1801.86 171.596 1813.71 152.407 1813.71 152.407C1813.71 152.407 1822.19 176.944 1853.79 189.908C1885.39 202.872 1907.71 176.093 1907.71 176.093C1907.71 176.093 1936.77 220.36 1974.33 206.262C1996.22 198.038 1998.05 183.467 1995.54 172.65C2000.08 176.749 2003.56 181.901 2005.65 187.653C2016.1 215.566 1984.19 230.232 1948.63 228.261C1913.06 226.289 1894.91 208.004 1894.91 208.004C1894.91 208.004 1879.49 222.656 1847.3 205.749C1815.12 188.841 1805.45 171.637 1805.45 171.637Z" fill="#CDCDCD"/>
<path d="M42.3571 336.74C42.3571 336.74 35.774 332.689 38.5316 326.95C41.2891 321.211 54.4147 317.429 54.4147 317.429C54.4147 317.429 46.6421 311.163 59.1729 304.938C71.7037 298.712 92.2638 301.98 92.2638 301.98C92.2638 301.98 91.8042 287.22 107.268 279.185C122.732 271.15 147.321 273.621 147.321 273.621C147.321 273.621 165.529 250.462 208.339 238.389C241.957 228.936 296.893 233.622 309.518 241.819C313.857 244.628 318.075 248.571 319.291 253.662C319.832 256.168 319.832 258.759 319.291 261.265C319.291 261.265 348.638 247.761 368.549 270.029C388.46 292.298 364.075 317.483 330.24 328.584C296.406 339.684 272.791 329.205 272.791 329.205C272.791 329.205 263.775 348.476 227.642 344.424C191.51 340.373 176.275 327.841 176.275 327.841C176.275 327.841 169.287 343.277 155.026 344.046C141.414 344.735 139.481 341.345 139.332 341.089C139.548 341.575 142.684 349.367 120.975 354.593C102.835 358.982 86.7487 350.879 78.922 343.249C72.3455 347.313 65.4987 350.922 58.4294 354.053C45.9662 359.576 23.3783 364.748 19.8908 354.148C16.4033 343.547 42.3571 336.74 42.3571 336.74Z" fill="white"/>
<path d="M245.945 260.576C245.945 260.576 227.25 253.595 209.583 262.818C191.915 272.041 199.039 286.856 199.039 286.856C199.039 286.856 175.802 280.995 163.326 288.206C150.849 295.417 151.336 299.198 151.336 299.198C151.336 299.198 143.536 290.299 136.764 294.256C129.991 298.213 132.465 302.791 132.465 302.791C132.465 302.791 126.193 294.405 134.79 290.056C143.387 285.708 151.011 291.407 151.011 291.407C151.011 291.407 156.269 284.033 168.584 278.902C175.923 275.826 183.918 274.641 191.834 275.458C191.834 275.458 196.268 260.455 208.326 254.742C220.383 249.03 245.891 260.671 245.891 260.671" fill="#F2F2F2"/>
<path d="M176.289 327.841C176.289 327.841 169.3 343.277 155.039 344.046C141.427 344.735 139.494 341.345 139.346 341.089C139.562 341.575 142.698 349.367 120.989 354.593C102.848 358.982 86.7622 350.879 78.9356 343.249C72.3591 347.313 65.5122 350.922 58.4429 354.053C45.9797 359.576 23.3919 364.748 19.9043 354.148C19.6142 353.278 19.5265 352.355 19.6476 351.447C22.6511 353.023 25.8787 354.129 29.218 354.728C52.7655 359.158 74.9884 332.311 74.9884 332.311C74.9884 332.311 86.7352 349.164 108.147 348.125C129.559 347.085 130.681 323.587 130.681 323.587C130.681 323.587 139.508 333.77 156.188 331.487C172.869 329.205 176.938 307.045 176.938 307.045C176.938 307.045 193.754 326.815 227.926 327.395C262.098 327.976 273.102 294.985 273.102 294.985C273.102 294.985 316.358 325.64 346.096 298.861C363.507 283.223 359.898 269.003 353.612 259.847C359.339 262.005 364.446 265.539 368.481 270.137C388.379 292.338 364.007 317.591 330.173 328.692C296.338 339.792 272.723 329.313 272.723 329.313C272.723 329.313 263.707 348.584 227.575 344.532C191.442 340.481 176.289 327.841 176.289 327.841Z" fill="#CDCDCD"/>
<path d="M1395.5 203.21C1395.5 203.21 1403.71 211.218 1412.87 208.166C1421.62 205.249 1422.03 202.67 1422.04 202.44C1422.04 202.805 1422.04 208.477 1436.91 206.492C1442 205.731 1446.82 203.733 1450.96 200.671C1455.09 197.61 1458.41 193.58 1460.62 188.936C1465.76 189.891 1470.97 190.486 1476.19 190.719C1485.41 191.137 1500.91 188.828 1500.52 181.266C1500.49 180.64 1500.32 180.03 1500.01 179.483C1498.51 181.214 1496.75 182.704 1494.79 183.899C1481.04 192.488 1460.43 181.036 1460.43 181.036C1460.43 181.036 1457.19 194.54 1443.42 199.159C1429.66 203.777 1423.15 189.247 1423.15 189.247C1423.15 189.247 1420.09 197.822 1409.02 200.496C1397.95 203.169 1389.92 190.192 1389.92 190.192C1389.92 190.192 1384.2 206.789 1362.89 215.566C1341.57 224.344 1326.39 206.221 1326.39 206.221C1326.39 206.221 1306.72 236.16 1281.32 226.626C1266.45 221.063 1265.28 211.205 1266.98 203.885C1263.9 206.66 1261.55 210.147 1260.13 214.04C1253.07 232.946 1274.64 242.845 1298.71 241.508C1322.77 240.171 1335.04 227.774 1335.04 227.774C1335.04 227.774 1345.48 237.687 1367.25 226.248C1389.03 214.81 1395.5 203.21 1395.5 203.21Z" fill="#CDCDCD"/>
<path d="M1078.6 212.906C1084.1 213.449 1089.63 213.688 1095.16 213.622L1114.64 214.203C1121.79 230.408 1134.74 244.223 1151.68 250.354C1171.75 257.632 1195.49 253.325 1209.56 236.66C1212.33 233.38 1214.66 229.748 1216.48 225.857C1220.37 228.45 1224.81 230.934 1229.62 230.772C1231.86 230.617 1234.04 230.009 1236.04 228.985C1238.04 227.962 1239.81 226.544 1241.24 224.817C1242.9 222.88 1244.13 220.613 1244.85 218.167C1245.57 215.72 1245.76 213.149 1245.41 210.624C1257.5 218.358 1271.97 221.511 1286.19 219.51C1301.18 217.457 1317.48 209.517 1322.46 194.243C1324.54 187.831 1324.54 180.926 1322.46 174.513C1334.92 166.6 1342.3 151.556 1339.84 136.863C1337.26 121.442 1324.71 108.991 1309.06 107.397C1304.27 106.918 1299.43 107.438 1294.85 108.923C1293.44 104.883 1290.88 101.343 1287.48 98.7387C1284.08 96.1347 1279.99 94.58 1275.72 94.2658C1271.44 93.9516 1267.17 94.8916 1263.43 96.9702C1259.68 99.0489 1256.63 102.175 1254.64 105.966C1252.73 109.652 1251.88 113.791 1252.16 117.93C1248.15 113.374 1242.89 110.089 1237.04 108.477C1230.9 106.92 1224.46 107.061 1218.39 108.886C1212.33 110.711 1206.88 114.15 1202.62 118.835C1199.85 121.872 1197.56 125.326 1195.86 129.071C1194.51 119.618 1191.48 110.368 1185.32 102.968C1181.03 98.0266 1175.61 94.1988 1169.52 91.8132C1162.92 89.0067 1155.89 87.3663 1148.73 86.9652C1142.58 86.7938 1136.47 87.8929 1130.77 90.1935C1125.07 92.4942 1119.91 95.9466 1115.61 100.334C1106.61 109.636 1101.53 122.036 1101.42 134.973C1101.12 147.464 1104.94 161.131 1113.73 170.354C1110.42 169.093 1106.84 168.693 1103.34 169.193C1098.83 169.928 1094.71 172.159 1091.63 175.526C1089.21 178.32 1087.62 181.733 1087.04 185.381C1086.45 189.029 1086.9 192.767 1088.33 196.174C1083.45 194.624 1078.19 194.699 1073.35 196.39C1072.31 196.692 1071.34 197.209 1070.51 197.906C1069.68 198.604 1069.01 199.468 1068.53 200.442C1067.87 202.181 1067.87 204.103 1068.53 205.843C1070.04 210.246 1074.21 212.299 1078.6 212.906Z" fill="white"/>
<path d="M1252.18 117.957C1252.18 117.957 1250.5 123.251 1257.21 133.676C1253.8 133.595 1250.43 134.5 1247.52 136.282C1244.61 138.064 1242.28 140.649 1240.81 143.724C1235.59 154.527 1245.66 170.341 1245.66 170.341C1245.66 170.341 1231.5 167.181 1230.79 148.95C1230.09 130.719 1247.57 126.6 1247.57 126.6C1247.57 126.6 1243.04 116.783 1252.18 117.957Z" fill="#CDCDCD"/>
<path d="M1211.75 207.464C1211.75 207.464 1188.63 237.173 1156.58 227.504C1124.53 217.835 1122.68 192.137 1122.68 192.137C1122.68 192.137 1119.69 204.047 1100.69 205.168C1081.68 206.289 1068.58 200.401 1068.58 200.401C1067.92 202.141 1067.92 204.063 1068.58 205.803C1070.11 210.219 1074.27 212.271 1078.67 212.879C1084.17 213.422 1089.7 213.66 1095.23 213.595L1114.7 214.175C1121.86 230.381 1134.81 244.196 1151.74 250.326C1171.82 257.605 1195.55 253.297 1209.62 236.633C1212.4 233.353 1214.73 229.72 1216.55 225.83C1220.44 228.423 1224.87 230.907 1229.68 230.745C1231.92 230.59 1234.11 229.982 1236.11 228.958C1238.11 227.935 1239.88 226.516 1241.31 224.79C1242.94 222.891 1244.15 220.675 1244.87 218.283C1245.59 215.89 1245.81 213.374 1245.5 210.894C1244.66 207.707 1244.04 205.492 1244.04 205.492C1231.85 219.307 1211.75 207.464 1211.75 207.464Z" fill="#CDCDCD"/>
<path d="M643.131 247.882C634.589 247.829 626.162 249.859 618.583 253.797C618.3 247.855 614.65 242.643 609.121 239.361C619.3 233.959 626.045 224.601 626.045 213.946C626.045 197.214 609.418 183.642 588.926 183.642C583.262 183.622 577.647 184.7 572.394 186.816C564.04 165.979 540.046 150.921 511.727 150.921C476.46 150.921 447.884 174.257 447.884 203.034C447.888 205.753 448.146 208.466 448.654 211.137C442.123 208.151 435.02 206.622 427.837 206.654C406.466 206.654 388.798 219.604 385.933 236.363C380.338 234.299 374.419 233.252 368.455 233.271C359.661 233.223 351.019 235.556 343.447 240.023C337.783 232.73 327.834 227.869 316.479 227.869C298.907 227.869 284.565 239.537 284.565 253.932C284.565 268.328 298.853 279.995 316.479 279.995C320.41 279.992 324.317 279.386 328.064 278.199C333.471 292.23 349.489 302.412 368.455 302.412C383.905 302.412 397.423 295.66 404.803 285.546C408.75 291.271 416.253 295.134 424.863 295.134C428.347 295.212 431.808 294.558 435.021 293.213C438.235 291.868 441.13 289.863 443.517 287.328C445.099 310.596 468.714 329.07 497.588 329.07C521.811 329.07 542.317 316.106 549.252 298.213C555.164 301.016 561.632 302.452 568.176 302.412C580.586 302.412 591.548 297.443 598.294 289.813C601.267 307.868 620.219 321.805 643.158 321.805C668.166 321.805 688.442 305.248 688.442 284.843C688.442 264.438 668.166 247.869 643.158 247.869" fill="white"/>
<path d="M545.264 306.411L546.116 304.223L548.522 305.385C554.057 308.015 560.114 309.368 566.243 309.342C577.423 309.342 587.993 304.912 594.549 297.498L597.82 293.798L598.564 298.322C601.43 315.662 619.759 328.734 641.225 328.734C664.962 328.734 694.39 310.125 684.279 293.623C687.901 299.537 677.709 253.191 615.245 269.977C639.171 263.548 588.52 259.079 588.52 259.079C579.612 263.913 569.217 262.711 569.217 262.711C576.638 256.648 581.086 245.736 581.086 245.736C561.796 263.913 524.677 267.559 524.677 267.559C535.072 269.977 549.914 268.775 549.914 268.775C549.914 268.775 546.94 291.732 518.729 294.217C490.518 296.702 480.137 277.255 480.137 277.255C460.834 290.584 443.017 277.255 443.017 277.255C419.267 285.736 410.359 274.825 410.359 274.825C426.688 274.825 435.596 268.775 435.596 268.775C396.99 274.825 380.661 257.863 380.661 257.863C380.661 265.142 391.056 271.192 391.056 271.192C356.911 285.736 339.094 260.281 339.094 260.281C314.965 279.754 290.215 269.652 284.902 262.711C284.902 276.08 298.217 287.019 314.641 287.019C318.311 287.022 321.959 286.457 325.455 285.344L327.672 284.642L328.388 286.492C333.647 300.226 349.03 309.45 366.657 309.45C380.688 309.45 393.894 303.332 401.099 293.474L403.073 290.773L404.952 293.474C408.629 298.876 415.577 302.144 423.065 302.144C426.21 302.201 429.332 301.603 432.232 300.387C435.133 299.171 437.747 297.364 439.908 295.081L443.599 290.922L443.937 296.04C445.464 318.498 468.268 336.08 495.817 336.08C518.58 336.08 538.492 324.183 545.359 306.479" fill="#CDCDCD"/>
<path d="M983.665 234.675C974.564 234.619 965.587 236.779 957.509 240.968C957.198 234.648 953.305 229.084 947.425 225.6C958.239 219.834 965.471 209.854 965.471 198.497C965.471 180.658 947.763 166.208 925.905 166.208C919.884 166.19 913.917 167.337 908.332 169.584C899.424 147.37 873.849 131.327 843.664 131.327C806.085 131.327 775.617 156.188 775.617 186.87C775.617 189.77 775.893 192.664 776.441 195.513C769.479 192.34 761.911 190.714 754.259 190.746C731.468 190.746 712.638 204.547 709.651 222.467C703.684 220.266 697.371 219.149 691.01 219.172C681.643 219.098 672.431 221.562 664.354 226.302C658.325 218.524 647.727 213.352 635.629 213.352C616.84 213.352 601.605 225.789 601.605 241.13C601.605 256.471 616.84 268.908 635.629 268.908C639.817 268.906 643.98 268.259 647.971 266.991C653.702 281.953 670.802 292.811 691.01 292.811C707.488 292.811 721.898 285.586 729.765 274.823C733.969 280.927 741.931 285.059 751.15 285.059C754.862 285.141 758.549 284.441 761.973 283.005C765.396 281.57 768.479 279.431 771.021 276.727C772.711 301.535 797.88 321.291 828.687 321.291C854.492 321.291 876.35 307.463 883.757 288.395C890.031 291.376 896.897 292.909 903.844 292.879C917.065 292.879 928.757 287.571 935.949 279.442C939.125 298.699 959.307 313.54 983.76 313.54C1010.42 313.54 1032.03 295.903 1032.03 274.148C1032.03 252.393 1010.4 234.742 983.76 234.742" fill="white"/>
<path d="M879.569 297.588L880.462 295.265L883.03 296.508C888.943 299.31 895.41 300.75 901.955 300.721C913.864 300.721 925.137 296.008 932.126 288.095L935.613 284.151L936.397 288.973C939.452 307.46 958.998 321.383 981.87 321.383C1007.18 321.383 1032.25 292.74 1027.69 302.477C1070.69 210.904 967.136 249.729 982.425 229C950.739 271.957 925.651 247.15 925.651 247.15C916.189 252.308 905.077 251.026 905.077 251.026C912.985 244.557 917.729 232.943 917.729 232.943C897.169 252.308 857.603 256.184 857.603 256.184C868.674 258.777 884.504 257.535 884.504 257.535C884.504 257.535 881.34 282.085 851.277 284.665C821.214 287.244 810.13 266.582 810.13 266.582C789.556 280.789 770.564 266.582 770.564 266.582C745.246 275.617 735.756 263.99 735.756 263.99C753.167 263.99 762.656 257.535 762.656 257.535C721.509 263.99 704.112 245.907 704.112 245.907C704.112 253.672 715.183 260.127 715.183 260.127C678.793 275.617 659.761 248.487 659.761 248.487C634.077 269.243 607.664 258.48 602 251.079C602 265.327 616.194 276.913 633.645 276.913C637.54 276.917 641.411 276.316 645.121 275.131L647.5 274.388L648.244 276.359C653.854 290.985 670.25 300.816 689.04 300.816C703.99 300.816 718.062 294.28 725.74 283.787L727.849 280.911L729.849 283.827C733.783 289.526 741.177 293.064 749.166 293.064C752.517 293.128 755.845 292.492 758.936 291.197C762.027 289.902 764.814 287.976 767.117 285.542L771.037 281.113L771.416 286.515C773.038 310.444 797.329 329.175 826.703 329.175C850.967 329.175 872.189 316.508 879.515 297.629" fill="#CDCDCD"/>
<path d="M1182.21 193.946C1173.11 193.887 1164.13 196.047 1156.05 200.239C1155.74 193.906 1151.85 188.355 1145.97 184.858C1156.78 179.105 1164.02 169.125 1164.02 157.768C1164.02 139.929 1146.3 125.466 1124.45 125.466C1118.43 125.454 1112.46 126.605 1106.88 128.855C1097.98 106.641 1072.41 90.5977 1042.22 90.5977C1004.63 90.5977 974.176 115.459 974.176 146.141C974.176 149.041 974.452 151.935 975.001 154.784C968.034 151.611 960.461 149.984 952.805 150.017C930.028 150.017 911.198 163.818 908.197 181.725C902.227 179.535 895.915 178.424 889.556 178.443C880.191 178.37 870.98 180.829 862.9 185.56C856.857 177.795 846.273 172.623 834.161 172.623C815.372 172.623 800.137 185.06 800.137 200.401C800.137 215.742 815.372 228.179 834.161 228.179C838.349 228.179 842.512 227.532 846.503 226.262C852.234 241.224 869.348 252.082 889.556 252.082C906.034 252.082 920.43 244.857 928.297 234.094C932.501 240.198 940.463 244.317 949.682 244.317C953.395 244.399 957.084 243.701 960.509 242.268C963.935 240.835 967.02 238.699 969.567 235.998C971.256 260.806 996.412 280.563 1027.22 280.563C1053.04 280.563 1074.9 266.734 1082.29 247.666C1088.57 250.647 1095.44 252.179 1102.39 252.15C1115.61 252.15 1127.3 246.842 1134.48 238.645C1137.67 257.902 1157.85 272.744 1182.31 272.744C1208.96 272.744 1230.56 255.107 1230.56 233.338C1230.56 211.569 1208.94 193.946 1182.31 193.946" fill="white"/>
<path d="M1077.84 264.602L1078.75 262.279L1081.32 263.521C1087.23 266.326 1093.7 267.765 1100.24 267.735C1112.15 267.735 1123.44 263.008 1130.43 255.108L1133.9 251.165L1134.7 255.986C1137.74 274.46 1157.28 288.396 1180.16 288.396C1205.46 288.396 1230.55 259.754 1225.99 269.49C1268.99 177.918 1161.71 240.229 1177 219.5C1145.3 262.471 1123.95 214.163 1123.95 214.163C1114.49 219.322 1103.39 218.039 1103.39 218.039C1111.3 211.571 1116.04 199.943 1116.04 199.943C1095.47 219.322 1055.92 223.198 1055.92 223.198C1066.99 225.79 1082.82 224.548 1082.82 224.548C1082.82 224.548 1079.65 249.099 1049.58 251.678C1019.5 254.258 1008.44 233.596 1008.44 233.596C987.869 247.803 968.877 233.596 968.877 233.596C943.559 242.63 934.056 231.003 934.056 231.003C951.467 231.003 960.969 224.548 960.969 224.548C919.822 231.003 902.411 212.921 902.411 212.921C902.411 220.672 913.496 227.141 913.496 227.141C877.093 242.63 858.074 215.5 858.074 215.5C832.39 236.256 805.991 225.494 800.313 218.093C800.313 232.34 814.52 243.927 831.971 243.927C835.866 243.931 839.738 243.329 843.448 242.144L845.813 241.388L846.57 243.373C852.18 257.998 868.563 267.829 887.353 267.829C902.317 267.829 916.389 261.293 924.067 250.787L926.162 247.911L928.176 250.828C932.096 256.526 939.503 260.078 947.492 260.078C950.844 260.14 954.171 259.503 957.262 258.208C960.353 256.913 963.14 254.988 965.444 252.556L969.364 248.127L969.729 253.528C971.365 277.444 995.656 296.188 1025.03 296.188C1049.29 296.188 1070.52 283.521 1077.83 264.642" fill="#CDCDCD"/>
<path d="M1930.34 233.797C1918.86 233.725 1907.54 236.451 1897.36 241.738C1896.97 233.757 1892.07 226.762 1884.66 222.359C1898.34 215.094 1907.4 202.521 1907.4 188.207C1907.4 165.722 1885.07 147.505 1857.53 147.505C1849.92 147.479 1842.38 148.928 1835.33 151.772C1824.11 123.778 1791.87 103.548 1753.83 103.548C1706.52 103.548 1668.07 134.892 1668.07 173.555C1668.07 177.212 1668.42 180.861 1669.11 184.453C1660.34 180.45 1650.79 178.399 1641.15 178.443C1612.43 178.443 1588.7 195.823 1584.86 218.416C1577.34 215.647 1569.39 214.238 1561.38 214.257C1549.57 214.162 1537.96 217.265 1527.77 223.237C1520.16 213.446 1506.82 206.937 1491.56 206.937C1467.89 206.937 1448.68 222.602 1448.68 241.94C1448.68 261.279 1467.89 276.943 1491.56 276.943C1496.84 276.944 1502.09 276.133 1507.12 274.54C1514.34 293.446 1535.9 307.072 1561.38 307.072C1582.14 307.072 1600.3 297.97 1610.2 284.398C1615.5 292.095 1625.59 297.294 1637.16 297.294C1647.49 297.294 1656.6 293.149 1662.21 286.802C1664.34 318.064 1696 342.885 1734.88 342.885C1767.41 342.885 1794.96 325.464 1804.29 301.427C1812.2 305.186 1820.86 307.115 1829.62 307.072C1846.27 307.072 1861.01 300.319 1870.07 290.137C1874.12 314.445 1899.52 333.121 1930.34 333.121C1963.93 333.121 1991.17 310.88 1991.17 283.453C1991.17 256.025 1963.94 233.797 1930.34 233.797" fill="white"/>
<path d="M1800.8 309.732L1801.94 306.801L1805.18 308.368C1812.62 311.894 1820.75 313.708 1828.99 313.675C1843.99 313.675 1858.21 307.733 1867.01 297.767L1871.4 292.797L1872.4 298.861C1876.24 322.156 1900.87 339.725 1929.7 339.725C1961.59 339.725 1993.24 303.614 1987.45 315.849C2041.66 200.428 1911.13 249.354 1930.41 223.223C1890.46 277.375 1858.9 246.1 1858.9 246.1C1846.94 252.609 1832.97 250.988 1832.97 250.988C1842.95 242.886 1848.92 228.193 1848.92 228.193C1823 252.609 1773.14 257.497 1773.14 257.497C1787.09 260.765 1807.05 259.131 1807.05 259.131C1807.05 259.131 1803.06 290.07 1765.14 293.324C1727.23 296.579 1713.29 270.529 1713.29 270.529C1687.36 288.436 1663.44 270.529 1663.44 270.529C1631.52 281.926 1619.56 267.274 1619.56 267.274C1641.5 267.274 1653.46 259.172 1653.46 259.172C1601.61 267.274 1579.67 244.52 1579.67 244.52C1579.67 254.297 1593.63 262.426 1593.63 262.426C1547.77 281.967 1523.83 247.774 1523.83 247.774C1491.38 273.932 1458.18 260.36 1451.03 251.029C1451.03 268.989 1468.93 283.588 1490.92 283.588C1495.83 283.594 1500.71 282.838 1505.39 281.346L1508.38 280.401L1509.32 282.899C1516.39 301.332 1537.05 313.716 1560.69 313.716C1579.61 313.716 1597.27 305.478 1606.95 292.244L1609.65 288.625L1612.18 292.298C1617.14 299.482 1626.45 303.938 1636.51 303.938C1645.43 303.938 1653.88 300.4 1659.14 294.485L1664.08 288.908L1664.54 295.782C1666.6 325.937 1697.22 349.556 1734.23 349.556C1764.82 349.556 1791.55 333.581 1800.79 309.799" fill="#CDCDCD"/>
<path d="M1116.72 236.89C1132.1 236.795 1147.27 240.448 1160.92 247.531C1161.45 236.836 1168.02 227.437 1177.95 221.549C1159.61 211.812 1147.47 194.959 1147.47 175.769C1147.47 145.628 1177.4 121.198 1214.32 121.198C1224.51 121.162 1234.6 123.102 1244.05 126.911C1259.11 89.3823 1302.33 62.2522 1353.33 62.2522C1416.86 62.2522 1468.3 104.278 1468.3 156.121C1468.31 161.019 1467.86 165.907 1466.94 170.719C1478.71 165.337 1491.5 162.573 1504.44 162.616C1542.94 162.616 1574.73 185.925 1579.9 216.201C1589.98 212.492 1600.65 210.608 1611.39 210.637C1627.22 210.512 1642.79 214.675 1656.43 222.683C1666.63 209.557 1684.52 200.806 1704.98 200.806C1736.73 200.806 1762.47 221.819 1762.47 247.747C1762.47 273.675 1736.78 294.675 1704.98 294.675C1697.9 294.676 1690.87 293.588 1684.13 291.447C1674.44 316.714 1645.54 335.066 1611.39 335.066C1583.55 335.066 1559.22 322.912 1545.91 304.681C1538.82 314.985 1525.3 321.967 1509.78 321.967C1495.94 321.967 1483.72 316.403 1476.2 307.895C1473.34 349.759 1430.83 383.074 1378.77 383.074C1335.15 383.074 1298.22 359.711 1285.72 327.49C1275.11 332.529 1263.5 335.118 1251.76 335.066C1229.43 335.066 1209.67 326.099 1197.53 312.365C1192.12 344.897 1158.04 369.988 1116.73 369.988C1071.69 369.988 1035.18 340.184 1035.18 303.412C1035.18 266.64 1071.68 236.836 1116.73 236.836" fill="white"/>
<path d="M1293.07 338.685L1286.39 339.907L1282.05 342C1272.07 346.73 1266.32 344.01 1255.27 343.965C1235.16 343.965 1216.07 335.998 1204.3 322.642L1198.42 315.984L1197.07 324.087C1191.92 355.322 1158.89 378.874 1120.25 378.874C1077.49 378.874 1035.09 330.461 1042.82 346.855C970.148 192.123 1145.13 257.727 1119.3 222.616C1172.84 295.215 1215.17 253.297 1215.17 253.297C1231.21 262.021 1249.93 259.834 1249.93 259.834C1236.57 248.922 1228.54 229.273 1228.54 229.273C1263.3 262.021 1330.15 268.571 1330.15 268.571C1311.43 272.933 1284.69 270.758 1284.69 270.758C1284.69 270.758 1290.09 312.23 1340.84 316.592C1391.58 320.954 1410.36 286.032 1410.36 286.032C1445.11 310.042 1477.2 286.032 1477.2 286.032C1519.99 301.305 1536.03 281.67 1536.03 281.67C1506.62 281.67 1490.57 270.758 1490.57 270.758C1560.09 281.67 1589.51 251.11 1589.51 251.11C1589.51 264.209 1570.79 275.12 1570.79 275.12C1632.29 301.305 1664.37 255.472 1664.37 255.472C1707.81 290.583 1752.38 272.352 1761.97 259.834C1761.97 283.912 1737.97 303.493 1708.49 303.493C1701.91 303.496 1695.37 302.48 1689.11 300.481L1685.05 299.212L1683.78 302.561C1674.32 327.274 1646.61 343.871 1614.84 343.871C1589.56 343.871 1565.79 332.838 1552.81 315.093L1549.25 310.232L1545.87 315.161C1539.24 324.789 1526.73 330.785 1513.24 330.785C1501.28 330.785 1489.94 326.032 1482.9 318.078L1476.27 310.583L1475.65 319.806C1472.95 360.238 1431.85 391.905 1382.22 391.905C1341.22 391.905 1300.22 375.626 1287.85 343.742" fill="#CDCDCD"/>
<path d="M-66.2836 236.89C-50.9027 236.795 -35.7305 240.448 -22.0811 247.531C-21.5539 236.836 -14.9844 227.437 -5.04902 221.549C-23.3923 211.812 -35.5312 194.959 -35.5312 175.769C-35.5312 145.628 -5.6032 121.198 31.3132 121.198C41.5027 121.162 51.6024 123.102 61.0519 126.911C76.0969 89.3823 119.326 62.2522 170.328 62.2522C233.86 62.2522 285.227 104.278 285.227 156.121C285.236 161.018 284.784 165.906 283.875 170.719C295.64 165.337 308.434 162.573 321.373 162.616C359.871 162.616 391.664 185.925 396.828 216.201C406.908 212.493 417.569 210.609 428.31 210.637C444.142 210.51 459.712 214.673 473.364 222.683C483.557 209.557 501.454 200.806 521.906 200.806C553.658 200.806 579.396 221.819 579.396 247.747C579.396 273.675 553.713 294.675 521.906 294.675C514.833 294.676 507.802 293.588 501.062 291.447C491.37 316.714 462.469 335.066 428.31 335.066C400.478 335.066 376.146 322.912 362.845 304.681C355.735 314.985 342.231 321.967 326.712 321.967C312.87 321.967 300.65 316.403 293.135 307.895C290.269 349.759 247.743 383.074 195.7 383.074C152.079 383.074 115.149 359.711 102.645 327.49C92.039 332.529 80.4336 335.118 68.6893 335.066C46.3583 335.066 26.5956 326.099 14.4569 312.365C9.04986 344.897 -25.0279 369.988 -66.3376 369.988C-111.378 369.988 -147.889 340.184 -147.889 303.412C-147.889 266.64 -111.392 236.836 -66.3376 236.836" fill="white"/>
<path d="M110.067 338.685L108.539 334.755L104.2 336.848C94.2244 341.578 83.3132 344.01 72.2713 343.965C52.1572 343.965 33.0705 335.998 21.2967 322.642L15.403 315.984L14.0513 324.087C8.9011 355.322 -24.1222 378.874 -62.7689 378.874C-105.525 378.874 -147.93 330.461 -140.198 346.855C-212.868 192.123 -37.8832 257.727 -63.7152 222.616C-10.1722 295.215 32.1513 253.297 32.1513 253.297C48.1966 262.021 66.9184 259.834 66.9184 259.834C53.5496 248.922 45.5202 229.273 45.5202 229.273C80.2873 262.021 147.132 268.571 147.132 268.571C128.41 272.933 101.672 270.758 101.672 270.758C101.672 270.758 107.079 312.23 157.824 316.592C208.569 320.954 227.345 286.032 227.345 286.032C262.098 310.042 294.189 286.032 294.189 286.032C336.972 301.305 353.017 281.67 353.017 281.67C323.603 281.67 307.558 270.758 307.558 270.758C377.079 281.67 406.493 251.11 406.493 251.11C406.493 264.209 387.771 275.12 387.771 275.12C449.276 301.305 481.353 255.472 481.353 255.472C524.798 290.583 569.366 272.352 578.95 259.834C578.95 283.912 554.956 303.493 525.474 303.493C518.896 303.496 512.357 302.48 506.09 300.481L502.035 299.212L500.764 302.561C491.302 327.274 463.591 343.871 431.825 343.871C406.547 343.871 382.77 332.838 369.793 315.093L366.238 310.232L362.858 315.161C356.221 324.789 343.717 330.785 330.213 330.785C318.264 330.785 306.923 326.032 299.88 318.078L293.256 310.583L292.635 319.806C289.931 360.238 248.838 391.905 199.201 391.905C158.202 391.905 122.354 370.474 109.985 338.591" fill="#CDCDCD"/>
<path d="M1138.17 110.854C1138.17 110.854 1133.52 104.669 1138.17 100.334C1142.82 95.9994 1156.43 97.2419 1156.43 97.2419C1156.43 97.2419 1151.49 88.5855 1165.42 87.3431C1179.36 86.1007 1197.31 96.6206 1197.31 96.6206C1197.31 96.6206 1202.27 82.7112 1219.6 80.8476C1236.93 78.984 1258.94 90.3006 1258.94 90.3006C1258.94 90.3006 1284.32 75.3379 1328.61 79.6593C1363.37 83.0623 1412.82 107.424 1421.59 119.659C1424.61 123.859 1427.12 129.004 1426.37 134.244C1425.98 136.767 1425.06 139.18 1423.66 141.32C1423.66 141.32 1455.9 139.47 1466.34 167.397C1476.77 195.323 1444.88 209.976 1409.32 208.004C1373.76 206.032 1355.6 187.748 1355.6 187.748C1355.6 187.748 1340.16 202.413 1307.99 185.492C1275.82 168.572 1266.21 151.381 1266.21 151.381C1266.21 151.381 1254.04 163.224 1240.53 158.7C1227.6 154.406 1227.01 150.597 1227.01 150.233C1227.01 150.773 1227.13 159.173 1204.99 156.161C1186.5 153.663 1174.47 140.253 1169.95 130.3C1162.36 131.723 1154.68 132.625 1146.97 133.001C1133.35 133.609 1110.47 130.206 1111.05 119.078C1111.64 107.951 1138.17 110.854 1138.17 110.854Z" fill="white"/>
<path d="M1355.51 113.947C1355.51 113.947 1340.64 100.645 1320.82 102.819C1301 104.993 1302.25 121.374 1302.25 121.374C1302.25 121.374 1282.73 107.451 1268.45 109.625C1254.18 111.799 1253.27 115.5 1253.27 115.5C1253.27 115.5 1249.22 104.358 1241.51 105.601C1233.81 106.843 1234.39 111.975 1234.39 111.975C1234.39 111.975 1231.6 101.887 1241.15 100.955C1250.69 100.024 1255.85 108.072 1255.85 108.072C1255.85 108.072 1263.44 103.116 1276.75 102.819C1284.71 102.624 1292.59 104.43 1299.67 108.072C1299.67 108.072 1309.28 95.7022 1322.58 94.7704C1335.88 93.8386 1355.41 113.947 1355.41 113.947" fill="#F2F2F2"/>
<path d="M1266.16 151.273C1266.16 151.273 1253.99 163.116 1240.47 158.592C1227.55 154.297 1226.95 150.489 1226.95 150.125C1226.95 150.665 1227.08 159.064 1204.93 156.053C1186.44 153.555 1174.41 140.145 1169.9 130.192C1162.31 131.615 1154.63 132.517 1146.92 132.893C1133.29 133.501 1110.42 130.098 1111 118.97C1111.04 118.023 1111.3 117.098 1111.76 116.269C1113.98 118.824 1116.58 121.028 1119.46 122.805C1139.74 135.486 1170.28 118.565 1170.28 118.565C1170.28 118.565 1175.06 138.538 1195.39 145.358C1215.72 152.177 1225.32 130.692 1225.32 130.692C1225.32 130.692 1229.83 143.386 1246.2 147.329C1262.57 151.272 1274.43 132.11 1274.43 132.11C1274.43 132.11 1282.89 156.634 1314.51 169.611C1346.12 182.589 1368.42 155.796 1368.42 155.796C1368.42 155.796 1397.49 200.063 1435.03 185.965C1456.94 177.727 1458.75 163.17 1456.25 152.353C1460.8 156.45 1464.27 161.603 1466.36 167.356C1476.81 195.269 1444.91 209.935 1409.35 207.964C1373.78 205.992 1355.63 187.707 1355.63 187.707C1355.63 187.707 1340.19 202.373 1308.02 185.452C1275.85 168.531 1266.16 151.273 1266.16 151.273Z" fill="#CDCDCD"/>
<path d="M2019.49 275.701C2019.49 275.701 1996.39 305.411 1964.35 295.741C1932.31 286.072 1930.45 260.374 1930.45 260.374C1930.45 260.374 1927.46 272.284 1908.47 273.405C1889.48 274.526 1876.38 268.638 1876.38 268.638C1875.7 270.369 1875.67 272.289 1876.3 274.04C1877.82 278.456 1882 280.509 1886.39 281.13C1891.9 281.661 1897.43 281.896 1902.95 281.832L1922.41 282.413C1929.57 298.618 1942.51 312.419 1959.43 318.564C1979.5 325.829 2003.23 321.521 2017.3 304.87C2020.07 301.59 2022.4 297.958 2024.22 294.067C2028.11 296.646 2032.53 299.131 2037.36 298.969C2039.6 298.818 2041.78 298.213 2043.78 297.192C2045.77 296.17 2047.54 294.753 2048.97 293.027C2050.59 291.127 2051.81 288.911 2052.53 286.519C2053.25 284.127 2053.46 281.611 2053.16 279.131C2052.32 275.944 2051.7 273.729 2051.7 273.729C2039.58 287.544 2019.49 275.701 2019.49 275.701Z" fill="#CDCDCD"/>
<path d="M1420.93 176.445C1420.93 176.445 1416.29 170.26 1420.93 165.938C1425.57 161.617 1439.21 162.832 1439.21 162.832C1439.21 162.832 1434.25 154.176 1448.18 152.934C1462.12 151.691 1480.08 162.225 1480.08 162.225C1480.08 162.225 1485.03 148.302 1502.37 146.438C1519.72 144.574 1541.7 155.891 1541.7 155.891C1541.7 155.891 1567.1 140.928 1611.37 145.263C1646.13 148.666 1695.58 173.028 1704.37 185.249C1707.37 189.449 1709.9 194.594 1709.14 199.834C1708.73 202.363 1707.78 204.775 1706.37 206.91C1706.37 206.91 1738.61 205.074 1749.06 232.987C1759.51 260.901 1727.6 275.566 1692.04 273.594C1656.47 271.623 1638.31 253.338 1638.31 253.338C1638.31 253.338 1622.88 268.004 1590.7 251.083C1558.51 234.162 1548.93 216.971 1548.93 216.971C1548.93 216.971 1536.76 228.814 1523.25 224.304C1510.31 219.996 1509.73 216.201 1509.73 215.837C1509.73 216.363 1509.84 224.763 1487.71 221.765C1469.2 219.253 1457.17 205.857 1452.66 195.904C1445.07 197.305 1437.39 198.181 1429.68 198.524C1416.05 199.145 1393.18 195.729 1393.76 184.601C1394.34 173.474 1420.93 176.445 1420.93 176.445Z" fill="white"/>
<path d="M1638.31 179.551C1638.31 179.551 1623.44 166.235 1603.63 168.409C1583.83 170.584 1585.05 186.964 1585.05 186.964C1585.05 186.964 1565.54 173.055 1551.25 175.216C1536.97 177.376 1536.09 181.09 1536.09 181.09C1536.09 181.09 1532.03 169.949 1524.31 171.191C1516.59 172.434 1517.2 177.565 1517.2 177.565C1517.2 177.565 1514.41 167.478 1523.96 166.559C1533.52 165.641 1538.66 173.663 1538.66 173.663C1538.66 173.663 1546.25 168.72 1559.57 168.409C1567.52 168.214 1575.4 170.02 1582.48 173.663C1582.48 173.663 1592.08 161.293 1605.39 160.361C1618.71 159.429 1638.21 179.551 1638.21 179.551" fill="#F2F2F2"/>
<path d="M1548.93 216.863C1548.93 216.863 1536.76 228.706 1523.25 224.196C1510.31 219.888 1509.73 216.093 1509.73 215.729C1509.73 216.255 1509.84 224.655 1487.71 221.657C1469.2 219.145 1457.17 205.749 1452.66 195.796C1445.07 197.197 1437.39 198.072 1429.68 198.416C1416.05 199.037 1393.18 195.621 1393.76 184.493C1393.8 183.546 1394.06 182.621 1394.52 181.792C1396.74 184.351 1399.34 186.555 1402.22 188.328C1422.5 201.009 1453.02 184.101 1453.02 184.101C1453.02 184.101 1457.82 204.061 1478.15 210.881C1498.48 217.7 1508.07 196.228 1508.07 196.228C1508.07 196.228 1512.58 208.909 1528.95 212.852C1545.32 216.795 1557.19 197.633 1557.19 197.633C1557.19 197.633 1565.65 222.17 1597.27 235.134C1628.89 248.098 1651.18 221.319 1651.18 221.319C1651.18 221.319 1680.25 265.586 1717.79 251.488C1739.7 243.264 1741.51 228.693 1739 217.876C1743.55 221.975 1747.03 227.126 1749.12 232.879C1759.56 260.792 1727.67 275.458 1692.11 273.486C1656.54 271.515 1638.37 253.23 1638.37 253.23C1638.37 253.23 1622.95 267.896 1590.77 250.975C1558.58 234.054 1548.93 216.863 1548.93 216.863Z" fill="#CDCDCD"/>
<path d="M1335.12 153.514C1340.62 154.057 1346.15 154.296 1351.68 154.23L1371.16 154.811C1378.31 171.016 1391.26 184.831 1408.2 190.962C1428.27 198.24 1451.99 193.933 1466.08 177.268C1468.86 173.99 1471.18 170.357 1473 166.465C1476.89 169.058 1481.33 171.543 1486.14 171.38C1488.38 171.225 1490.57 170.617 1492.56 169.593C1494.56 168.57 1496.33 167.152 1497.76 165.425C1499.42 163.489 1500.65 161.222 1501.37 158.775C1502.08 156.328 1502.27 153.756 1501.91 151.232C1514.01 158.964 1528.48 162.116 1542.7 160.118C1557.7 158.065 1573.99 150.125 1578.98 134.851C1581.06 128.439 1581.06 121.534 1578.98 115.122C1591.44 107.208 1598.82 92.1642 1596.35 77.4716C1593.77 62.0497 1581.24 49.5986 1565.57 48.0051C1560.78 47.5259 1555.95 48.0456 1551.38 49.5311C1549.96 45.4922 1547.39 41.9547 1543.99 39.3531C1540.59 36.7514 1536.5 35.1989 1532.23 34.8862C1527.95 34.5735 1523.68 35.5144 1519.94 37.593C1516.19 39.6717 1513.14 42.7977 1511.15 46.5872C1509.25 50.2725 1508.4 54.4052 1508.69 58.5385C1504.67 53.9849 1499.42 50.6997 1493.56 49.0855C1487.42 47.5295 1480.98 47.6715 1474.92 49.4961C1468.85 51.3208 1463.4 54.7594 1459.15 59.4434C1456.37 62.4797 1454.09 65.9341 1452.39 69.6795C1451.03 60.2265 1447.99 50.9762 1441.83 43.5758C1437.55 38.6325 1432.13 34.8041 1426.04 32.4213C1419.44 29.6147 1412.41 27.9742 1405.25 27.5731C1399.11 27.4064 1392.99 28.5078 1387.29 30.8081C1381.59 33.1084 1376.43 36.5582 1372.12 40.9424C1363.13 50.2511 1358.05 62.6466 1357.93 75.5809C1357.64 88.0724 1361.45 101.739 1370.24 110.962C1366.93 109.7 1363.36 109.3 1359.86 109.801C1355.35 110.536 1351.23 112.767 1348.15 116.134C1345.73 118.925 1344.13 122.338 1343.55 125.986C1342.96 129.635 1343.41 133.375 1344.84 136.782C1339.96 135.232 1334.71 135.308 1329.88 136.998C1328.89 137.229 1327.97 137.67 1327.17 138.291C1326.37 138.912 1325.71 139.699 1325.25 140.597C1324.78 141.495 1324.51 142.483 1324.47 143.494C1324.42 144.505 1324.59 145.513 1324.97 146.451C1326.55 150.854 1330.73 152.906 1335.12 153.514Z" fill="white"/>
<path d="M1508.7 58.5656C1508.7 58.5656 1507.02 63.8593 1513.73 74.2846C1510.32 74.2029 1506.96 75.1076 1504.05 76.89C1501.14 78.6725 1498.81 81.2567 1497.33 84.3317C1492.11 95.1352 1502.17 110.949 1502.17 110.949C1502.17 110.949 1488.02 107.802 1487.3 89.5579C1486.59 71.3136 1504.06 67.2084 1504.06 67.2084C1504.06 67.2084 1499.56 57.3637 1508.7 58.5656Z" fill="#CDCDCD"/>
<path d="M1677.45 131.219C1677.45 131.219 1672.8 125.034 1677.45 120.712C1682.1 116.391 1695.73 117.62 1695.73 117.62C1695.73 117.62 1690.77 108.95 1704.71 107.708C1718.64 106.465 1736.59 116.999 1736.59 116.999C1736.59 116.999 1741.55 103.076 1758.9 101.212C1776.24 99.3485 1798.22 110.665 1798.22 110.665C1798.22 110.665 1823.61 95.7024 1867.89 100.037C1902.66 103.44 1952.1 127.802 1960.88 140.023C1963.89 144.223 1966.4 149.368 1965.66 154.608C1965.25 157.139 1964.3 159.555 1962.89 161.698C1962.89 161.698 1995.13 159.848 2005.57 187.761C2016 215.675 1984.11 230.34 1948.55 228.369C1912.98 226.397 1894.83 208.112 1894.83 208.112C1894.83 208.112 1879.41 222.764 1847.22 205.857C1815.04 188.949 1805.45 171.731 1805.45 171.731C1805.45 171.731 1793.29 183.575 1779.77 179.064C1766.83 174.757 1766.25 170.962 1766.25 170.597C1766.25 171.137 1766.37 179.524 1744.24 176.526C1725.74 174.014 1713.71 160.617 1709.19 150.665C1701.6 152.066 1693.92 152.941 1686.21 153.285C1672.59 153.906 1649.72 150.503 1650.28 139.362C1650.85 128.221 1677.45 131.219 1677.45 131.219Z" fill="white"/>
<path d="M1894.86 134.338C1894.86 134.338 1879.99 121.036 1860.17 123.197C1840.35 125.358 1841.6 141.766 1841.6 141.766C1841.6 141.766 1822.09 127.843 1807.8 130.003C1793.52 132.164 1792.64 135.878 1792.64 135.878C1792.64 135.878 1788.58 124.75 1780.86 125.979C1773.14 127.208 1773.74 132.353 1773.74 132.353C1773.74 132.353 1770.95 122.265 1780.5 121.347C1790.04 120.429 1795.21 128.45 1795.21 128.45C1795.21 128.45 1802.8 123.508 1816.12 123.197C1824.07 123.002 1831.95 124.808 1839.03 128.45C1839.03 128.45 1848.63 116.08 1861.94 115.149C1875.26 114.217 1894.86 134.338 1894.86 134.338Z" fill="#F2F2F2"/>
<path d="M1805.45 171.637C1805.45 171.637 1793.29 183.48 1779.77 178.97C1766.83 174.662 1766.25 170.867 1766.25 170.503C1766.25 171.043 1766.37 179.429 1744.24 176.431C1725.74 173.919 1713.71 160.523 1709.19 150.57C1701.6 151.971 1693.92 152.846 1686.21 153.19C1672.59 153.811 1649.72 150.408 1650.28 139.267C1650.32 138.32 1650.58 137.396 1651.04 136.566C1653.26 139.122 1655.86 141.326 1658.75 143.102C1679.02 155.796 1709.56 138.876 1709.56 138.876C1709.56 138.876 1714.36 158.835 1734.69 165.668C1755.02 172.501 1764.6 151.002 1764.6 151.002C1764.6 151.002 1769.12 163.683 1785.49 167.64C1801.86 171.596 1813.71 152.407 1813.71 152.407C1813.71 152.407 1822.19 176.944 1853.79 189.908C1885.39 202.872 1907.71 176.093 1907.71 176.093C1907.71 176.093 1936.77 220.36 1974.33 206.262C1996.22 198.038 1998.05 183.467 1995.54 172.65C2000.08 176.749 2003.56 181.901 2005.65 187.653C2016.1 215.566 1984.19 230.232 1948.63 228.261C1913.06 226.289 1894.91 208.004 1894.91 208.004C1894.91 208.004 1879.49 222.656 1847.3 205.749C1815.12 188.841 1805.45 171.637 1805.45 171.637Z" fill="#CDCDCD"/>
<path d="M42.3571 336.74C42.3571 336.74 35.774 332.689 38.5316 326.95C41.2891 321.211 54.4147 317.429 54.4147 317.429C54.4147 317.429 46.6421 311.163 59.1729 304.938C71.7037 298.712 92.2638 301.98 92.2638 301.98C92.2638 301.98 91.8042 287.22 107.268 279.185C122.732 271.15 147.321 273.621 147.321 273.621C147.321 273.621 165.529 250.462 208.339 238.389C241.957 228.936 296.893 233.622 309.518 241.819C313.857 244.628 318.075 248.571 319.291 253.662C319.832 256.168 319.832 258.759 319.291 261.265C319.291 261.265 348.638 247.761 368.549 270.029C388.46 292.298 364.075 317.483 330.24 328.584C296.406 339.684 272.791 329.205 272.791 329.205C272.791 329.205 263.775 348.476 227.642 344.424C191.51 340.373 176.275 327.841 176.275 327.841C176.275 327.841 169.287 343.277 155.026 344.046C141.414 344.735 139.481 341.345 139.332 341.089C139.548 341.575 142.684 349.367 120.975 354.593C102.835 358.982 86.7487 350.879 78.922 343.249C72.3455 347.313 65.4987 350.922 58.4294 354.053C45.9662 359.576 23.3783 364.748 19.8908 354.148C16.4033 343.547 42.3571 336.74 42.3571 336.74Z" fill="white"/>
<path d="M245.945 260.576C245.945 260.576 227.25 253.595 209.583 262.818C191.915 272.041 199.039 286.856 199.039 286.856C199.039 286.856 175.802 280.995 163.326 288.206C150.849 295.417 151.336 299.198 151.336 299.198C151.336 299.198 143.536 290.299 136.764 294.256C129.991 298.213 132.465 302.791 132.465 302.791C132.465 302.791 126.193 294.405 134.79 290.056C143.387 285.708 151.011 291.407 151.011 291.407C151.011 291.407 156.269 284.033 168.584 278.902C175.923 275.826 183.918 274.641 191.834 275.458C191.834 275.458 196.268 260.455 208.326 254.742C220.383 249.03 245.891 260.671 245.891 260.671" fill="#F2F2F2"/>
<path d="M176.289 327.841C176.289 327.841 169.3 343.277 155.039 344.046C141.427 344.735 139.494 341.345 139.346 341.089C139.562 341.575 142.698 349.367 120.989 354.593C102.848 358.982 86.7622 350.879 78.9356 343.249C72.3591 347.313 65.5122 350.922 58.4429 354.053C45.9797 359.576 23.3919 364.748 19.9043 354.148C19.6142 353.278 19.5265 352.355 19.6476 351.447C22.6511 353.023 25.8787 354.129 29.218 354.728C52.7655 359.158 74.9884 332.311 74.9884 332.311C74.9884 332.311 86.7352 349.164 108.147 348.125C129.559 347.085 130.681 323.587 130.681 323.587C130.681 323.587 139.508 333.77 156.188 331.487C172.869 329.205 176.938 307.045 176.938 307.045C176.938 307.045 193.754 326.815 227.926 327.395C262.098 327.976 273.102 294.985 273.102 294.985C273.102 294.985 316.358 325.64 346.096 298.861C363.507 283.223 359.898 269.003 353.612 259.847C359.339 262.005 364.446 265.539 368.481 270.137C388.379 292.338 364.007 317.591 330.173 328.692C296.338 339.792 272.723 329.313 272.723 329.313C272.723 329.313 263.707 348.584 227.575 344.532C191.442 340.481 176.289 327.841 176.289 327.841Z" fill="#CDCDCD"/>
<path d="M502.9 240.914C496.777 241.765 490.41 241.522 484.246 241.711L462.307 242.359C454.196 260.671 439.651 276.12 420.578 283.101C397.963 291.298 371.226 286.437 355.369 267.666C352.243 263.977 349.621 259.89 347.57 255.512C343.19 258.429 338.189 261.224 332.768 261.035C330.239 260.862 327.772 260.174 325.52 259.013C323.267 257.852 321.276 256.242 319.67 254.283C317.8 252.102 316.416 249.548 315.61 246.791C314.804 244.035 314.593 241.138 314.993 238.294C301.36 247.005 285.059 250.559 269.033 248.314C252.136 245.992 233.779 237.052 228.169 219.847C225.817 212.624 225.817 204.842 228.169 197.619C214.125 188.706 205.811 171.785 208.596 155.189C211.502 137.822 225.614 123.805 243.268 122.009C248.665 121.463 254.116 122.048 259.273 123.724C260.868 119.175 263.758 115.191 267.588 112.261C271.418 109.331 276.021 107.582 280.832 107.229C285.643 106.876 290.452 107.935 294.67 110.275C298.887 112.615 302.328 116.135 304.571 120.402C306.719 124.563 307.682 129.235 307.355 133.906C311.87 128.764 317.79 125.051 324.387 123.224C331.302 121.474 338.563 121.636 345.393 123.694C352.222 125.752 358.363 129.627 363.156 134.905C366.28 138.323 368.84 142.216 370.739 146.438C372.28 135.796 375.673 125.358 382.621 117.012C387.452 111.456 393.555 107.148 400.41 104.453C407.848 101.316 415.774 99.4881 423.836 99.0513C437.732 98.4166 451.385 104.359 461.158 114.109C471.458 124.399 476.811 138.7 477.149 153.136C477.473 167.208 473.094 182.616 463.267 193.001C466.99 191.561 471.019 191.096 474.973 191.65C480.045 192.486 484.69 194.996 488.166 198.78C490.893 201.928 492.686 205.774 493.343 209.885C494 213.996 493.494 218.209 491.883 222.048C497.384 220.298 503.305 220.383 508.753 222.292C509.919 222.626 511.002 223.2 511.933 223.977C512.864 224.754 513.622 225.716 514.16 226.802C514.937 228.762 514.966 230.939 514.241 232.919C512.552 237.916 507.847 240.225 502.9 240.914Z" fill="white"/>
<path d="M307.355 133.933C307.355 133.933 309.248 139.902 301.691 151.651C305.533 151.56 309.319 152.58 312.595 154.587C315.871 156.595 318.496 159.505 320.156 162.967C326.036 175.121 314.749 192.947 314.749 192.947C314.749 192.947 330.713 189.395 331.552 168.842C332.39 148.288 312.627 143.683 312.627 143.683C312.627 143.683 317.655 132.582 307.355 133.933Z" fill="#CDCDCD"/>
<path d="M278.063 130.503C288.146 130.444 298.092 132.835 307.044 137.471C307.396 130.462 311.694 124.304 318.21 120.442C306.193 114.055 298.231 103.008 298.231 90.4221C298.231 70.6518 317.845 54.6358 342.055 54.6358C348.743 54.6104 355.373 55.8855 361.574 58.39C371.442 33.7717 399.788 16 433.217 16C474.851 16 508.604 43.5487 508.604 77.539C508.6 80.7523 508.292 83.9581 507.685 87.1136C515.403 83.5989 523.792 81.7975 532.274 81.8334C557.511 81.8334 578.369 97.1203 581.748 116.945C588.362 114.514 595.356 113.279 602.403 113.298C612.78 113.218 622.986 115.943 631.939 121.185C638.616 112.583 650.363 106.857 663.759 106.857C684.576 106.857 701.459 120.631 701.459 137.633C701.459 154.635 684.576 168.396 663.759 168.396C659.123 168.395 654.514 167.684 650.093 166.289C643.739 182.859 624.788 194.878 602.403 194.878C584.141 194.878 568.19 186.883 559.471 174.959C554.808 181.711 545.953 186.289 535.775 186.289C531.662 186.378 527.577 185.604 523.784 184.015C519.99 182.426 516.574 180.058 513.755 177.066C511.876 204.547 484.016 226.37 449.871 226.37C421.268 226.37 397.058 211.043 388.853 189.908C381.898 193.21 374.289 194.904 366.589 194.864C351.95 194.864 338.986 188.99 331.024 180.01C327.51 201.346 305.138 217.822 278.049 217.822C248.513 217.822 224.574 198.281 224.574 174.162C224.574 150.044 248.513 130.516 278.049 130.516" fill="white"/>
<path d="M393.691 197.255L392.691 194.675L389.853 196.026C383.31 199.124 376.154 200.716 368.914 200.685C355.721 200.685 343.23 195.459 335.485 186.708L331.632 182.332L330.754 187.734C327.374 208.22 298.845 217 273.5 217C202.619 217 206.5 102.5 307 137C342.145 184.603 342.622 141.36 342.622 141.36C353.139 147.073 365.413 145.655 365.413 145.655C356.64 138.497 351.382 125.614 351.382 125.614C374.172 147.073 418.01 151.381 418.01 151.381C405.736 154.243 388.271 152.812 388.271 152.812C388.271 152.812 391.772 179.996 425.093 182.859C458.413 185.722 470.674 162.832 470.674 162.832C493.465 178.565 514.512 162.832 514.512 162.832C542.561 172.839 553.077 159.956 553.077 159.956C533.788 159.956 523.339 152.812 523.339 152.812C568.92 159.956 588.223 139.929 588.223 139.929C588.223 148.518 575.949 155.675 575.949 155.675C616.272 172.839 637.319 142.792 637.319 142.792C665.8 165.749 695.025 153.852 701.311 145.655C701.311 161.441 685.576 174.27 666.246 174.27C661.93 174.273 657.639 173.608 653.526 172.299L650.904 171.475L650.065 173.663C643.847 189.868 625.734 200.752 604.876 200.752C588.304 200.752 572.718 193.527 564.202 181.846L561.877 178.659L559.66 181.887C555.308 188.207 547.103 192.123 538.249 192.123C534.536 192.194 530.85 191.489 527.426 190.054C524.002 188.619 520.915 186.486 518.364 183.791L514.011 178.889L513.606 184.925C511.808 211.434 484.894 232.19 452.344 232.19C425.471 232.19 401.951 218.146 393.84 197.241" fill="#CDCDCD"/>
<path d="M1395.5 203.21C1395.5 203.21 1403.71 211.218 1412.87 208.166C1421.62 205.249 1422.03 202.67 1422.04 202.44C1422.04 202.805 1422.04 208.477 1436.91 206.492C1442 205.731 1446.82 203.733 1450.96 200.671C1455.09 197.61 1458.41 193.58 1460.62 188.936C1465.76 189.891 1470.97 190.486 1476.19 190.719C1485.41 191.137 1500.91 188.828 1500.52 181.266C1500.49 180.64 1500.32 180.03 1500.01 179.483C1498.51 181.214 1496.75 182.704 1494.79 183.899C1481.04 192.488 1460.43 181.036 1460.43 181.036C1460.43 181.036 1457.19 194.54 1443.42 199.159C1429.66 203.777 1423.15 189.247 1423.15 189.247C1423.15 189.247 1420.09 197.822 1409.02 200.496C1397.95 203.169 1389.92 190.192 1389.92 190.192C1389.92 190.192 1384.2 206.789 1362.89 215.566C1341.57 224.344 1326.39 206.221 1326.39 206.221C1326.39 206.221 1306.72 236.16 1281.32 226.626C1266.45 221.063 1265.28 211.205 1266.98 203.885C1263.9 206.66 1261.55 210.147 1260.13 214.04C1253.07 232.946 1274.64 242.845 1298.71 241.508C1322.77 240.171 1335.04 227.774 1335.04 227.774C1335.04 227.774 1345.48 237.687 1367.25 226.248C1389.03 214.81 1395.5 203.21 1395.5 203.21Z" fill="#CDCDCD"/>
<path d="M568.514 191.164C574.638 192.015 581.005 191.785 587.169 191.961L609.108 192.623C617.218 210.934 631.749 226.383 650.836 233.351C673.451 241.549 700.175 236.687 716.045 217.93C719.165 214.236 721.787 210.15 723.844 205.776C728.224 208.679 733.212 211.475 738.646 211.299C741.174 211.122 743.64 210.432 745.892 209.271C748.144 208.11 750.136 206.503 751.745 204.547C753.613 202.367 754.995 199.815 755.802 197.061C756.608 194.307 756.819 191.413 756.422 188.571C770.056 197.279 786.357 200.828 802.382 198.578C819.279 196.269 837.635 187.315 843.245 170.111C845.598 162.888 845.598 155.106 843.245 147.883C857.276 138.97 865.603 122.063 862.818 105.466C859.912 88.0993 845.787 74.0684 828.146 72.2724C822.749 71.7251 817.297 72.3138 812.141 74.0008C810.553 69.4472 807.666 65.4571 803.837 62.5215C800.007 59.5859 795.402 57.8328 790.588 57.4783C785.775 57.1238 780.962 58.1834 776.743 60.5263C772.525 62.8693 769.083 66.3936 766.844 70.6653C764.69 74.8251 763.726 79.4979 764.059 84.1696C759.544 79.0212 753.618 75.3074 747.014 73.4876C740.1 71.7342 732.839 71.8937 726.009 73.9492C719.18 76.0047 713.039 79.8785 708.245 85.1554C705.132 88.5794 702.578 92.4712 700.676 96.6881C699.135 86.0602 695.742 75.6213 688.794 67.2757C683.963 61.7157 677.861 57.4028 671.005 54.7033C663.566 51.5674 655.64 49.74 647.579 49.3016C633.669 48.6669 620.03 54.6086 610.256 64.3722C599.956 74.649 594.603 88.9501 594.265 103.4C593.941 117.458 598.24 132.866 608.148 143.251C604.423 141.818 600.395 141.353 596.442 141.9C591.369 142.736 586.724 145.247 583.248 149.031C580.521 152.178 578.728 156.024 578.071 160.136C577.414 164.247 577.92 168.459 579.531 172.299C574.03 170.548 568.109 170.633 562.661 172.542C561.495 172.876 560.412 173.45 559.481 174.227C558.55 175.004 557.792 175.966 557.254 177.052C556.471 179.011 556.442 181.191 557.173 183.17C558.863 188.166 563.567 190.475 568.514 191.164Z" fill="white"/>
<path d="M741.066 191.772C741.066 191.772 752.596 190.421 766.154 168.099C766.154 168.099 774.981 190.962 800.151 191.947C825.321 192.933 845.989 159.2 845.989 159.2C845.989 159.2 852.991 190.084 819.211 207.41C785.43 224.736 761.667 193.501 761.667 193.501C761.667 193.501 747.216 210.975 741.066 191.772Z" fill="#CDCDCD"/>
<path d="M718.505 185.033C718.505 185.033 692.471 218.51 656.325 207.599C620.179 196.687 618.124 167.761 618.124 167.761C618.124 167.761 614.758 181.171 593.346 182.44C571.934 183.71 557.187 177.039 557.187 177.039C556.404 178.998 556.375 181.177 557.106 183.156C558.823 188.139 563.527 190.449 568.474 191.137C574.597 191.988 580.964 191.758 587.128 191.934L609.067 192.596C617.178 210.907 631.709 226.356 650.796 233.325C673.411 241.522 700.135 236.66 716.004 217.903C719.124 214.209 721.746 210.123 723.804 205.749C728.184 208.652 733.172 211.448 738.606 211.272C741.134 211.095 743.6 210.405 745.852 209.244C748.104 208.083 750.095 206.476 751.705 204.52C753.536 202.382 754.901 199.885 755.714 197.191C756.526 194.496 756.767 191.662 756.422 188.868C755.476 185.276 754.773 182.778 754.773 182.778C741.147 198.375 718.505 185.033 718.505 185.033Z" fill="#CDCDCD"/>
<path d="M756.908 118.49C756.908 118.49 752.272 112.305 756.908 107.97C761.545 103.635 775.184 104.878 775.184 104.878C775.184 104.878 770.223 96.208 784.16 94.9791C798.097 93.7502 816.061 104.257 816.061 104.257C816.061 104.257 821.009 90.3472 838.352 88.4836C855.695 86.62 877.674 97.869 877.674 97.869C877.674 97.869 903.074 82.9198 947.344 87.2411C982.111 90.6442 1031.56 115.006 1040.34 127.241C1043.35 131.441 1045.87 136.572 1045.12 141.826C1044.71 144.354 1043.76 146.767 1042.35 148.902C1042.35 148.902 1074.58 147.052 1085.03 174.979C1095.48 202.906 1063.58 217.558 1028.02 215.572C992.452 213.587 974.284 195.316 974.284 195.316C974.284 195.316 958.861 209.982 926.675 193.061C894.49 176.14 884.906 158.936 884.906 158.936C884.906 158.936 872.741 170.792 859.223 166.268C846.287 161.96 845.705 158.166 845.705 157.801C845.705 158.341 845.814 166.741 823.685 163.729C805.18 161.218 793.162 147.821 788.634 137.869C781.044 139.27 773.365 140.145 765.654 140.489C752.028 141.11 729.157 137.707 729.738 126.566C730.32 115.425 756.908 118.49 756.908 118.49Z" fill="white"/>
<path d="M974.311 112.583C974.311 112.583 959.442 99.2809 939.639 101.442C919.836 103.602 921.052 120.01 921.052 120.01C921.052 120.01 901.547 106.087 887.259 108.248C872.97 110.409 872.092 114.136 872.092 114.136C872.092 114.136 868.036 102.995 860.318 104.223C852.599 105.452 853.208 110.611 853.208 110.611C853.208 110.611 850.409 100.523 859.966 99.5915C869.523 98.6597 874.66 106.708 874.66 106.708C874.66 106.708 882.257 101.752 895.572 101.442C903.531 101.247 911.41 103.058 918.484 106.708C918.484 106.708 928.081 94.3383 941.396 93.4065C954.711 92.4747 974.217 112.583 974.217 112.583" fill="#F2F2F2"/>
<path d="M750.485 143.208C750.485 143.208 735.616 129.906 715.813 132.067C696.01 134.227 697.226 150.635 697.226 150.635C697.226 150.635 677.721 136.712 663.433 138.873C649.145 141.033 648.266 144.761 648.266 144.761C648.266 144.761 644.21 133.619 636.492 134.848C628.773 136.077 629.382 141.236 629.382 141.236C629.382 141.236 626.584 131.148 636.14 130.216C645.697 129.285 650.834 137.333 650.834 137.333C650.834 137.333 658.431 132.377 671.746 132.067C679.705 131.872 687.585 133.683 694.658 137.333C694.658 137.333 704.255 124.963 717.57 124.031C730.885 123.1 750.391 143.208 750.391 143.208" fill="#F2F2F2"/>
<path d="M970.947 194.053C970.947 194.053 962.641 202.184 953.412 199.082C944.58 196.127 944.183 193.525 944.183 193.275C944.183 193.645 944.257 199.406 929.149 197.341C916.514 195.618 908.31 186.43 905.218 179.604C900.036 180.565 894.793 181.165 889.529 181.401C880.226 181.827 864.611 179.493 865.007 171.852C865.031 171.203 865.208 170.568 865.524 170C867.04 171.752 868.814 173.26 870.785 174.473C884.628 183.179 905.467 171.574 905.467 171.574C905.467 171.574 908.744 185.273 922.624 189.95C936.504 194.627 943.048 179.891 943.048 179.891C943.048 179.891 946.13 188.598 957.307 191.302C968.483 194.006 976.586 180.855 976.586 180.855C976.586 180.855 982.363 197.683 1003.95 206.584C1025.54 215.484 1040.76 197.1 1040.76 197.1C1040.76 197.1 1060.61 227.469 1086.24 217.8C1101.2 212.15 1102.43 202.166 1100.72 194.747C1103.83 197.555 1106.2 201.089 1107.63 205.037C1114.75 224.181 1092.98 234.239 1068.7 232.878C1044.42 231.516 1032.02 218.985 1032.02 218.985C1032.02 218.985 1021.48 229.043 999.511 217.439C977.537 205.834 970.947 194.053 970.947 194.053Z" fill="#CDCDCD"/>
<path d="M1394.71 65.6283C1394.71 65.6283 1390.06 59.4433 1394.71 55.1084C1399.36 50.7735 1412.97 52.0161 1412.97 52.0161C1412.97 52.0161 1408.02 43.3597 1421.94 42.1173C1435.87 40.8749 1453.85 51.4083 1453.85 51.4083C1453.85 51.4083 1458.79 37.4854 1476.14 35.6218C1493.48 33.7582 1515.46 45.0748 1515.46 45.0748C1515.46 45.0748 1540.86 30.1121 1585.13 34.447C1619.91 37.8365 1669.36 62.2118 1678.13 74.4331C1681.14 78.633 1683.66 83.778 1682.9 89.0177C1682.49 91.5464 1681.55 93.959 1680.13 96.0941C1680.13 96.0941 1712.37 94.2574 1722.82 122.171C1733.27 150.084 1701.37 164.75 1665.8 162.778C1630.24 160.807 1612.07 142.522 1612.07 142.522C1612.07 142.522 1596.65 157.187 1564.47 140.267C1532.3 123.346 1522.69 106.155 1522.69 106.155C1522.69 106.155 1510.53 117.998 1497.01 113.488C1484.09 109.18 1483.49 105.385 1483.49 105.007C1483.49 105.547 1483.6 113.947 1461.47 110.949C1442.96 108.437 1430.95 95.0407 1426.42 85.0745C1418.83 86.4981 1411.15 87.4005 1403.44 87.7754C1389.81 88.3966 1366.94 84.9799 1367.52 73.8524C1368.1 62.7249 1394.71 65.6283 1394.71 65.6283Z" fill="white"/>
<path d="M1612.06 68.7207C1612.06 68.7207 1597.19 55.419 1577.38 57.5932C1557.58 59.7674 1558.8 76.1481 1558.8 76.1481C1558.8 76.1481 1539.29 62.2251 1525 64.3993C1510.71 66.5734 1509.84 70.2738 1509.84 70.2738C1509.84 70.2738 1505.78 59.1326 1498.08 60.375C1490.37 61.6174 1490.95 66.749 1490.95 66.749C1490.95 66.749 1488.15 56.6614 1497.71 55.7296C1507.27 54.7978 1512.4 62.8464 1512.4 62.8464C1512.4 62.8464 1520 57.8903 1533.32 57.5932C1541.27 57.3976 1549.15 59.2041 1556.23 62.8464C1556.23 62.8464 1565.83 50.4763 1579.21 49.5445C1592.59 48.6127 1612.03 68.7207 1612.03 68.7207" fill="#F2F2F2"/>
<path d="M1522.68 106.047C1522.68 106.047 1510.51 117.89 1496.99 113.379C1484.07 109.072 1483.48 105.277 1483.48 104.899C1483.48 105.439 1483.58 113.839 1461.46 110.841C1442.95 108.329 1430.93 94.9325 1426.41 84.9664C1418.82 86.3899 1411.14 87.2923 1403.43 87.6672C1389.8 88.2884 1366.93 84.8719 1367.51 73.7444C1367.55 72.7973 1367.81 71.8721 1368.27 71.0435C1370.49 73.6022 1373.08 75.8063 1375.97 77.5795C1396.25 90.2601 1426.78 73.3527 1426.78 73.3527C1426.78 73.3527 1431.57 93.3121 1451.9 100.132C1472.23 106.951 1481.81 85.4662 1481.81 85.4662C1481.81 85.4662 1486.34 98.1601 1502.71 102.103C1519.08 106.047 1530.94 86.884 1530.94 86.884C1530.94 86.884 1539.4 111.408 1571.02 124.385C1602.63 137.363 1624.92 110.571 1624.92 110.571C1624.92 110.571 1654 154.838 1691.54 140.739C1713.45 132.515 1715.26 117.944 1712.75 107.127C1717.3 111.223 1720.78 116.375 1722.87 122.13C1733.31 150.044 1701.42 164.709 1665.86 162.738C1630.29 160.766 1612.12 142.481 1612.12 142.481C1612.12 142.481 1596.7 157.147 1564.53 140.226C1532.36 123.305 1522.68 106.047 1522.68 106.047Z" fill="#CDCDCD"/>
<path d="M67 126.798C67 126.798 89.1387 115.684 110.061 130.367C130.983 145.05 122.547 168.632 122.547 168.632C122.547 168.632 150.064 159.302 164.839 170.782C179.614 182.262 179.038 188.282 179.038 188.282C179.038 188.282 188.275 174.115 196.294 180.414C204.314 186.712 201.385 194 201.385 194C201.385 194 208.813 180.65 198.632 173.728C188.451 166.805 179.422 175.877 179.422 175.877C179.422 175.877 173.195 164.14 158.612 155.971C149.922 151.074 140.454 149.188 131.079 150.488C131.079 150.488 125.829 126.604 111.55 117.511C97.2707 108.417 67.0641 126.948 67.0641 126.948" fill="#F2F2F2"/>
</g>
<defs>
<filter id="filter0_d_119_2341" x="-162" y="4" width="2314" height="387.905" filterUnits="userSpaceOnUse" color-interpolation-filters="sRGB">
<feFlood flood-opacity="0" result="BackgroundImageFix"/>
<feColorMatrix in="SourceAlpha" type="matrix" values="0 0 0 0 0 0 0 0 0 0 0 0 0 0 0 0 0 0 127 0" result="hardAlpha"/>
<feOffset dy="-8"/>
<feGaussianBlur stdDeviation="2"/>
<feComposite in2="hardAlpha" operator="out"/>
<feColorMatrix type="matrix" values="0 0 0 0 0 0 0 0 0 0 0 0 0 0 0 0 0 0 0.1 0"/>
<feBlend mode="normal" in2="BackgroundImageFix" result="effect1_dropShadow_119_2341"/>
<feBlend mode="normal" in="SourceGraphic" in2="effect1_dropShadow_119_2341" result="shape"/>
</filter>
</defs>
</svg>
