<svg width="60" height="48" viewBox="0 0 60 48" fill="none" xmlns="http://www.w3.org/2000/svg">
<path d="M18.7768 48C41.3079 48 53.6315 29.5314 53.6315 13.5155C53.6315 12.9909 53.6315 12.4687 53.5957 11.9488C55.9931 10.2332 58.0626 8.1088 59.7073 5.67528C57.4718 6.65589 55.1 7.29869 52.6714 7.58216C55.2288 6.06764 57.1428 3.68526 58.057 0.878536C55.6524 2.2904 53.0217 3.28534 50.2783 3.82038C48.4314 1.87731 45.9886 0.590657 43.3281 0.159529C40.6676 -0.271599 37.9376 0.176833 35.5606 1.43543C33.1836 2.69403 31.2922 4.69263 30.1789 7.12195C29.0657 9.55127 28.7927 12.2759 29.4023 14.8741C24.532 14.6324 19.7675 13.3802 15.4181 11.1986C11.0686 9.01709 7.23146 5.95504 4.15563 2.21123C2.58913 4.87935 2.10934 8.03788 2.81396 11.0437C3.51857 14.0495 5.35461 16.6766 7.94824 18.3902C5.99867 18.3337 4.09156 17.8133 2.38829 16.8732V17.0268C2.38907 19.825 3.36812 22.5368 5.15939 24.7023C6.95065 26.8677 9.44386 28.3535 12.2161 28.9076C10.4127 29.3943 8.52042 29.4654 6.68483 29.1155C7.46793 31.5235 8.99199 33.6293 11.044 35.1383C13.0959 36.6474 15.5732 37.4844 18.1295 37.5322C15.5897 39.5074 12.6811 40.9678 9.57027 41.8298C6.45942 42.6918 3.20731 42.9385 0 42.5558C5.60212 46.1126 12.1204 47.9992 18.7768 47.9905" fill="#1DA1F2"/>
</svg>
