<svg width="115" height="115" viewBox="0 0 115 115" fill="none" xmlns="http://www.w3.org/2000/svg">
<path d="M105.701 9.29856V105.701H9.29856V9.29856H105.701ZM105.701 0H9.29856C6.83243 0 4.46733 0.97966 2.72351 2.72348C0.979689 4.4673 0 6.83243 0 9.29856V105.701C0 108.168 0.979689 110.533 2.72351 112.277C4.46733 114.02 6.83243 115 9.29856 115H105.701C108.168 115 110.533 114.02 112.277 112.277C114.02 110.533 115 108.168 115 105.701V9.29856C115 6.83243 114.02 4.4673 112.277 2.72348C110.533 0.97966 108.168 0 105.701 0V0Z" fill="#231F20"/>
<path d="M104.618 36.9895V78.0101H53.8271V36.9895H104.618ZM104.618 27.6909H53.8271C51.3609 27.6909 48.9958 28.6706 47.252 30.4144C45.5081 32.1582 44.5285 34.5234 44.5285 36.9895V78.0101C44.5285 80.4762 45.5081 82.8414 47.252 84.5852C48.9958 86.329 51.3609 87.3087 53.8271 87.3087H104.618C107.084 87.3087 109.449 86.329 111.193 84.5852C112.937 82.8414 113.917 80.4762 113.917 78.0101V36.9895C113.917 34.5234 112.937 32.1582 111.193 30.4144C109.449 28.6706 107.084 27.6909 104.618 27.6909V27.6909Z" fill="#231F20"/>
<path d="M79.2214 52.9695C79.8166 52.9692 80.406 53.0861 80.956 53.3137C81.5059 53.5412 82.0057 53.8749 82.4266 54.2957C82.8476 54.7164 83.1815 55.216 83.4094 55.7658C83.6372 56.3157 83.7545 56.905 83.7545 57.5002C83.7539 58.702 83.276 59.8544 82.4259 60.704C81.5759 61.5537 80.4233 62.0309 79.2214 62.0309C78.02 62.0303 76.868 61.5528 76.0184 60.7032C75.1689 59.8537 74.6913 58.7016 74.6907 57.5002C74.6907 56.2986 75.1681 55.1462 76.0177 54.2965C76.8674 53.4468 78.0198 52.9695 79.2214 52.9695ZM79.2214 43.6709C75.555 43.6752 72.04 45.1336 69.4474 47.7262C66.8548 50.3187 65.3965 53.8338 65.3922 57.5002C65.3965 61.1666 66.8548 64.6817 69.4474 67.2742C72.04 69.8668 75.555 71.3252 79.2214 71.3295C82.8883 71.3258 86.4039 69.8677 88.997 67.275C91.59 64.6824 93.0487 61.167 93.0531 57.5002C93.0487 53.8334 91.59 50.318 88.997 47.7253C86.4039 45.1327 82.8883 43.6746 79.2214 43.6709V43.6709Z" fill="#231F20"/>
</svg>
